<?xml version="1.0" encoding="UTF-8"?>
<svg id="Layer_1" data-name="Layer 1" xmlns="http://www.w3.org/2000/svg" xmlns:xlink="http://www.w3.org/1999/xlink" viewBox="0 0 1080 1080">
  <defs>
    <style>
      .cls-1 {
        fill: url(#linear-gradient-12);
      }

      .cls-1, .cls-2, .cls-3, .cls-4, .cls-5, .cls-6, .cls-7, .cls-8, .cls-9, .cls-10, .cls-11, .cls-12, .cls-13, .cls-14, .cls-15, .cls-16, .cls-17, .cls-18, .cls-19, .cls-20, .cls-21, .cls-22, .cls-23, .cls-24, .cls-25, .cls-26, .cls-27 {
        stroke-width: 0px;
      }

      .cls-2 {
        fill: url(#linear-gradient-17);
      }

      .cls-3 {
        fill: url(#linear-gradient-19);
      }

      .cls-4 {
        fill: url(#linear-gradient);
      }

      .cls-5 {
        fill: url(#linear-gradient-21);
      }

      .cls-6 {
        fill: url(#linear-gradient-6);
      }

      .cls-8 {
        fill: #000096;
      }

      .cls-9 {
        fill: url(#linear-gradient-15);
      }

      .cls-10 {
        fill: url(#linear-gradient-11);
      }

      .cls-11 {
        fill: #7a0009;
      }

      .cls-12 {
        fill: url(#linear-gradient-5);
      }

      .cls-13 {
        fill: url(#linear-gradient-13);
      }

      .cls-14 {
        fill: url(#linear-gradient-16);
      }

      .cls-15 {
        fill: url(#linear-gradient-22);
      }

      .cls-16 {
        fill: #fff;
      }

      .cls-17 {
        fill: url(#linear-gradient-20);
      }

      .cls-18 {
        fill: url(#linear-gradient-14);
      }

      .cls-19 {
        fill: url(#linear-gradient-2);
      }

      .cls-20 {
        fill: url(#linear-gradient-7);
      }

      .cls-21 {
        fill: url(#linear-gradient-3);
      }

      .cls-22 {
        fill: url(#linear-gradient-9);
      }

      .cls-23 {
        fill: url(#linear-gradient-8);
      }

      .cls-24 {
        fill: url(#linear-gradient-18);
      }

      .cls-25 {
        fill: #ffe6e8;
      }

      .cls-26 {
        fill: url(#linear-gradient-10);
      }

      .cls-27 {
        fill: url(#linear-gradient-4);
      }
    </style>
    <linearGradient id="linear-gradient" x1="522.75" y1="328.91" x2="522.75" y2="491.69" gradientUnits="userSpaceOnUse">
      <stop offset="0" stop-color="#f50e1d"/>
      <stop offset=".31" stop-color="#f20d1c"/>
      <stop offset=".51" stop-color="#e90d1b"/>
      <stop offset=".68" stop-color="#da0d1a"/>
      <stop offset=".84" stop-color="#c50c18"/>
      <stop offset=".98" stop-color="#aa0b16"/>
      <stop offset="1" stop-color="#a60b16"/>
    </linearGradient>
    <linearGradient id="linear-gradient-2" x1="540" y1="421.73" x2="540" y2="520.09" gradientUnits="userSpaceOnUse">
      <stop offset="0" stop-color="#0e02e5"/>
      <stop offset=".31" stop-color="#0d01e2"/>
      <stop offset=".51" stop-color="#0b01d9"/>
      <stop offset=".68" stop-color="#0901ca"/>
      <stop offset=".84" stop-color="#0500b5"/>
      <stop offset=".98" stop-color="#00009a"/>
      <stop offset="1" stop-color="#000096"/>
    </linearGradient>
    <linearGradient id="linear-gradient-3" x1="540.51" y1="684.87" x2="540.51" y2="726.3" gradientUnits="userSpaceOnUse">
      <stop offset="0" stop-color="#fff"/>
      <stop offset=".3" stop-color="#fcfcfc"/>
      <stop offset=".49" stop-color="#f3f3f4"/>
      <stop offset=".66" stop-color="#e4e5e6"/>
      <stop offset=".81" stop-color="#cfd0d2"/>
      <stop offset=".94" stop-color="#b4b6b8"/>
      <stop offset="1" stop-color="#a7a9ac"/>
    </linearGradient>
    <linearGradient id="linear-gradient-4" x1="540.55" y1="745.1" x2="540.55" y2="770.82" xlink:href="#linear-gradient-2"/>
    <linearGradient id="linear-gradient-5" x1="540.55" y1="745.1" x2="540.55" y2="770.82" xlink:href="#linear-gradient-2"/>
    <linearGradient id="linear-gradient-6" x1="540.55" y1="745.1" x2="540.55" y2="770.82" xlink:href="#linear-gradient-2"/>
    <linearGradient id="linear-gradient-7" x1="540.55" y1="745.1" x2="540.55" y2="770.82" xlink:href="#linear-gradient-2"/>
    <linearGradient id="linear-gradient-8" x1="540.55" y1="745.1" x2="540.55" y2="770.82" xlink:href="#linear-gradient-2"/>
    <linearGradient id="linear-gradient-9" x1="540.55" y1="745.1" x2="540.55" y2="770.82" xlink:href="#linear-gradient-2"/>
    <linearGradient id="linear-gradient-10" x1="540.55" y1="745.1" x2="540.55" y2="770.82" xlink:href="#linear-gradient-2"/>
    <linearGradient id="linear-gradient-11" x1="540.55" y1="745.1" x2="540.55" y2="770.82" xlink:href="#linear-gradient-2"/>
    <linearGradient id="linear-gradient-12" x1="540.55" y1="745.1" x2="540.55" y2="770.82" xlink:href="#linear-gradient-2"/>
    <linearGradient id="linear-gradient-13" x1="540.55" y1="745.1" x2="540.55" y2="770.82" xlink:href="#linear-gradient-2"/>
    <linearGradient id="linear-gradient-14" x1="540.55" y1="745.1" x2="540.55" y2="770.82" xlink:href="#linear-gradient-2"/>
    <linearGradient id="linear-gradient-15" x1="540.98" y1="570.54" x2="540.98" y2="659.05" xlink:href="#linear-gradient"/>
    <linearGradient id="linear-gradient-16" x1="540.98" y1="570.54" x2="540.98" y2="659.05" xlink:href="#linear-gradient"/>
    <linearGradient id="linear-gradient-17" x1="540.98" y1="570.54" x2="540.98" y2="659.05" xlink:href="#linear-gradient"/>
    <linearGradient id="linear-gradient-18" x1="540.98" y1="570.54" x2="540.98" y2="659.05" xlink:href="#linear-gradient"/>
    <linearGradient id="linear-gradient-19" x1="540.98" y1="570.54" x2="540.98" y2="659.05" xlink:href="#linear-gradient"/>
    <linearGradient id="linear-gradient-20" x1="540.98" y1="570.54" x2="540.98" y2="659.05" xlink:href="#linear-gradient"/>
    <linearGradient id="linear-gradient-21" x1="540.98" y1="570.54" x2="540.98" y2="659.05" xlink:href="#linear-gradient"/>
    <linearGradient id="linear-gradient-22" x1="540.98" y1="570.54" x2="540.98" y2="659.05" xlink:href="#linear-gradient"/>
  </defs>
  <g>
    <path class="cls-11" d="m470.16,503.66c-7.93,0-14.28-4.19-17.88-11.8-4.99-10.54-.34-21.5,11.84-27.93,26.08-13.78,48.38-30.58,66.29-49.93l.86-.92,1.26-.1c2.61-.2,5.14-.72,7.55-1.51-1.32.21-2.66.34-4.01.38-.33,0-.65.01-.98.01-8.46,0-16.47-3.38-22.55-9.52-6.51-6.58-10.05-15.44-9.96-24.97.18-19.02,14.7-34.42,33.06-35.05.37-.01.75-.02,1.12-.02,12.79,0,23.91,7.52,29.19,19.02,7.77-16.38,13.69-34.17,17.63-53.02.05-.24.07-.61.09-1.01.1-1.75.27-5,3.94-7.12l3.4-1.97,1.25,3.73c2.83,8.47,2.87,16.95,2.9,25.16,0,1.41.01,2.81.03,4.21.53,40-9.49,73.84-30.63,103.43-13.99,19.58-32.38,36.23-57.89,52.4-8.61,5.45-16.44,10.26-25.2,14.01-3.95,1.67-7.74,2.52-11.3,2.52Z"/>
    <path class="cls-25" d="m454.44,489.01c-4.32-9.12-.08-18.17,10.44-23.72,26.41-13.95,48.82-30.78,67.14-50.59,16.82-1.28,30.5-14.61,31.92-30.85-3.75,13-15.3,22.91-28.73,23.32-16.69.51-30.35-13.62-30.18-31.24.17-17.45,13.18-31.3,29.96-31.87,14.58-.5,26.71,9.93,29.58,24.25,9.62-18.48,16.77-38.73,21.39-60.82.4-1.91-.38-4.35,2.5-6.01,3.14,9.39,2.63,19.03,2.76,28.39.48,36.58-8.1,70.82-30.03,101.52-15.16,21.23-34.94,37.57-57,51.55-7.97,5.05-16.02,10.04-24.74,13.77-11.27,4.78-20.48,1.88-25.01-7.7Z"/>
    <path class="cls-4" d="m455.18,490.49c-4.32-9.12-.08-18.17,10.44-23.72,26.41-13.95,48.82-30.78,67.14-50.59,16.82-1.28,30.5-14.61,31.92-30.85-3.75,13-15.3,22.91-28.73,23.32-16.69.51-30.35-13.62-30.18-31.24.17-17.45,13.18-31.3,29.96-31.87,14.58-.5,26.71,9.93,29.58,24.25,9.62-18.48,16.77-38.73,21.39-60.82.4-1.91-.38-4.35,2.5-6.01,3.14,9.39,2.63,19.03,2.76,28.39.48,36.58-8.1,70.82-30.03,101.52-15.16,21.23-34.94,37.57-57,51.55-7.97,5.05-16.02,10.04-24.74,13.77-11.27,4.78-20.48,1.88-25.01-7.7Z"/>
  </g>
  <g>
    <path class="cls-8" d="m439.71,528.33c-9.56,0-15.22-.34-15.46-.36l-.22-5.87c94.27-12.77,144.4-73.26,165.89-108.19,4.23-6.88,11.54-10.83,20.05-10.83,5.67,0,11.4,1.78,16.55,5.15,11.01,7.2,17.1,20.39,14.87,32.16-1.99,31.35-1.88,53.49.3,57.79,3.14,6.16,11.41,6.67,13.87,6.68l.32,5.88c-.72.08-3.36.35-7.29.35h0c-8.78,0-21.89-1.28-34.47-7.37-5.68-2.74-9.68-7.95-11.93-15.52-51.68,36.15-130.48,40.12-162.49,40.12Z"/>
    <path class="cls-16" d="m638.39,498.17c-3.55-7-1.58-44.26-.61-59.5,2.06-10.43-3.22-22.57-13.55-29.32-11.84-7.74-26.07-5.66-32.47,4.75-20.05,32.58-70.99,96.42-168.01,109.56,0,0,114.37,7.01,179.6-41.79,1.47,7.72,4.77,14.64,11.39,17.83,18.08,8.75,37.55,7.04,40.14,6.75-1.87,0-12.38-.23-16.49-8.29Z"/>
    <path class="cls-19" d="m639.08,499.53c-3.55-7-1.58-44.26-.61-59.5,2.06-10.43-3.22-22.57-13.55-29.32-11.84-7.74-26.07-5.66-32.47,4.75-20.05,32.58-70.99,96.42-168.01,109.56,0,0,114.37,7.01,179.6-41.79,1.47,7.72,4.77,14.64,11.39,17.83,18.08,8.75,37.55,7.04,40.14,6.75-1.87,0-12.38-.23-16.49-8.29Z"/>
  </g>
  <g>
    <g>
      <polygon class="cls-7" points="312.17 730.15 313.14 725.3 313.14 712.35 311.73 717.77 311.73 721.81 298.83 721.81 298.83 717.77 297.79 713.82 297.79 725.3 298.76 730.15 282.93 730.15 283.9 725.3 283.9 681.45 282.93 676.6 297.95 676.6 305.28 699.36 312.34 677.45 312.17 676.6 312.61 676.6 312.95 675.57 314.37 676.6 328.01 676.6 327.04 681.45 327.04 725.3 328.01 730.15 312.17 730.15"/>
      <path class="cls-7" d="m349.23,725.28v-12.37h-4.94v12.37l.98,4.88h-15.94l.98-4.88v-42.38c0-3.4,2.77-6.17,6.17-6.17h20.52c3.43,0,6.23,2.79,6.23,6.23v42.27l.61,3.05v.17c0,1.66-1.17,1.67-3.51,1.68-1.11,0-12.07.04-12.07.04l.98-4.88Zm0-25.32v-9.25h-4.94v9.25h4.94Z"/>
      <path class="cls-7" d="m386.93,730.15l.09-4.35-6.66-14.84h-.05v14.34l.97,4.85h-15.84l.97-4.85v-43.29l-.97-4.85h27.74c1.63,0,3.16.63,4.31,1.78,1.15,1.15,1.78,2.68,1.78,4.3v21.11c0,2.69-1.75,4.98-4.17,5.79l6.96,14.79,1.04,5.21h-16.17Zm-1.55-32.17v-6.92h-5.07v6.92h5.07Z"/>
      <polygon class="cls-7" points="410.36 730.15 411.33 725.3 411.33 689.85 400.68 689.85 400.68 682.02 399.71 677.17 436.84 677.17 435.87 682.02 435.87 689.85 425.22 689.85 425.22 725.3 426.19 730.15 410.36 730.15"/>
      <polygon class="cls-7" points="435.24 730.15 436.21 725.3 436.15 681.58 435.18 676.72 451.02 676.72 450.05 681.57 450.12 725.3 451.09 730.15 435.24 730.15"/>
      <path class="cls-7" d="m472.22,725.28v-12.37h-4.94v12.37l.98,4.88h-15.94l.98-4.88v-42.38c0-3.4,2.77-6.17,6.17-6.17h20.52c3.43,0,6.23,2.79,6.23,6.23v42.27l.61,3.05v.17c0,1.66-1.17,1.67-3.51,1.68-1.11,0-12.07.04-12.07.04l.98-4.88Zm0-25.32v-9.25h-4.94v9.25h4.94Z"/>
      <polygon class="cls-7" points="488.5 730.19 489.47 725.34 489.47 681.61 488.5 676.76 504.34 676.76 503.37 681.61 503.37 716.29 518.88 716.29 518.88 725.34 519.85 730.19 488.5 730.19"/>
      <polygon class="cls-7" points="566.64 730.15 567.61 725.3 567.61 712.35 566.21 717.77 566.21 721.81 553.3 721.81 553.3 717.77 552.27 713.82 552.27 725.3 553.23 730.15 537.4 730.15 538.37 725.3 538.37 681.45 537.4 676.6 552.42 676.6 559.75 699.36 566.81 677.45 566.64 676.6 567.08 676.6 567.42 675.57 568.84 676.6 582.48 676.6 581.51 681.45 581.51 725.3 582.48 730.15 566.64 730.15"/>
      <path class="cls-7" d="m603.7,725.28v-12.37h-4.94v12.37l.97,4.88h-15.94l.98-4.88v-42.38c0-3.4,2.77-6.17,6.17-6.17h20.52c3.43,0,6.23,2.79,6.23,6.23v42.27l.61,3.05v.17c0,1.66-1.17,1.67-3.51,1.68-1.12,0-12.07.04-12.07.04l.98-4.88Zm0-25.32v-9.25h-4.94v9.25h4.94Z"/>
      <polygon class="cls-7" points="627.64 730.15 628.61 725.3 628.61 689.85 617.96 689.85 617.96 682.02 616.99 677.17 654.12 677.17 653.16 682.02 653.16 689.85 642.5 689.85 642.5 725.3 643.47 730.15 627.64 730.15"/>
      <path class="cls-7" d="m659.52,730.15c-3.41,0-6.19-2.78-6.19-6.19v-41.05c0-3.41,2.78-6.19,6.19-6.19h20.57c3.38,0,6.13,2.75,6.13,6.13v12.06l.97,4.85h-15.84l.97-4.85v-4.3h-5.1v25.64h5.1v-4.3l-.97-4.85h15.84l-.97,4.85v12.06c0,3.38-2.75,6.13-6.13,6.13h-20.57Z"/>
      <polygon class="cls-7" points="710.16 730.15 711.13 725.3 711.13 708.31 703.09 708.31 703.09 725.3 704.06 730.15 688.23 730.15 689.2 725.3 689.2 681.57 688.23 676.72 704.06 676.72 703.09 681.57 703.09 695.88 711.13 695.88 711.13 681.57 710.16 676.72 725.99 676.72 725.02 681.57 725.02 725.3 725.99 730.15 710.16 730.15"/>
      <path class="cls-7" d="m734.43,730.15c-3.41,0-6.19-2.78-6.19-6.19v-41.9l-.6-3.02v-.17c0-1.66,1.17-1.67,3.49-1.68,1.11,0,11.98-.04,11.98-.04l-.97,4.85v34.24h6.91v-34.24l-.97-4.85h15.84l-.97,4.85v42c0,3.38-2.75,6.13-6.13,6.13h-22.38Z"/>
      <path class="cls-7" d="m765.1,730.15l.97-4.85v-43.29l-.97-4.85h26.53c3.36,0,6.09,2.73,6.09,6.09v21.88c0,3.36-2.73,6.09-6.09,6.09h-11.66v14.08l.97,4.85h-15.84Zm18.72-32.83v-6.26h-3.86v6.26h3.86Z"/>
    </g>
    <g>
      <path class="cls-16" d="m324.99,724.7l.6,3.02h-11.78l.6-3.02v-26.18l-4.73,18.26v2.59h-9.58v-2.59l-4.36-16.68v24.59l.6,3.02h-11.78l.6-3.02v-44.19l-.6-3.02h11.78l8.54,26.52,8.55-26.52.44.32-.06-.32h11.78l-.6,3.02v44.19Z"/>
      <path class="cls-16" d="m350.51,724.67v-14.2h-8.27v14.2l.61,3.05h-11.88l.61-3.05v-42.54c0-2.49,2.02-4.51,4.51-4.51h20.52c2.52,0,4.56,2.04,4.56,4.56v42.44l.61,3.05s-11.88.05-11.88.05l.61-3.05Zm-8.27-23.82h8.27v-11.43c0-.63-.51-1.14-1.14-1.14h-5.99c-.63,0-1.14.51-1.14,1.14v11.43Z"/>
      <path class="cls-16" d="m388.31,724.7l-7.25-16.17h-2.79v16.17l.6,3.02h-11.78l.6-3.02v-43.62l-.6-3.02h25.71c2.44,0,4.43,1.98,4.42,4.42v21.11c0,2.47-2.01,4.46-4.47,4.45h-.51s7.84,16.66,7.84,16.66l.6,3.02h-12.45l.06-3.02Zm-1.65-26.82v-8.25c0-.55-.45-1-1-1h-7.4v10.25h7.4c.55,0,1-.45,1-1Z"/>
      <path class="cls-16" d="m434.43,678.06l-.6,3.02v6.34h-10.65v37.28l.6,3.02h-11.78l.6-3.02v-37.28h-10.65v-6.34l-.6-3.02h33.08Z"/>
      <path class="cls-16" d="m448.07,724.7l.6,3.02h-11.79l.6-3.02-.06-44.06-.6-3.02h11.78l-.6,3.02.07,44.06Z"/>
      <path class="cls-16" d="m473.5,724.67v-14.2h-8.27v14.2l.61,3.05h-11.88l.61-3.05v-42.54c0-2.49,2.02-4.51,4.51-4.51h20.52c2.52,0,4.56,2.04,4.56,4.56v42.44l.61,3.05s-11.88.05-11.88.05l.61-3.05Zm-8.27-23.82h8.27v-11.43c0-.63-.51-1.14-1.14-1.14h-5.99c-.63,0-1.14.51-1.14,1.14v11.43Z"/>
      <path class="cls-16" d="m517.43,727.76h-27.28l.6-3.02v-44.06l-.6-3.02h11.78l-.6,3.02v36.51h15.51v7.55l.6,3.02Z"/>
      <path class="cls-16" d="m579.46,724.7l.6,3.02h-11.78l.6-3.02v-26.18l-4.73,18.26v2.59h-9.58v-2.59l-4.36-16.68v24.59l.6,3.02h-11.78l.6-3.02v-44.19l-.6-3.02h11.78l8.54,26.52,8.55-26.52.44.32-.06-.32h11.78l-.6,3.02v44.19Z"/>
      <path class="cls-16" d="m604.98,724.67v-14.2h-8.27v14.2l.61,3.05h-11.88l.61-3.05v-42.54c0-2.49,2.02-4.51,4.51-4.51h20.52c2.52,0,4.56,2.04,4.57,4.56v42.44l.61,3.05s-11.88.05-11.88.05l.61-3.05Zm-8.27-23.82h8.27v-11.43c0-.63-.51-1.14-1.14-1.14h-5.99c-.63,0-1.14.51-1.14,1.14v11.43Z"/>
      <path class="cls-16" d="m651.71,678.06l-.6,3.02v6.34h-10.65v37.28l.6,3.02h-11.78l.6-3.02v-37.28h-10.65v-6.34l-.6-3.02h33.08Z"/>
      <path class="cls-16" d="m673,708h11.78l-.6,3.02v12.23c0,2.47-2,4.47-4.47,4.47h-20.57c-2.5,0-4.52-2.03-4.52-4.52v-41.05c0-2.5,2.03-4.52,4.52-4.52h20.57c2.47,0,4.47,2,4.47,4.47v12.23l.6,3.02h-11.78l.6-3.02v-5c0-.63-.51-1.13-1.13-1.13h-6.16c-.62,0-1.13.51-1.13,1.13v26.7c0,.62.51,1.13,1.13,1.13h6.16c.63,0,1.13-.51,1.13-1.13v-5l-.6-3.02Z"/>
      <path class="cls-16" d="m722.98,724.7l.6,3.02h-11.78l.6-3.02v-18.82h-11.36v18.82l.6,3.02h-11.78l.6-3.02v-44.06l-.6-3.02h11.78l-.6,3.02v16.13h11.36v-16.13l-.6-3.02h11.78l-.6,3.02v44.06Z"/>
      <path class="cls-16" d="m761.5,678.06l-.6,3.02v42.17c0,2.47-2,4.47-4.47,4.47h-22.38c-2.5,0-4.52-2.03-4.52-4.52v-42.06l-.6-3.02s11.78-.05,11.78-.05l-.6,3.02v34.94c0,.63.51,1.13,1.13,1.13h7.97c.62,0,1.13-.51,1.13-1.13v-34.94l-.6-3.02h11.78Z"/>
      <path class="cls-16" d="m791.25,678.06c2.44,0,4.42,1.98,4.42,4.42v21.88c0,2.44-1.98,4.43-4.43,4.43h-13.33v15.91l.6,3.02h-11.78l.6-3.02v-43.62l-.6-3.02h24.5Zm-6.14,19.16v-7.6c0-.55-.45-1-1-1h-6.19v9.59h6.19c.55,0,1-.45,1-1Z"/>
    </g>
    <g>
      <path class="cls-21" d="m325.37,725.47l.6,3.02h-11.78l.6-3.02v-26.18l-4.73,18.26v2.59h-9.58v-2.59l-4.36-16.68v24.59l.6,3.02h-11.78l.6-3.02v-44.19l-.6-3.02h11.78l8.54,26.52,8.55-26.52.44.32-.06-.32h11.78l-.6,3.02v44.19Z"/>
      <path class="cls-21" d="m350.9,725.44v-14.2h-8.27v14.2l.61,3.05h-11.88l.61-3.05v-42.54c0-2.49,2.02-4.51,4.51-4.51h20.52c2.52,0,4.56,2.04,4.56,4.56v42.44l.61,3.05s-11.88.05-11.88.05l.61-3.05Zm-8.27-23.82h8.27v-11.43c0-.63-.51-1.14-1.14-1.14h-5.99c-.63,0-1.14.51-1.14,1.14v11.43Z"/>
      <path class="cls-21" d="m388.69,725.47l-7.25-16.17h-2.79v16.17l.6,3.02h-11.78l.6-3.02v-43.62l-.6-3.02h25.71c2.44,0,4.43,1.98,4.42,4.42v21.11c0,2.47-2.01,4.46-4.47,4.45h-.51s7.84,16.66,7.84,16.66l.6,3.02h-12.45l.06-3.02Zm-1.65-26.82v-8.25c0-.55-.45-1-1-1h-7.4v10.25h7.4c.55,0,1-.45,1-1Z"/>
      <path class="cls-21" d="m434.81,678.83l-.6,3.02v6.34h-10.65v37.28l.6,3.02h-11.78l.6-3.02v-37.28h-10.65v-6.34l-.6-3.02h33.08Z"/>
      <path class="cls-21" d="m448.46,725.47l.6,3.02h-11.79l.6-3.02-.06-44.06-.6-3.02h11.78l-.6,3.02.07,44.06Z"/>
      <path class="cls-21" d="m473.88,725.44v-14.2h-8.27v14.2l.61,3.05h-11.88l.61-3.05v-42.54c0-2.49,2.02-4.51,4.51-4.51h20.52c2.52,0,4.56,2.04,4.56,4.56v42.44l.61,3.05s-11.88.05-11.88.05l.61-3.05Zm-8.27-23.82h8.27v-11.43c0-.63-.51-1.14-1.14-1.14h-5.99c-.63,0-1.14.51-1.14,1.14v11.43Z"/>
      <path class="cls-21" d="m517.82,728.52h-27.28l.6-3.02v-44.06l-.6-3.02h11.78l-.6,3.02v36.51h15.51v7.55l.6,3.02Z"/>
      <path class="cls-21" d="m579.84,725.47l.6,3.02h-11.78l.6-3.02v-26.18l-4.73,18.26v2.59h-9.58v-2.59l-4.36-16.68v24.59l.6,3.02h-11.78l.6-3.02v-44.19l-.6-3.02h11.78l8.54,26.52,8.55-26.52.44.32-.06-.32h11.78l-.6,3.02v44.19Z"/>
      <path class="cls-21" d="m605.37,725.44v-14.2h-8.27v14.2l.61,3.05h-11.88l.61-3.05v-42.54c0-2.49,2.02-4.51,4.51-4.51h20.52c2.52,0,4.56,2.04,4.57,4.56v42.44l.61,3.05s-11.88.05-11.88.05l.61-3.05Zm-8.27-23.82h8.27v-11.43c0-.63-.51-1.14-1.14-1.14h-5.99c-.63,0-1.14.51-1.14,1.14v11.43Z"/>
      <path class="cls-21" d="m652.1,678.83l-.6,3.02v6.34h-10.65v37.28l.6,3.02h-11.78l.6-3.02v-37.28h-10.65v-6.34l-.6-3.02h33.08Z"/>
      <path class="cls-21" d="m673.38,708.77h11.78l-.6,3.02v12.23c0,2.47-2,4.47-4.47,4.47h-20.57c-2.5,0-4.52-2.03-4.52-4.52v-41.05c0-2.5,2.03-4.52,4.52-4.52h20.57c2.47,0,4.47,2,4.47,4.47v12.23l.6,3.02h-11.78l.6-3.02v-5c0-.63-.51-1.13-1.13-1.13h-6.16c-.62,0-1.13.51-1.13,1.13v26.7c0,.62.51,1.13,1.13,1.13h6.16c.63,0,1.13-.51,1.13-1.13v-5l-.6-3.02Z"/>
      <path class="cls-21" d="m723.36,725.47l.6,3.02h-11.78l.6-3.02v-18.82h-11.36v18.82l.6,3.02h-11.78l.6-3.02v-44.06l-.6-3.02h11.78l-.6,3.02v16.13h11.36v-16.13l-.6-3.02h11.78l-.6,3.02v44.06Z"/>
      <path class="cls-21" d="m761.89,678.83l-.6,3.02v42.17c0,2.47-2,4.47-4.47,4.47h-22.38c-2.5,0-4.52-2.03-4.52-4.52v-42.06l-.6-3.02s11.78-.05,11.78-.05l-.6,3.02v34.94c0,.63.51,1.13,1.13,1.13h7.97c.62,0,1.13-.51,1.13-1.13v-34.94l-.6-3.02h11.78Z"/>
      <path class="cls-21" d="m791.64,678.83c2.44,0,4.42,1.98,4.42,4.42v21.88c0,2.44-1.98,4.43-4.43,4.43h-13.33v15.91l.6,3.02h-11.78l.6-3.02v-43.62l-.6-3.02h24.5Zm-6.14,19.16v-7.6c0-.55-.45-1-1-1h-6.19v9.59h6.19c.55,0,1-.45,1-1Z"/>
    </g>
  </g>
  <g>
    <g>
      <polygon class="cls-8" points="400.11 773.38 400.74 770.2 400.74 743 400.11 739.83 420.31 739.83 419.68 743 419.68 748.76 409.67 748.76 409.67 751.38 418.79 751.38 418.79 760.16 409.67 760.16 409.67 770.2 410.31 773.38 400.11 773.38"/>
      <polygon class="cls-8" points="424.1 773.38 424.73 770.21 424.7 743 424.06 739.83 434.26 739.83 433.63 743 433.67 770.2 434.3 773.38 424.1 773.38"/>
      <path class="cls-8" d="m443.73,773.38c-2.2,0-3.99-1.79-3.99-3.99v-25.56c0-2.2,1.79-3.99,3.99-3.99h14.69c1.06,0,2.05.41,2.8,1.16.75.75,1.16,1.74,1.16,2.8v6.75l.63,3.17h-3.26c1.68.32,2.95,1.8,2.95,3.57v12.93l.63,3.17h-19.6Zm10.04-8.93v-2.82h-2.99v-4.82l-.64-3.17h2.68l.62-3.11v-1.77h-4.78v15.69h5.1Z"/>
      <polygon class="cls-8" points="481.8 773.38 482.44 770.2 482.44 759.78 477.71 759.78 477.71 770.2 478.35 773.38 468.15 773.38 468.78 770.2 468.78 743 468.15 739.83 478.35 739.83 477.71 743 477.71 751.76 482.44 751.76 482.44 743 481.8 739.83 492 739.83 491.37 743 491.37 770.2 492 773.38 481.8 773.38"/>
      <polygon class="cls-8" points="501.76 773.38 502.39 770.2 502.39 748.28 495.76 748.28 495.76 743.28 495.12 740.1 518.59 740.1 517.95 743.28 517.95 748.28 511.32 748.28 511.32 770.2 511.95 773.38 501.76 773.38"/>
      <polygon class="cls-8" points="537.97 773.38 538.6 770.2 538.6 743 537.97 739.83 558.17 739.83 557.54 743 557.54 748.76 547.53 748.76 547.53 751.38 556.65 751.38 556.65 760.16 547.53 760.16 547.53 770.2 548.17 773.38 537.97 773.38"/>
      <polygon class="cls-8" points="561.96 773.38 562.59 770.21 562.55 743 561.92 739.83 572.12 739.83 571.49 743 571.53 770.2 572.16 773.38 561.96 773.38"/>
      <polygon class="cls-8" points="591.06 773.38 586.64 761.13 586.64 770.2 587.27 773.38 577.08 773.38 577.71 770.2 577.71 743 577.08 739.83 586.66 739.83 591.08 751.9 591.08 743 590.45 739.83 600.65 739.83 600.01 743 600.01 770.2 600.65 773.38 591.06 773.38"/>
      <path class="cls-8" d="m605.61,773.38l.63-3.17v-27.2l-.63-3.17h17.46c2.2,0,3.99,1.79,3.99,3.99v25.56c0,2.2-1.79,3.99-3.99,3.99h-17.46Zm12.52-8.93v-15.69h-2.96v15.69h2.96Z"/>
      <polygon class="cls-8" points="632.58 773.38 633.22 770.2 633.22 743 632.58 739.83 652.79 739.83 652.16 743 652.16 748.76 642.15 748.76 642.15 751.38 650.9 751.38 650.9 760.15 642.15 760.15 642.15 764.45 652.16 764.45 652.16 770.2 652.79 773.38 632.58 773.38"/>
      <path class="cls-8" d="m670.61,773.38l.06-2.82-3.9-8.69v8.34l.63,3.17h-10.2l.63-3.17v-26.93l-.63-3.17h17.44c2.17,0,3.93,1.76,3.93,3.93v13.14c0,1.68-1.06,3.12-2.55,3.69l4.28,9.08.68,3.43h-10.38Zm-.96-20.31v-4.03h-2.88v4.03h2.88Z"/>
    </g>
    <g>
      <path class="cls-16" d="m418.61,740.46l-.38,1.88v4.7h-10.01v4.97h9.12v6.43h-9.12v11.33l.38,1.88h-7.33l.38-1.88v-27.44l-.38-1.88h17.34Z"/>
      <path class="cls-16" d="m432.22,769.78l.38,1.88h-7.34l.38-1.88-.04-27.44-.38-1.88h7.33l-.38,1.88.04,27.44Z"/>
      <path class="cls-16" d="m458.8,754.27c1.36,0,2.46,1.1,2.46,2.46v13.04l.38,1.88h-18.17c-1.56,0-2.82-1.26-2.82-2.82v-25.56c0-1.56,1.26-2.82,2.82-2.82h14.69c1.54,0,2.78,1.25,2.78,2.78v6.86l.38,1.88h-7.33l.38-1.88v-2.33c0-.41-.33-.74-.73-.74h-5.66c-.41,0-.73.33-.73.74v16.57c0,.41.33.74.73.74h5.98c.41,0,.73-.33.73-.74v-4.43h-2.99v-3.76l-.38-1.88h7.48Z"/>
      <path class="cls-16" d="m489.92,769.78l.38,1.88h-7.33l.38-1.88v-11.72h-7.08v11.72l.38,1.88h-7.33l.38-1.88v-27.44l-.38-1.88h7.33l-.38,1.88v10.05h7.08v-10.05l-.38-1.88h7.33l-.38,1.88v27.44Z"/>
      <path class="cls-16" d="m516.88,740.74l-.38,1.88v3.95h-6.63v23.21l.38,1.88h-7.33l.38-1.88v-23.21h-6.63v-3.95l-.38-1.88h20.6Z"/>
      <path class="cls-16" d="m556.47,740.46l-.38,1.88v4.7h-10.01v4.97h9.12v6.43h-9.12v11.33l.38,1.88h-7.33l.38-1.88v-27.44l-.38-1.88h17.34Z"/>
      <path class="cls-16" d="m570.08,769.78l.38,1.88h-7.34l.38-1.88-.04-27.44-.38-1.88h7.33l-.38,1.88.04,27.44Z"/>
      <path class="cls-16" d="m598.57,769.78l.38,1.88h-7.33l-6.42-17.79v15.91l.38,1.88h-7.33l.38-1.88v-27.44l-.38-1.88h7.33l6.42,17.52v-15.64l-.38-1.88h7.33l-.38,1.88v27.44Z"/>
      <path class="cls-16" d="m625.62,743.28v25.56c0,1.56-1.26,2.82-2.82,2.82h-16.03l.38-1.88v-27.44l-.38-1.88h16.03c1.56,0,2.82,1.26,2.82,2.82Zm-6.58,21.09v-16.63c0-.39-.32-.71-.7-.71h-4.6v18.04h4.6c.39,0,.7-.32.7-.71Z"/>
      <path class="cls-16" d="m650.71,769.78l.38,1.88h-17.34l.38-1.88v-27.44l-.38-1.88h17.34l-.38,1.88v4.7h-10.01v4.97h8.75v6.42h-8.75v6.64h10.01v4.7Z"/>
      <path class="cls-16" d="m671.58,769.78l-4.52-10.07h-1.74v10.07l.38,1.88h-7.33l.38-1.88v-27.16l-.38-1.88h16.01c1.52,0,2.76,1.23,2.76,2.76v13.14c0,1.54-1.25,2.78-2.79,2.77h-.32s4.88,10.37,4.88,10.37l.38,1.88h-7.75l.04-1.88Zm-1.03-16.7v-5.14c0-.34-.28-.62-.62-.62h-4.61v6.38h4.61c.34,0,.62-.28.62-.62Z"/>
    </g>
    <g>
      <path class="cls-27" d="m418.88,741l-.38,1.88v4.7h-10.01v4.97h9.12v6.43h-9.12v11.33l.38,1.88h-7.33l.38-1.88v-27.44l-.38-1.88h17.34Z"/>
      <path class="cls-12" d="m432.49,770.32l.38,1.88h-7.34l.38-1.88-.04-27.44-.38-1.88h7.33l-.38,1.88.04,27.44Z"/>
      <path class="cls-6" d="m459.07,754.81c1.36,0,2.46,1.1,2.46,2.46v13.04l.38,1.88h-18.17c-1.56,0-2.82-1.26-2.82-2.82v-25.56c0-1.56,1.26-2.82,2.82-2.82h14.69c1.54,0,2.78,1.25,2.78,2.78v6.86l.38,1.88h-7.33l.38-1.88v-2.33c0-.41-.33-.74-.73-.74h-5.66c-.41,0-.73.33-.73.74v16.57c0,.41.33.74.73.74h5.98c.41,0,.73-.33.73-.74v-4.43h-2.99v-3.76l-.38-1.88h7.48Z"/>
      <path class="cls-20" d="m490.19,770.32l.38,1.88h-7.33l.38-1.88v-11.72h-7.08v11.72l.38,1.88h-7.33l.38-1.88v-27.44l-.38-1.88h7.33l-.38,1.88v10.05h7.08v-10.05l-.38-1.88h7.33l-.38,1.88v27.44Z"/>
      <path class="cls-23" d="m517.15,741.28l-.38,1.88v3.95h-6.63v23.21l.38,1.88h-7.33l.38-1.88v-23.21h-6.63v-3.95l-.38-1.88h20.6Z"/>
      <path class="cls-22" d="m556.74,741l-.38,1.88v4.7h-10.01v4.97h9.12v6.43h-9.12v11.33l.38,1.88h-7.33l.38-1.88v-27.44l-.38-1.88h17.34Z"/>
      <path class="cls-26" d="m570.36,770.32l.38,1.88h-7.34l.38-1.88-.04-27.44-.38-1.88h7.33l-.38,1.88.04,27.44Z"/>
      <path class="cls-10" d="m598.84,770.32l.38,1.88h-7.33l-6.42-17.79v15.91l.38,1.88h-7.33l.38-1.88v-27.44l-.38-1.88h7.33l6.42,17.52v-15.64l-.38-1.88h7.33l-.38,1.88v27.44Z"/>
      <path class="cls-1" d="m625.89,743.82v25.56c0,1.56-1.26,2.82-2.82,2.82h-16.03l.38-1.88v-27.44l-.38-1.88h16.03c1.56,0,2.82,1.26,2.82,2.82Zm-6.58,21.09v-16.63c0-.39-.32-.71-.7-.71h-4.6v18.04h4.6c.39,0,.7-.32.7-.71Z"/>
      <path class="cls-13" d="m650.98,770.32l.38,1.88h-17.34l.38-1.88v-27.44l-.38-1.88h17.34l-.38,1.88v4.7h-10.01v4.97h8.75v6.42h-8.75v6.64h10.01v4.7Z"/>
      <path class="cls-18" d="m671.85,770.32l-4.52-10.07h-1.74v10.07l.38,1.88h-7.33l.38-1.88v-27.16l-.38-1.88h16.01c1.52,0,2.76,1.23,2.76,2.76v13.14c0,1.54-1.25,2.78-2.79,2.77h-.32s4.88,10.37,4.88,10.37l.38,1.88h-7.75l.04-1.88Zm-1.03-16.7v-5.14c0-.34-.28-.62-.62-.62h-4.61v6.38h4.61c.34,0,.62-.28.62-.62Z"/>
    </g>
  </g>
  <g>
    <g>
      <path class="cls-11" d="m348.63,666.33c-3.1,0-6.57-1.01-10.31-3.01-3.68-1.96-6.85-4.6-9.42-7.83-2.72-3.41-4.1-7.03-4.1-10.76v-57.26h25.79v50.02c0,1.92.06,3.27.14,4.23,1.71.23,3.71.35,5.98.35h6.56v20.99l-1.47.67c-3.75,1.72-8.18,2.6-13.17,2.6Zm-40.67,0c-3.1,0-6.57-1.01-10.31-3.01-3.68-1.96-6.85-4.6-9.42-7.83-2.72-3.41-4.1-7.03-4.1-10.76v-57.26h25.79v50.02c0,1.91.06,3.27.14,4.23,1.71.23,3.71.35,5.97.35h6.56v20.99l-1.47.67c-3.75,1.72-8.18,2.6-13.17,2.6Z"/>
      <path class="cls-11" d="m420.22,666.33c-5.65,0-10.62-1.02-14.75-3.04-2.98-1.45-5.84-3.47-8.54-6.02l-.54,7.66h-23.25v-76.91h25.79v50.53c1.88,1.28,3.65,2.16,5.29,2.64,1.99.58,4.7.87,8.07.87,2.16,0,4.16-.19,5.98-.56v-53.48h25.79v57.12c0,6.88-2.2,12.22-6.54,15.86-4.21,3.53-10.03,5.33-17.29,5.33Z"/>
      <path class="cls-11" d="m485.96,666.33c-10.1,0-18.05-3.24-23.63-9.64-5.5-6.29-8.28-16.46-8.28-30.21,0-26.81,8.63-40.41,25.64-40.41,3.94,0,7.46.83,10.47,2.46,1.98,1.08,3.69,2.43,5.12,4.05,1.72-1.82,3.6-3.26,5.62-4.29,2.94-1.5,6.71-2.22,11.52-2.22,3.92,0,7.5.62,10.66,1.84,3.1,1.2,5.71,2.64,7.77,4.28l.95.76v71.98h-25.65v-3.03l-1.87.85c-2.2,1-4.96,1.86-8.18,2.54-3.23.68-6.64,1.03-10.13,1.03Zm20.18-4.61v-51.51c-.51-.09-1.15-.15-1.94-.15-.89,0-2.06.12-2.59.71-.45.5-1.1,1.52-1.66,3.57l-.51,1.86h-10.95l-.51-1.86c-.44-1.6-1.02-2.82-1.69-3.52-.18-.18-.72-.75-2.42-.75-.63,0-1.93,0-2.83,2.78-.89,2.75-1.34,7.34-1.34,13.64s.64,10.5,1.91,13.11c.63,1.3,1.94,3.04,6.02,3.04,3.87,0,7.37-.56,10.43-1.66l2.62-.95,5.47,21.7Z"/>
      <path class="cls-11" d="m575.8,666.33c-27.52,0-33.3-14.85-33.3-27.31v-5.71c0-3.59.7-6.62,2.08-9,1.26-2.17,3.01-4.39,5.2-6.57,1.24-1.32,2.17-2.42,2.7-3.19.31-.46.46-1.02.46-1.71,0-1.49-.31-1.91-.31-1.92h0s-.38-.3-1.76-.3h-8.79v-22.59h16.59c6.38,0,11.36,1.61,14.8,4.78,2.93,2.71,4.65,6.43,5.13,11.1h1.8c2.08,0,2.75-.46,2.91-.61.19-.17.85-.93,1.46-3.57.8-3.47,1.34-7.27,1.61-11.3l.17-2.61,26.69,2.75-.25,2.5c-.48,4.83-1.42,9.2-2.78,13-1.04,2.91-2.42,5.29-4.09,7.07-.85.91-1.88,1.73-3.12,2.48,2.07,1.25,3.68,2.77,4.8,4.54,1.81,2.86,2.69,6.67,2.69,11.66v10.17c0,4.87-1.42,9.38-4.21,13.41-2.77,4-6.85,7.19-12.13,9.51-5.17,2.27-11.35,3.42-18.35,3.42Zm2.08-51.44c-.26,1.02-.58,1.96-.96,2.8-1.16,2.57-2.85,5.18-5.04,7.77-1.26,1.51-2.21,2.88-2.82,4.06-.51.98-.76,2.25-.76,3.79v2.51c0,2.25.58,3.77,1.78,4.67,1.38,1.04,3.85,1.58,7.12,1.58,2.66,0,5.18-.27,7.51-.81v-13.11c0-1.13,0-3.25-4.66-3.91l-2.16-.31v-9.04Zm-25.25-3.98s0,0,0,0Z"/>
      <path class="cls-11" d="m572.16,582.62v-24.81l1.89-.48c3.71-.95,8.19-1.77,13.33-2.43,5.16-.66,10.21-1,15.02-1s9.23.29,13.05.86c3.82.57,7.79,1.49,11.79,2.73l2.34.72-5.56,20.04-2.57-.95c-5.73-2.11-11.99-3.19-18.63-3.19-2.37,0-4.46.09-6.26.26v8.24h-24.4Z"/>
      <path class="cls-11" d="m665.63,666.33c-28.79,0-34.83-14.4-34.83-26.48v-12.12c0-1.6.92-3.2,2.89-5.04,1.54-1.44,3.3-2.71,5.24-3.78,1.08-.6,2.07-1.04,2.99-1.33h-6.22l-.5-1.88c-.5-1.9-.91-4.49-1.25-7.92-.33-3.3-.5-6.06-.5-8.19v-5.36l1.44-.68c10.51-4.97,21.65-7.48,33.11-7.48,12.82,0,22.11,3.53,27.61,10.5,5.35,6.79,8.06,17.27,8.06,31.16,0,12.58-3.06,22.25-9.1,28.74-6.09,6.54-15.82,9.86-28.93,9.86Zm-9.46-27.03c0,1.07.36,1.65,1.34,2.11,1.04.49,3.24,1.08,7.83,1.08,5.03,0,7.49-.72,8.67-1.33,1.47-.75,2.45-1.95,2.99-3.67.66-2.11,1-5.4,1-9.76,0-6.65-.84-11.41-2.49-14.16-1.43-2.37-4.07-3.52-8.08-3.52-2.57,0-4.79.11-6.59.33-1.24.15-2.57.4-3.98.75v6h15.46v21.2h-16.16v.96Z"/>
      <path class="cls-11" d="m684.44,584.01c-4.98,0-9.86-.49-14.51-1.44-4.65-.96-8.82-2.23-12.4-3.78l-1.52-.66v-22h24.96v7.34c1.7.21,3.7.32,5.98.32,9.39,0,17.25-2.48,23.36-7.38l2.44-1.96,9.3,18.79-1.74,1.25c-4.5,3.23-9.72,5.66-15.51,7.21-5.7,1.54-12.55,2.32-20.36,2.32Z"/>
      <path class="cls-11" d="m760.87,664.94l-.46-1.93c-2.06-8.58-3.96-16.85-5.66-24.67l-6.03,26.6h-28.96l-.33-2.13c-1.58-10.1-3.06-21.69-4.4-34.46-1.34-12.74-2.45-25.44-3.28-37.77l-.17-2.47,26.59-2.25.06,2.68c.27,12.4.7,25.42,1.28,38.86.46-1.86,1.03-4.12,1.7-6.76,1.47-5.85,2.87-11.88,4.16-17.95l.42-2h18.01l.42,2c1.29,6.08,2.69,12.12,4.16,17.94.67,2.64,1.23,4.9,1.7,6.76.58-13.44,1.01-26.46,1.28-38.87l.06-2.68,26.59,2.25-.17,2.47c-.83,12.28-1.94,24.99-3.28,37.77-1.35,12.77-2.83,24.36-4.4,34.46l-.33,2.13h-28.94Z"/>
    </g>
    <g>
      <path class="cls-25" d="m298.25,659.93c-3.39-1.81-6.27-4.2-8.64-7.17-2.37-2.97-3.55-6.03-3.55-9.19v-54.74h20.75v47.5c0,2.97.14,5.11.42,6.41,2.23.47,4.97.7,8.22.7h4.04v16.85c-3.44,1.58-7.48,2.37-12.12,2.37-2.69,0-5.74-.91-9.12-2.72Zm40.67,0c-3.39-1.81-6.27-4.2-8.64-7.17-2.37-2.97-3.55-6.03-3.55-9.19v-54.74h20.75v47.5c0,2.97.14,5.11.42,6.41,2.23.47,4.97.7,8.22.7h4.04v16.85c-3.44,1.58-7.48,2.37-12.12,2.37-2.69,0-5.73-.91-9.12-2.72Z"/>
      <path class="cls-25" d="m405.99,659.86c-3.81-1.86-7.38-4.69-10.72-8.5h-1.11l-.7,9.89h-18.39v-71.87h20.75v49.31c2.51,1.86,4.88,3.11,7.1,3.76,2.23.65,5.15.97,8.78.97,3.16,0,5.99-.37,8.5-1.11v-52.93h20.75v54.6c0,6.13-1.88,10.77-5.64,13.93-3.76,3.16-8.98,4.74-15.67,4.74-5.29,0-9.84-.93-13.65-2.79Z"/>
      <path class="cls-25" d="m463.65,653.87c-5.11-5.85-7.66-15.37-7.66-28.55,0-25.26,7.71-37.89,23.12-37.89,3.53,0,6.62.72,9.26,2.16,2.65,1.44,4.71,3.41,6.2,5.92,2.04-2.79,4.34-4.83,6.89-6.13,2.55-1.3,6.01-1.95,10.38-1.95,3.62,0,6.87.56,9.75,1.67,2.88,1.11,5.25,2.42,7.1,3.9v68.25h-20.61v-54.04c-1.11-.56-2.6-.84-4.46-.84-2.04,0-3.53.51-4.46,1.53-.93,1.02-1.67,2.55-2.23,4.6h-7.1c-.56-2.04-1.32-3.57-2.3-4.6-.97-1.02-2.39-1.53-4.25-1.53-2.51,0-4.25,1.51-5.22,4.53-.97,3.02-1.46,7.82-1.46,14.42s.72,11.24,2.16,14.21c1.44,2.97,4.2,4.46,8.29,4.46s7.94-.6,11.28-1.81l4.32,17.13c-2.04.93-4.6,1.72-7.66,2.37s-6.27.97-9.61.97c-9.38,0-16.62-2.92-21.73-8.78Z"/>
      <path class="cls-25" d="m544.44,637.85v-5.71c0-3.16.58-5.73,1.74-7.73,1.16-2,2.76-4.01,4.81-6.06,1.39-1.48,2.39-2.67,3-3.55.6-.88.91-1.93.91-3.13,0-1.76-.35-3-1.04-3.69s-1.88-1.04-3.55-1.04h-6.27v-17.55h14.07c5.76,0,10.12,1.37,13.09,4.11,2.97,2.74,4.46,6.75,4.46,12.05,0,4.27-.54,7.59-1.6,9.96-1.07,2.37-2.62,4.76-4.67,7.17-1.39,1.67-2.44,3.18-3.13,4.53-.7,1.35-1.04,3-1.04,4.94v2.51c0,3.06.93,5.29,2.79,6.69,1.86,1.39,4.74,2.09,8.64,2.09,3.62,0,6.96-.46,10.03-1.39v-15.04c0-3.62-2.28-5.76-6.83-6.41v-15.32c2.13,0,3.67-.42,4.6-1.25.93-.83,1.67-2.46,2.23-4.88.84-3.62,1.39-7.52,1.67-11.7l21.59,2.23c-.47,4.64-1.35,8.77-2.65,12.4-.93,2.6-2.11,4.67-3.55,6.2-1.44,1.53-3.65,2.85-6.62,3.97v.56c3.81,1.3,6.48,3.16,8.01,5.57,1.53,2.42,2.3,5.85,2.3,10.31v10.17c0,4.37-1.25,8.36-3.76,11.98-2.51,3.62-6.2,6.5-11.07,8.64-4.88,2.13-10.66,3.2-17.34,3.2-20.52,0-30.78-8.26-30.78-24.79Z"/>
      <path class="cls-25" d="m574.1,558.6c3.62-.93,7.96-1.72,13.02-2.37,5.06-.65,9.96-.98,14.7-.98s8.96.28,12.67.84c3.71.56,7.52,1.44,11.42,2.65l-4.18,15.04c-6.04-2.23-12.54-3.34-19.5-3.34-3.53,0-6.45.19-8.78.56v7.94h-19.36v-20.34Z"/>
      <path class="cls-25" d="m632.74,638.69v-12.12c0-.84.7-1.9,2.09-3.2,1.39-1.3,2.97-2.44,4.74-3.41,1.76-.97,3.2-1.46,4.32-1.46h25.35v16.16h-16.16v3.48c0,2.04.93,3.51,2.79,4.39,1.86.88,4.83,1.32,8.91,1.32,4.46,0,7.73-.53,9.82-1.6,2.09-1.07,3.5-2.79,4.25-5.15.74-2.37,1.11-5.87,1.11-10.52,0-7.15-.95-12.3-2.86-15.46-1.9-3.16-5.32-4.74-10.24-4.74-2.69,0-4.99.12-6.89.35-1.9.23-3.97.67-6.2,1.32v5.85h-16.71c-.47-1.76-.86-4.27-1.18-7.52-.33-3.25-.49-5.9-.49-7.94v-3.76c10.21-4.83,20.89-7.24,32.04-7.24,12.07,0,20.61,3.18,25.63,9.54,5.01,6.36,7.52,16.23,7.52,29.6,0,11.98-2.81,20.99-8.43,27.02-5.62,6.04-14.65,9.05-27.09,9.05-21.54,0-32.31-7.99-32.31-23.96Z"/>
      <path class="cls-25" d="m669.86,578.94c-4.5-.93-8.47-2.13-11.91-3.62v-17.83h19.92v6.96c2.23.47,5.06.7,8.5.7,10.03,0,18.34-2.65,24.93-7.94l6.96,14.07c-4.27,3.06-9.17,5.34-14.69,6.82-5.52,1.49-12.09,2.23-19.71,2.23-4.83,0-9.49-.46-14-1.39Z"/>
      <path class="cls-25" d="m716.93,626.92c-1.35-12.77-2.44-25.33-3.27-37.68l21.45-1.81c.37,16.9,1.02,34.64,1.95,53.21h.84l2.23-8.78c.46-1.95,1.44-5.87,2.92-11.77,1.48-5.9,2.88-11.91,4.18-18.04h13.93c1.3,6.13,2.69,12.14,4.18,18.04,1.48,5.9,2.46,9.82,2.92,11.77l2.23,8.78h.84c.93-18.57,1.58-36.31,1.95-53.21l21.45,1.81c-.84,12.35-1.93,24.91-3.27,37.68-1.35,12.77-2.81,24.21-4.39,34.33h-24.79c-2.79-11.61-5.25-22.52-7.38-32.73h-1.39l-1.25,5.71-6.13,27.02h-24.79c-1.58-10.12-3.04-21.57-4.39-34.33Z"/>
    </g>
    <g>
      <path class="cls-9" d="m298.83,661.09c-3.39-1.81-6.27-4.2-8.64-7.17-2.37-2.97-3.55-6.03-3.55-9.19v-54.74h20.75v47.5c0,2.97.14,5.11.42,6.41,2.23.47,4.97.7,8.22.7h4.04v16.85c-3.44,1.58-7.48,2.37-12.12,2.37-2.69,0-5.74-.91-9.12-2.72Zm40.67,0c-3.39-1.81-6.27-4.2-8.64-7.17-2.37-2.97-3.55-6.03-3.55-9.19v-54.74h20.75v47.5c0,2.97.14,5.11.42,6.41,2.23.47,4.97.7,8.22.7h4.04v16.85c-3.44,1.58-7.48,2.37-12.12,2.37-2.69,0-5.73-.91-9.12-2.72Z"/>
      <path class="cls-14" d="m406.57,661.02c-3.81-1.86-7.38-4.69-10.72-8.5h-1.11l-.7,9.89h-18.39v-71.87h20.75v49.31c2.51,1.86,4.88,3.11,7.1,3.76,2.23.65,5.15.97,8.78.97,3.16,0,5.99-.37,8.5-1.11v-52.93h20.75v54.6c0,6.13-1.88,10.77-5.64,13.93-3.76,3.16-8.98,4.74-15.67,4.74-5.29,0-9.84-.93-13.65-2.79Z"/>
      <path class="cls-2" d="m464.23,655.04c-5.11-5.85-7.66-15.37-7.66-28.55,0-25.26,7.71-37.89,23.12-37.89,3.53,0,6.62.72,9.26,2.16,2.65,1.44,4.71,3.41,6.2,5.92,2.04-2.79,4.34-4.83,6.89-6.13,2.55-1.3,6.01-1.95,10.38-1.95,3.62,0,6.87.56,9.75,1.67,2.88,1.11,5.25,2.42,7.1,3.9v68.25h-20.61v-54.04c-1.11-.56-2.6-.84-4.46-.84-2.04,0-3.53.51-4.46,1.53-.93,1.02-1.67,2.55-2.23,4.6h-7.1c-.56-2.04-1.32-3.57-2.3-4.6-.97-1.02-2.39-1.53-4.25-1.53-2.51,0-4.25,1.51-5.22,4.53-.97,3.02-1.46,7.82-1.46,14.42s.72,11.24,2.16,14.21c1.44,2.97,4.2,4.46,8.29,4.46s7.94-.6,11.28-1.81l4.32,17.13c-2.04.93-4.6,1.72-7.66,2.37s-6.27.97-9.61.97c-9.38,0-16.62-2.92-21.73-8.78Z"/>
      <path class="cls-24" d="m545.02,639.02v-5.71c0-3.16.58-5.73,1.74-7.73,1.16-2,2.76-4.01,4.81-6.06,1.39-1.48,2.39-2.67,3-3.55.6-.88.91-1.93.91-3.13,0-1.76-.35-3-1.04-3.69s-1.88-1.04-3.55-1.04h-6.27v-17.55h14.07c5.76,0,10.12,1.37,13.09,4.11,2.97,2.74,4.46,6.75,4.46,12.05,0,4.27-.54,7.59-1.6,9.96-1.07,2.37-2.62,4.76-4.67,7.17-1.39,1.67-2.44,3.18-3.13,4.53-.7,1.35-1.04,3-1.04,4.94v2.51c0,3.06.93,5.29,2.79,6.69,1.86,1.39,4.74,2.09,8.64,2.09,3.62,0,6.96-.46,10.03-1.39v-15.04c0-3.62-2.28-5.76-6.83-6.41v-15.32c2.13,0,3.67-.42,4.6-1.25.93-.83,1.67-2.46,2.23-4.88.84-3.62,1.39-7.52,1.67-11.7l21.59,2.23c-.47,4.64-1.35,8.77-2.65,12.4-.93,2.6-2.11,4.67-3.55,6.2-1.44,1.53-3.65,2.85-6.62,3.97v.56c3.81,1.3,6.48,3.16,8.01,5.57,1.53,2.42,2.3,5.85,2.3,10.31v10.17c0,4.37-1.25,8.36-3.76,11.98-2.51,3.62-6.2,6.5-11.07,8.64-4.88,2.13-10.66,3.2-17.34,3.2-20.52,0-30.78-8.26-30.78-24.79Z"/>
      <path class="cls-3" d="m574.68,559.76c3.62-.93,7.96-1.72,13.02-2.37,5.06-.65,9.96-.98,14.7-.98s8.96.28,12.67.84c3.71.56,7.52,1.44,11.42,2.65l-4.18,15.04c-6.04-2.23-12.54-3.34-19.5-3.34-3.53,0-6.45.19-8.78.56v7.94h-19.36v-20.34Z"/>
      <path class="cls-17" d="m633.32,639.85v-12.12c0-.84.7-1.9,2.09-3.2,1.39-1.3,2.97-2.44,4.74-3.41,1.76-.97,3.2-1.46,4.32-1.46h25.35v16.16h-16.16v3.48c0,2.04.93,3.51,2.79,4.39,1.86.88,4.83,1.32,8.91,1.32,4.46,0,7.73-.53,9.82-1.6,2.09-1.07,3.5-2.79,4.25-5.15.74-2.37,1.11-5.87,1.11-10.52,0-7.15-.95-12.3-2.86-15.46-1.9-3.16-5.32-4.74-10.24-4.74-2.69,0-4.99.12-6.89.35-1.9.23-3.97.67-6.2,1.32v5.85h-16.71c-.47-1.76-.86-4.27-1.18-7.52-.33-3.25-.49-5.9-.49-7.94v-3.76c10.21-4.83,20.89-7.24,32.04-7.24,12.07,0,20.61,3.18,25.63,9.54,5.01,6.36,7.52,16.23,7.52,29.6,0,11.98-2.81,20.99-8.43,27.02-5.62,6.04-14.65,9.05-27.09,9.05-21.54,0-32.31-7.99-32.31-23.96Z"/>
      <path class="cls-5" d="m670.44,580.1c-4.5-.93-8.47-2.13-11.91-3.62v-17.83h19.92v6.96c2.23.47,5.06.7,8.5.7,10.03,0,18.34-2.65,24.93-7.94l6.96,14.07c-4.27,3.06-9.17,5.34-14.69,6.82-5.52,1.49-12.09,2.23-19.71,2.23-4.83,0-9.49-.46-14-1.39Z"/>
      <path class="cls-15" d="m717.52,628.08c-1.35-12.77-2.44-25.33-3.27-37.68l21.45-1.81c.37,16.9,1.02,34.64,1.95,53.21h.84l2.23-8.78c.46-1.95,1.44-5.87,2.92-11.77,1.48-5.9,2.88-11.91,4.18-18.04h13.93c1.3,6.13,2.69,12.14,4.18,18.04,1.48,5.9,2.46,9.82,2.92,11.77l2.23,8.78h.84c.93-18.57,1.58-36.31,1.95-53.21l21.45,1.81c-.84,12.35-1.93,24.91-3.27,37.68-1.35,12.77-2.81,24.21-4.39,34.33h-24.79c-2.79-11.61-5.25-22.52-7.38-32.73h-1.39l-1.25,5.71-6.13,27.02h-24.79c-1.58-10.12-3.04-21.57-4.39-34.33Z"/>
    </g>
  </g>
</svg>