<?xml version="1.0" encoding="UTF-8"?>
<svg id="Layer_1" data-name="Layer 1" xmlns="http://www.w3.org/2000/svg" viewBox="0 0 1080 1080">
  <defs>
    <style>
      .cls-1 {
        stroke-width: 0px;
      }
    </style>
  </defs>
  <path class="cls-1" d="m448.38,621.95c-4.64-9.8-.09-19.51,11.21-25.47,28.35-14.98,52.41-33.05,72.1-54.32,18.06-1.37,32.75-15.68,34.27-33.13-4.02,13.96-16.43,24.6-30.85,25.04-17.92.55-32.59-14.63-32.41-33.54.18-18.73,14.16-33.6,32.17-34.22,15.66-.54,28.68,10.66,31.76,26.04,10.32-19.85,18.01-41.58,22.97-65.3.43-2.05-.4-4.67,2.68-6.45,3.37,10.09,2.82,20.43,2.97,30.49.52,39.27-8.7,76.04-32.24,109.01-16.28,22.79-37.52,40.34-61.2,55.35-8.56,5.42-17.2,10.78-26.57,14.78-12.1,5.13-21.99,2.02-26.86-8.27Z"/>
  <path class="cls-1" d="m645.83,631.66c-3.81-7.52-1.69-47.53-.65-63.88,2.22-11.2-3.46-24.23-14.55-31.48-12.72-8.31-27.99-6.07-34.87,5.1-21.53,34.98-76.23,103.53-180.39,117.64,0,0,122.8,7.53,192.84-44.87,1.58,8.29,5.12,15.72,12.22,19.15,19.41,9.4,40.32,7.56,43.1,7.25-2,0-13.3-.25-17.7-8.9Z"/>
</svg>