<?xml version="1.0" encoding="UTF-8"?>
<svg id="Layer_1" data-name="Layer 1" xmlns="http://www.w3.org/2000/svg" xmlns:xlink="http://www.w3.org/1999/xlink" viewBox="0 0 1080 1080">
  <defs>
    <style>
      .cls-1 {
        fill: url(#linear-gradient);
      }

      .cls-1, .cls-2, .cls-3, .cls-4, .cls-5, .cls-6 {
        stroke-width: 0px;
      }

      .cls-2 {
        fill: #000096;
      }

      .cls-3 {
        fill: #7a0009;
      }

      .cls-4 {
        fill: #fff;
      }

      .cls-5 {
        fill: url(#linear-gradient-2);
      }

      .cls-6 {
        fill: #ffe6e8;
      }
    </style>
    <linearGradient id="linear-gradient" x1="522.75" y1="454.75" x2="522.75" y2="617.53" gradientUnits="userSpaceOnUse">
      <stop offset="0" stop-color="#f50e1d"/>
      <stop offset=".31" stop-color="#f20d1c"/>
      <stop offset=".51" stop-color="#e90d1b"/>
      <stop offset=".68" stop-color="#da0d1a"/>
      <stop offset=".84" stop-color="#c50c18"/>
      <stop offset=".98" stop-color="#aa0b16"/>
      <stop offset="1" stop-color="#a60b16"/>
    </linearGradient>
    <linearGradient id="linear-gradient-2" x1="540" y1="547.56" x2="540" y2="645.92" gradientUnits="userSpaceOnUse">
      <stop offset="0" stop-color="#0e02e5"/>
      <stop offset=".31" stop-color="#0d01e2"/>
      <stop offset=".51" stop-color="#0b01d9"/>
      <stop offset=".68" stop-color="#0901ca"/>
      <stop offset=".84" stop-color="#0500b5"/>
      <stop offset=".98" stop-color="#00009a"/>
      <stop offset="1" stop-color="#000096"/>
    </linearGradient>
  </defs>
  <g>
    <path class="cls-3" d="m470.16,629.49c-7.93,0-14.28-4.19-17.88-11.8-4.99-10.54-.34-21.5,11.84-27.93,26.08-13.78,48.38-30.58,66.29-49.93l.86-.92,1.26-.1c2.61-.2,5.14-.72,7.55-1.51-1.32.21-2.66.34-4.01.38-.33,0-.65.01-.98.01-8.46,0-16.48-3.38-22.55-9.52-6.51-6.58-10.05-15.44-9.96-24.97.18-19.02,14.7-34.42,33.06-35.05.37-.01.75-.02,1.12-.02,12.79,0,23.91,7.52,29.19,19.02,7.77-16.38,13.69-34.18,17.63-53.02.05-.24.07-.61.09-1.01.1-1.75.27-5,3.94-7.12l3.41-1.97,1.25,3.73c2.83,8.47,2.87,16.95,2.9,25.16,0,1.41.01,2.81.03,4.21.53,40-9.49,73.84-30.63,103.43-13.99,19.58-32.38,36.23-57.89,52.4-8.6,5.45-16.44,10.26-25.2,14.01-3.95,1.67-7.74,2.52-11.3,2.52Z"/>
    <path class="cls-6" d="m454.44,614.84c-4.32-9.12-.08-18.17,10.44-23.72,26.41-13.95,48.82-30.78,67.14-50.59,16.82-1.28,30.5-14.61,31.92-30.85-3.75,13-15.3,22.91-28.73,23.32-16.69.51-30.35-13.62-30.18-31.24.17-17.45,13.18-31.3,29.96-31.87,14.58-.5,26.71,9.93,29.58,24.25,9.62-18.48,16.77-38.73,21.39-60.82.4-1.91-.38-4.35,2.5-6.01,3.14,9.39,2.63,19.03,2.76,28.39.48,36.58-8.1,70.82-30.03,101.52-15.16,21.23-34.94,37.57-57,51.55-7.97,5.05-16.02,10.04-24.74,13.77-11.27,4.78-20.48,1.88-25.01-7.7Z"/>
    <path class="cls-1" d="m455.18,616.32c-4.32-9.12-.08-18.17,10.44-23.72,26.41-13.95,48.82-30.78,67.14-50.59,16.82-1.28,30.5-14.61,31.92-30.85-3.75,13-15.3,22.91-28.73,23.32-16.69.51-30.35-13.62-30.18-31.24.17-17.45,13.18-31.3,29.96-31.87,14.58-.5,26.71,9.93,29.58,24.25,9.62-18.48,16.77-38.73,21.39-60.82.4-1.91-.38-4.35,2.5-6.01,3.14,9.39,2.63,19.03,2.76,28.39.48,36.58-8.1,70.82-30.03,101.52-15.16,21.23-34.94,37.57-57,51.55-7.97,5.05-16.02,10.04-24.74,13.77-11.27,4.78-20.48,1.88-25.01-7.7Z"/>
  </g>
  <g>
    <path class="cls-2" d="m439.71,654.16c-9.55,0-15.22-.34-15.46-.36l-.22-5.87c94.27-12.77,144.4-73.26,165.89-108.19,4.23-6.88,11.54-10.83,20.05-10.83,5.67,0,11.4,1.78,16.55,5.15,11.01,7.2,17.11,20.4,14.87,32.16-1.99,31.35-1.88,53.49.3,57.79,3.14,6.17,11.41,6.67,13.87,6.67l.33,5.88c-.72.08-3.36.35-7.29.35h0c-8.78,0-21.88-1.28-34.47-7.37-5.68-2.74-9.68-7.95-11.93-15.52-51.68,36.15-130.48,40.13-162.49,40.13Z"/>
    <path class="cls-4" d="m638.39,624c-3.55-7-1.58-44.26-.61-59.5,2.06-10.43-3.22-22.57-13.55-29.32-11.84-7.74-26.07-5.66-32.47,4.75-20.05,32.58-70.99,96.42-168.01,109.56,0,0,114.37,7.01,179.6-41.79,1.47,7.72,4.77,14.64,11.39,17.83,18.08,8.75,37.55,7.04,40.14,6.75-1.87,0-12.38-.23-16.49-8.29Z"/>
    <path class="cls-5" d="m639.08,625.36c-3.55-7-1.58-44.26-.61-59.5,2.06-10.43-3.22-22.57-13.55-29.32-11.84-7.74-26.07-5.66-32.47,4.75-20.05,32.58-70.99,96.42-168.01,109.56,0,0,114.37,7.01,179.6-41.79,1.47,7.72,4.77,14.64,11.39,17.83,18.08,8.75,37.55,7.04,40.14,6.75-1.87,0-12.38-.23-16.49-8.29Z"/>
  </g>
</svg>