<?xml version="1.0" encoding="UTF-8"?>
<svg id="Layer_1" data-name="Layer 1" xmlns="http://www.w3.org/2000/svg" xmlns:xlink="http://www.w3.org/1999/xlink" viewBox="0 0 1080 1080">
  <defs>
    <style>
      .cls-1 {
        fill: url(#linear-gradient);
      }

      .cls-1, .cls-2, .cls-3, .cls-4, .cls-5, .cls-6, .cls-7, .cls-8 {
        stroke-width: 0px;
      }

      .cls-3 {
        fill: #000096;
      }

      .cls-4 {
        fill: #7a0009;
      }

      .cls-5 {
        fill: #fff;
      }

      .cls-6 {
        fill: url(#linear-gradient-2);
      }

      .cls-7 {
        fill: url(#linear-gradient-3);
      }

      .cls-8 {
        fill: #ffe6e8;
      }
    </style>
    <linearGradient id="linear-gradient" x1="540.51" y1="561.55" x2="540.51" y2="602.97" gradientUnits="userSpaceOnUse">
      <stop offset="0" stop-color="#fff"/>
      <stop offset=".3" stop-color="#fcfcfc"/>
      <stop offset=".49" stop-color="#f3f3f4"/>
      <stop offset=".66" stop-color="#e4e5e6"/>
      <stop offset=".81" stop-color="#cfd0d2"/>
      <stop offset=".94" stop-color="#b4b6b8"/>
      <stop offset="1" stop-color="#a7a9ac"/>
    </linearGradient>
    <linearGradient id="linear-gradient-2" x1="540.55" y1="621.78" x2="540.55" y2="647.5" gradientUnits="userSpaceOnUse">
      <stop offset="0" stop-color="#0e02e5"/>
      <stop offset=".31" stop-color="#0d01e2"/>
      <stop offset=".51" stop-color="#0b01d9"/>
      <stop offset=".68" stop-color="#0901ca"/>
      <stop offset=".84" stop-color="#0500b5"/>
      <stop offset=".98" stop-color="#00009a"/>
      <stop offset="1" stop-color="#000096"/>
    </linearGradient>
    <linearGradient id="linear-gradient-3" x1="540.98" y1="447.22" x2="540.98" y2="535.73" gradientUnits="userSpaceOnUse">
      <stop offset="0" stop-color="#f50e1d"/>
      <stop offset=".31" stop-color="#f20d1c"/>
      <stop offset=".51" stop-color="#e90d1b"/>
      <stop offset=".68" stop-color="#da0d1a"/>
      <stop offset=".84" stop-color="#c50c18"/>
      <stop offset=".98" stop-color="#aa0b16"/>
      <stop offset="1" stop-color="#a60b16"/>
    </linearGradient>
  </defs>
  <g>
    <g>
      <polygon class="cls-2" points="312.17 606.83 313.14 601.98 313.14 589.02 311.73 594.44 311.73 598.49 298.83 598.49 298.83 594.45 297.79 590.5 297.79 601.98 298.76 606.83 282.93 606.83 283.9 601.98 283.9 558.13 282.93 553.28 297.95 553.28 305.28 576.03 312.34 554.13 312.17 553.28 312.61 553.28 312.95 552.24 314.37 553.28 328.01 553.28 327.04 558.13 327.04 601.98 328.01 606.83 312.17 606.83"/>
      <path class="cls-2" d="m349.23,601.96v-12.37h-4.94v12.37l.98,4.88h-15.94l.98-4.88v-42.38c0-3.4,2.77-6.17,6.17-6.17h20.52c3.43,0,6.23,2.79,6.23,6.23v42.27l.61,3.05v.17c0,1.66-1.17,1.67-3.51,1.68-1.11,0-12.07.04-12.07.04l.98-4.88Zm0-25.32v-9.25h-4.94v9.25h4.94Z"/>
      <path class="cls-2" d="m386.93,606.83l.09-4.35-6.66-14.84h-.05v14.34l.97,4.85h-15.84l.97-4.85v-43.29l-.97-4.85h27.74c1.63,0,3.16.63,4.31,1.78,1.15,1.15,1.78,2.68,1.78,4.3v21.11c0,2.69-1.75,4.98-4.17,5.79l6.96,14.79,1.04,5.21h-16.17Zm-1.55-32.17v-6.92h-5.07v6.92h5.07Z"/>
      <polygon class="cls-2" points="410.36 606.83 411.33 601.98 411.33 566.53 400.68 566.53 400.68 558.69 399.71 553.84 436.84 553.84 435.87 558.69 435.87 566.53 425.22 566.53 425.22 601.98 426.19 606.83 410.36 606.83"/>
      <polygon class="cls-2" points="435.24 606.83 436.21 601.98 436.15 558.25 435.18 553.4 451.02 553.4 450.05 558.25 450.12 601.98 451.09 606.83 435.24 606.83"/>
      <path class="cls-2" d="m472.22,601.96v-12.37h-4.94v12.37l.98,4.88h-15.94l.98-4.88v-42.38c0-3.4,2.77-6.17,6.17-6.17h20.52c3.43,0,6.23,2.79,6.23,6.23v42.27l.61,3.05v.17c0,1.66-1.17,1.67-3.51,1.68-1.11,0-12.07.04-12.07.04l.98-4.88Zm0-25.32v-9.25h-4.94v9.25h4.94Z"/>
      <polygon class="cls-2" points="488.5 606.87 489.47 602.02 489.47 558.29 488.5 553.44 504.34 553.44 503.37 558.29 503.37 592.97 518.88 592.97 518.88 602.02 519.85 606.87 488.5 606.87"/>
      <polygon class="cls-2" points="566.64 606.83 567.61 601.98 567.61 589.02 566.21 594.44 566.21 598.49 553.3 598.49 553.3 594.45 552.27 590.5 552.27 601.98 553.23 606.83 537.4 606.83 538.37 601.98 538.37 558.13 537.4 553.28 552.42 553.28 559.75 576.03 566.81 554.13 566.64 553.28 567.08 553.28 567.42 552.24 568.84 553.28 582.48 553.28 581.51 558.13 581.51 601.98 582.48 606.83 566.64 606.83"/>
      <path class="cls-2" d="m603.7,601.96v-12.37h-4.94v12.37l.97,4.88h-15.94l.98-4.88v-42.38c0-3.4,2.77-6.17,6.17-6.17h20.52c3.43,0,6.23,2.79,6.23,6.23v42.27l.61,3.05v.17c0,1.66-1.17,1.67-3.51,1.68-1.12,0-12.07.04-12.07.04l.98-4.88Zm0-25.32v-9.25h-4.94v9.25h4.94Z"/>
      <polygon class="cls-2" points="627.64 606.83 628.61 601.98 628.61 566.53 617.96 566.53 617.96 558.69 616.99 553.84 654.12 553.84 653.16 558.69 653.16 566.53 642.5 566.53 642.5 601.98 643.47 606.83 627.64 606.83"/>
      <path class="cls-2" d="m659.52,606.83c-3.41,0-6.19-2.78-6.19-6.19v-41.05c0-3.41,2.78-6.19,6.19-6.19h20.57c3.38,0,6.13,2.75,6.13,6.13v12.06l.97,4.85h-15.84l.97-4.85v-4.3h-5.1v25.64h5.1v-4.3l-.97-4.85h15.84l-.97,4.85v12.06c0,3.38-2.75,6.13-6.13,6.13h-20.57Z"/>
      <polygon class="cls-2" points="710.16 606.83 711.13 601.98 711.13 584.99 703.09 584.99 703.09 601.98 704.06 606.83 688.23 606.83 689.2 601.98 689.2 558.25 688.23 553.4 704.06 553.4 703.09 558.25 703.09 572.56 711.13 572.56 711.13 558.25 710.16 553.4 725.99 553.4 725.02 558.25 725.02 601.98 725.99 606.83 710.16 606.83"/>
      <path class="cls-2" d="m734.43,606.83c-3.41,0-6.19-2.78-6.19-6.19v-41.9l-.6-3.02v-.17c0-1.66,1.17-1.67,3.49-1.68,1.11,0,11.98-.04,11.98-.04l-.97,4.85v34.24h6.91v-34.24l-.97-4.85h15.84l-.97,4.85v42c0,3.38-2.75,6.13-6.13,6.13h-22.38Z"/>
      <path class="cls-2" d="m765.1,606.83l.97-4.85v-43.29l-.97-4.85h26.53c3.36,0,6.09,2.73,6.09,6.09v21.88c0,3.36-2.73,6.09-6.09,6.09h-11.66v14.08l.97,4.85h-15.84Zm18.72-32.83v-6.26h-3.86v6.26h3.86Z"/>
    </g>
    <g>
      <path class="cls-5" d="m324.99,601.38l.6,3.02h-11.78l.6-3.02v-26.18l-4.73,18.26v2.59h-9.58v-2.59l-4.36-16.68v24.59l.6,3.02h-11.78l.6-3.02v-44.19l-.6-3.02h11.78l8.54,26.52,8.55-26.52.44.32-.06-.32h11.78l-.6,3.02v44.19Z"/>
      <path class="cls-5" d="m350.51,601.35v-14.2h-8.27v14.2l.61,3.05h-11.88l.61-3.05v-42.54c0-2.49,2.02-4.51,4.51-4.51h20.52c2.52,0,4.56,2.04,4.56,4.56v42.44l.61,3.05s-11.88.05-11.88.05l.61-3.05Zm-8.27-23.82h8.27v-11.43c0-.63-.51-1.14-1.14-1.14h-5.99c-.63,0-1.14.51-1.14,1.14v11.43Z"/>
      <path class="cls-5" d="m388.31,601.38l-7.25-16.17h-2.79v16.17l.6,3.02h-11.78l.6-3.02v-43.62l-.6-3.02h25.71c2.44,0,4.43,1.98,4.42,4.42v21.11c0,2.47-2.01,4.46-4.47,4.45h-.51s7.84,16.66,7.84,16.66l.6,3.02h-12.45l.06-3.02Zm-1.65-26.82v-8.25c0-.55-.45-1-1-1h-7.4v10.25h7.4c.55,0,1-.45,1-1Z"/>
      <path class="cls-5" d="m434.43,554.74l-.6,3.02v6.34h-10.65v37.28l.6,3.02h-11.78l.6-3.02v-37.28h-10.65v-6.34l-.6-3.02h33.08Z"/>
      <path class="cls-5" d="m448.07,601.38l.6,3.02h-11.79l.6-3.02-.06-44.06-.6-3.02h11.78l-.6,3.02.07,44.06Z"/>
      <path class="cls-5" d="m473.5,601.35v-14.2h-8.27v14.2l.61,3.05h-11.88l.61-3.05v-42.54c0-2.49,2.02-4.51,4.51-4.51h20.52c2.52,0,4.56,2.04,4.56,4.56v42.44l.61,3.05s-11.88.05-11.88.05l.61-3.05Zm-8.27-23.82h8.27v-11.43c0-.63-.51-1.14-1.14-1.14h-5.99c-.63,0-1.14.51-1.14,1.14v11.43Z"/>
      <path class="cls-5" d="m517.43,604.43h-27.28l.6-3.02v-44.06l-.6-3.02h11.78l-.6,3.02v36.51h15.51v7.55l.6,3.02Z"/>
      <path class="cls-5" d="m579.46,601.38l.6,3.02h-11.78l.6-3.02v-26.18l-4.73,18.26v2.59h-9.58v-2.59l-4.36-16.68v24.59l.6,3.02h-11.78l.6-3.02v-44.19l-.6-3.02h11.78l8.54,26.52,8.55-26.52.44.32-.06-.32h11.78l-.6,3.02v44.19Z"/>
      <path class="cls-5" d="m604.98,601.35v-14.2h-8.27v14.2l.61,3.05h-11.88l.61-3.05v-42.54c0-2.49,2.02-4.51,4.51-4.51h20.52c2.52,0,4.56,2.04,4.57,4.56v42.44l.61,3.05s-11.88.05-11.88.05l.61-3.05Zm-8.27-23.82h8.27v-11.43c0-.63-.51-1.14-1.14-1.14h-5.99c-.63,0-1.14.51-1.14,1.14v11.43Z"/>
      <path class="cls-5" d="m651.71,554.74l-.6,3.02v6.34h-10.65v37.28l.6,3.02h-11.78l.6-3.02v-37.28h-10.65v-6.34l-.6-3.02h33.08Z"/>
      <path class="cls-5" d="m673,584.68h11.78l-.6,3.02v12.23c0,2.47-2,4.47-4.47,4.47h-20.57c-2.5,0-4.52-2.03-4.52-4.52v-41.05c0-2.5,2.03-4.52,4.52-4.52h20.57c2.47,0,4.47,2,4.47,4.47v12.23l.6,3.02h-11.78l.6-3.02v-5c0-.63-.51-1.13-1.13-1.13h-6.16c-.62,0-1.13.51-1.13,1.13v26.7c0,.62.51,1.13,1.13,1.13h6.16c.63,0,1.13-.51,1.13-1.13v-5l-.6-3.02Z"/>
      <path class="cls-5" d="m722.98,601.38l.6,3.02h-11.78l.6-3.02v-18.82h-11.36v18.82l.6,3.02h-11.78l.6-3.02v-44.06l-.6-3.02h11.78l-.6,3.02v16.13h11.36v-16.13l-.6-3.02h11.78l-.6,3.02v44.06Z"/>
      <path class="cls-5" d="m761.5,554.74l-.6,3.02v42.17c0,2.47-2,4.47-4.47,4.47h-22.38c-2.5,0-4.52-2.03-4.52-4.52v-42.06l-.6-3.02s11.78-.05,11.78-.05l-.6,3.02v34.94c0,.63.51,1.13,1.13,1.13h7.97c.62,0,1.13-.51,1.13-1.13v-34.94l-.6-3.02h11.78Z"/>
      <path class="cls-5" d="m791.25,554.74c2.44,0,4.42,1.98,4.42,4.42v21.88c0,2.44-1.98,4.43-4.43,4.43h-13.33v15.91l.6,3.02h-11.78l.6-3.02v-43.62l-.6-3.02h24.5Zm-6.14,19.16v-7.6c0-.55-.45-1-1-1h-6.19v9.59h6.19c.55,0,1-.45,1-1Z"/>
    </g>
    <g>
      <path class="cls-1" d="m325.37,602.15l.6,3.02h-11.78l.6-3.02v-26.18l-4.73,18.26v2.59h-9.58v-2.59l-4.36-16.68v24.59l.6,3.02h-11.78l.6-3.02v-44.19l-.6-3.02h11.78l8.54,26.52,8.55-26.52.44.32-.06-.32h11.78l-.6,3.02v44.19Z"/>
      <path class="cls-1" d="m350.9,602.12v-14.2h-8.27v14.2l.61,3.05h-11.88l.61-3.05v-42.54c0-2.49,2.02-4.51,4.51-4.51h20.52c2.52,0,4.56,2.04,4.56,4.56v42.44l.61,3.05s-11.88.05-11.88.05l.61-3.05Zm-8.27-23.82h8.27v-11.43c0-.63-.51-1.14-1.14-1.14h-5.99c-.63,0-1.14.51-1.14,1.14v11.43Z"/>
      <path class="cls-1" d="m388.69,602.15l-7.25-16.17h-2.79v16.17l.6,3.02h-11.78l.6-3.02v-43.62l-.6-3.02h25.71c2.44,0,4.43,1.98,4.42,4.42v21.11c0,2.47-2.01,4.46-4.47,4.45h-.51s7.84,16.66,7.84,16.66l.6,3.02h-12.45l.06-3.02Zm-1.65-26.82v-8.25c0-.55-.45-1-1-1h-7.4v10.25h7.4c.55,0,1-.45,1-1Z"/>
      <path class="cls-1" d="m434.81,555.51l-.6,3.02v6.34h-10.65v37.28l.6,3.02h-11.78l.6-3.02v-37.28h-10.65v-6.34l-.6-3.02h33.08Z"/>
      <path class="cls-1" d="m448.46,602.15l.6,3.02h-11.79l.6-3.02-.06-44.06-.6-3.02h11.78l-.6,3.02.07,44.06Z"/>
      <path class="cls-1" d="m473.88,602.12v-14.2h-8.27v14.2l.61,3.05h-11.88l.61-3.05v-42.54c0-2.49,2.02-4.51,4.51-4.51h20.52c2.52,0,4.56,2.04,4.56,4.56v42.44l.61,3.05s-11.88.05-11.88.05l.61-3.05Zm-8.27-23.82h8.27v-11.43c0-.63-.51-1.14-1.14-1.14h-5.99c-.63,0-1.14.51-1.14,1.14v11.43Z"/>
      <path class="cls-1" d="m517.82,605.2h-27.28l.6-3.02v-44.06l-.6-3.02h11.78l-.6,3.02v36.51h15.51v7.55l.6,3.02Z"/>
      <path class="cls-1" d="m579.84,602.15l.6,3.02h-11.78l.6-3.02v-26.18l-4.73,18.26v2.59h-9.58v-2.59l-4.36-16.68v24.59l.6,3.02h-11.78l.6-3.02v-44.19l-.6-3.02h11.78l8.54,26.52,8.55-26.52.44.32-.06-.32h11.78l-.6,3.02v44.19Z"/>
      <path class="cls-1" d="m605.37,602.12v-14.2h-8.27v14.2l.61,3.05h-11.88l.61-3.05v-42.54c0-2.49,2.02-4.51,4.51-4.51h20.52c2.52,0,4.56,2.04,4.57,4.56v42.44l.61,3.05s-11.88.05-11.88.05l.61-3.05Zm-8.27-23.82h8.27v-11.43c0-.63-.51-1.14-1.14-1.14h-5.99c-.63,0-1.14.51-1.14,1.14v11.43Z"/>
      <path class="cls-1" d="m652.1,555.51l-.6,3.02v6.34h-10.65v37.28l.6,3.02h-11.78l.6-3.02v-37.28h-10.65v-6.34l-.6-3.02h33.08Z"/>
      <path class="cls-1" d="m673.38,585.45h11.78l-.6,3.02v12.23c0,2.47-2,4.47-4.47,4.47h-20.57c-2.5,0-4.52-2.03-4.52-4.52v-41.05c0-2.5,2.03-4.52,4.52-4.52h20.57c2.47,0,4.47,2,4.47,4.47v12.23l.6,3.02h-11.78l.6-3.02v-5c0-.63-.51-1.13-1.13-1.13h-6.16c-.62,0-1.13.51-1.13,1.13v26.7c0,.62.51,1.13,1.13,1.13h6.16c.63,0,1.13-.51,1.13-1.13v-5l-.6-3.02Z"/>
      <path class="cls-1" d="m723.36,602.15l.6,3.02h-11.78l.6-3.02v-18.82h-11.36v18.82l.6,3.02h-11.78l.6-3.02v-44.06l-.6-3.02h11.78l-.6,3.02v16.13h11.36v-16.13l-.6-3.02h11.78l-.6,3.02v44.06Z"/>
      <path class="cls-1" d="m761.89,555.51l-.6,3.02v42.17c0,2.47-2,4.47-4.47,4.47h-22.38c-2.5,0-4.52-2.03-4.52-4.52v-42.06l-.6-3.02s11.78-.05,11.78-.05l-.6,3.02v34.94c0,.63.51,1.13,1.13,1.13h7.97c.62,0,1.13-.51,1.13-1.13v-34.94l-.6-3.02h11.78Z"/>
      <path class="cls-1" d="m791.64,555.51c2.44,0,4.42,1.98,4.42,4.42v21.88c0,2.44-1.98,4.43-4.43,4.43h-13.33v15.91l.6,3.02h-11.78l.6-3.02v-43.62l-.6-3.02h24.5Zm-6.14,19.16v-7.6c0-.55-.45-1-1-1h-6.19v9.59h6.19c.55,0,1-.45,1-1Z"/>
    </g>
  </g>
  <g>
    <g>
      <polygon class="cls-3" points="400.11 650.06 400.74 646.88 400.74 619.68 400.11 616.51 420.31 616.51 419.68 619.68 419.68 625.44 409.67 625.44 409.67 628.06 418.79 628.06 418.79 636.84 409.67 636.84 409.67 646.88 410.31 650.06 400.11 650.06"/>
      <polygon class="cls-3" points="424.1 650.06 424.73 646.88 424.7 619.68 424.06 616.51 434.26 616.51 433.63 619.68 433.67 646.88 434.3 650.06 424.1 650.06"/>
      <path class="cls-3" d="m443.73,650.06c-2.2,0-3.99-1.79-3.99-3.99v-25.56c0-2.2,1.79-3.99,3.99-3.99h14.69c1.06,0,2.05.41,2.8,1.16.75.75,1.16,1.74,1.16,2.8v6.75l.63,3.17h-3.26c1.68.32,2.95,1.8,2.95,3.57v12.93l.63,3.17h-19.6Zm10.04-8.93v-2.82h-2.99v-4.82l-.64-3.17h2.68l.62-3.11v-1.77h-4.78v15.69h5.1Z"/>
      <polygon class="cls-3" points="481.8 650.06 482.44 646.88 482.44 636.46 477.71 636.46 477.71 646.88 478.35 650.06 468.15 650.06 468.78 646.88 468.78 619.68 468.15 616.51 478.35 616.51 477.71 619.68 477.71 628.44 482.44 628.44 482.44 619.68 481.8 616.51 492 616.51 491.37 619.68 491.37 646.88 492 650.06 481.8 650.06"/>
      <polygon class="cls-3" points="501.76 650.06 502.39 646.88 502.39 624.96 495.76 624.96 495.76 619.95 495.12 616.78 518.59 616.78 517.95 619.95 517.95 624.96 511.32 624.96 511.32 646.88 511.95 650.06 501.76 650.06"/>
      <polygon class="cls-3" points="537.97 650.06 538.6 646.88 538.6 619.68 537.97 616.51 558.17 616.51 557.54 619.68 557.54 625.44 547.53 625.44 547.53 628.06 556.65 628.06 556.65 636.84 547.53 636.84 547.53 646.88 548.17 650.06 537.97 650.06"/>
      <polygon class="cls-3" points="561.96 650.06 562.59 646.88 562.55 619.68 561.92 616.51 572.12 616.51 571.49 619.68 571.53 646.88 572.16 650.06 561.96 650.06"/>
      <polygon class="cls-3" points="591.06 650.06 586.64 637.81 586.64 646.88 587.27 650.06 577.08 650.06 577.71 646.88 577.71 619.68 577.08 616.51 586.66 616.51 591.08 628.58 591.08 619.68 590.45 616.51 600.65 616.51 600.01 619.68 600.01 646.88 600.65 650.06 591.06 650.06"/>
      <path class="cls-3" d="m605.61,650.06l.63-3.17v-27.2l-.63-3.17h17.46c2.2,0,3.99,1.79,3.99,3.99v25.56c0,2.2-1.79,3.99-3.99,3.99h-17.46Zm12.52-8.93v-15.69h-2.96v15.69h2.96Z"/>
      <polygon class="cls-3" points="632.58 650.06 633.22 646.88 633.22 619.68 632.58 616.51 652.79 616.51 652.16 619.68 652.16 625.44 642.15 625.44 642.15 628.06 650.9 628.06 650.9 636.83 642.15 636.83 642.15 641.12 652.16 641.12 652.16 646.88 652.79 650.06 632.58 650.06"/>
      <path class="cls-3" d="m670.61,650.06l.06-2.82-3.9-8.69v8.34l.63,3.17h-10.2l.63-3.17v-26.93l-.63-3.17h17.44c2.17,0,3.93,1.76,3.93,3.93v13.14c0,1.68-1.06,3.12-2.55,3.69l4.28,9.08.68,3.43h-10.38Zm-.96-20.31v-4.03h-2.88v4.03h2.88Z"/>
    </g>
    <g>
      <path class="cls-5" d="m418.61,617.14l-.38,1.88v4.7h-10.01v4.97h9.12v6.43h-9.12v11.33l.38,1.88h-7.33l.38-1.88v-27.44l-.38-1.88h17.34Z"/>
      <path class="cls-5" d="m432.22,646.46l.38,1.88h-7.34l.38-1.88-.04-27.44-.38-1.88h7.33l-.38,1.88.04,27.44Z"/>
      <path class="cls-5" d="m458.8,630.95c1.36,0,2.46,1.1,2.46,2.46v13.04l.38,1.88h-18.17c-1.56,0-2.82-1.26-2.82-2.82v-25.56c0-1.56,1.26-2.82,2.82-2.82h14.69c1.54,0,2.78,1.25,2.78,2.78v6.86l.38,1.88h-7.33l.38-1.88v-2.33c0-.41-.33-.74-.73-.74h-5.66c-.41,0-.73.33-.73.74v16.57c0,.41.33.74.73.74h5.98c.41,0,.73-.33.73-.74v-4.43h-2.99v-3.76l-.38-1.88h7.48Z"/>
      <path class="cls-5" d="m489.92,646.46l.38,1.88h-7.33l.38-1.88v-11.72h-7.08v11.72l.38,1.88h-7.33l.38-1.88v-27.44l-.38-1.88h7.33l-.38,1.88v10.05h7.08v-10.05l-.38-1.88h7.33l-.38,1.88v27.44Z"/>
      <path class="cls-5" d="m516.88,617.41l-.38,1.88v3.95h-6.63v23.21l.38,1.88h-7.33l.38-1.88v-23.21h-6.63v-3.95l-.38-1.88h20.6Z"/>
      <path class="cls-5" d="m556.47,617.14l-.38,1.88v4.7h-10.01v4.97h9.12v6.43h-9.12v11.33l.38,1.88h-7.33l.38-1.88v-27.44l-.38-1.88h17.34Z"/>
      <path class="cls-5" d="m570.08,646.46l.38,1.88h-7.34l.38-1.88-.04-27.44-.38-1.88h7.33l-.38,1.88.04,27.44Z"/>
      <path class="cls-5" d="m598.57,646.46l.38,1.88h-7.33l-6.42-17.79v15.91l.38,1.88h-7.33l.38-1.88v-27.44l-.38-1.88h7.33l6.42,17.52v-15.64l-.38-1.88h7.33l-.38,1.88v27.44Z"/>
      <path class="cls-5" d="m625.62,619.96v25.56c0,1.56-1.26,2.82-2.82,2.82h-16.03l.38-1.88v-27.44l-.38-1.88h16.03c1.56,0,2.82,1.26,2.82,2.82Zm-6.58,21.09v-16.63c0-.39-.32-.71-.7-.71h-4.6v18.04h4.6c.39,0,.7-.32.7-.71Z"/>
      <path class="cls-5" d="m650.71,646.46l.38,1.88h-17.34l.38-1.88v-27.44l-.38-1.88h17.34l-.38,1.88v4.7h-10.01v4.97h8.75v6.42h-8.75v6.64h10.01v4.7Z"/>
      <path class="cls-5" d="m671.58,646.46l-4.52-10.07h-1.74v10.07l.38,1.88h-7.33l.38-1.88v-27.16l-.38-1.88h16.01c1.52,0,2.76,1.23,2.76,2.76v13.14c0,1.54-1.25,2.78-2.79,2.77h-.32s4.88,10.37,4.88,10.37l.38,1.88h-7.75l.04-1.88Zm-1.03-16.7v-5.14c0-.34-.28-.62-.62-.62h-4.61v6.38h4.61c.34,0,.62-.28.62-.62Z"/>
    </g>
    <g>
      <path class="cls-6" d="m418.88,617.68l-.38,1.88v4.7h-10.01v4.97h9.12v6.43h-9.12v11.33l.38,1.88h-7.33l.38-1.88v-27.44l-.38-1.88h17.34Z"/>
      <path class="cls-6" d="m432.49,647l.38,1.88h-7.34l.38-1.88-.04-27.44-.38-1.88h7.33l-.38,1.88.04,27.44Z"/>
      <path class="cls-6" d="m459.07,631.49c1.36,0,2.46,1.1,2.46,2.46v13.04l.38,1.88h-18.17c-1.56,0-2.82-1.26-2.82-2.82v-25.56c0-1.56,1.26-2.82,2.82-2.82h14.69c1.54,0,2.78,1.25,2.78,2.78v6.86l.38,1.88h-7.33l.38-1.88v-2.33c0-.41-.33-.74-.73-.74h-5.66c-.41,0-.73.33-.73.74v16.57c0,.41.33.74.73.74h5.98c.41,0,.73-.33.73-.74v-4.43h-2.99v-3.76l-.38-1.88h7.48Z"/>
      <path class="cls-6" d="m490.19,647l.38,1.88h-7.33l.38-1.88v-11.72h-7.08v11.72l.38,1.88h-7.33l.38-1.88v-27.44l-.38-1.88h7.33l-.38,1.88v10.05h7.08v-10.05l-.38-1.88h7.33l-.38,1.88v27.44Z"/>
      <path class="cls-6" d="m517.15,617.96l-.38,1.88v3.95h-6.63v23.21l.38,1.88h-7.33l.38-1.88v-23.21h-6.63v-3.95l-.38-1.88h20.6Z"/>
      <path class="cls-6" d="m556.74,617.68l-.38,1.88v4.7h-10.01v4.97h9.12v6.43h-9.12v11.33l.38,1.88h-7.33l.38-1.88v-27.44l-.38-1.88h17.34Z"/>
      <path class="cls-6" d="m570.36,647l.38,1.88h-7.34l.38-1.88-.04-27.44-.38-1.88h7.33l-.38,1.88.04,27.44Z"/>
      <path class="cls-6" d="m598.84,647l.38,1.88h-7.33l-6.42-17.79v15.91l.38,1.88h-7.33l.38-1.88v-27.44l-.38-1.88h7.33l6.42,17.52v-15.64l-.38-1.88h7.33l-.38,1.88v27.44Z"/>
      <path class="cls-6" d="m625.89,620.5v25.56c0,1.56-1.26,2.82-2.82,2.82h-16.03l.38-1.88v-27.44l-.38-1.88h16.03c1.56,0,2.82,1.26,2.82,2.82Zm-6.58,21.09v-16.63c0-.39-.32-.71-.7-.71h-4.6v18.04h4.6c.39,0,.7-.32.7-.71Z"/>
      <path class="cls-6" d="m650.98,647l.38,1.88h-17.34l.38-1.88v-27.44l-.38-1.88h17.34l-.38,1.88v4.7h-10.01v4.97h8.75v6.42h-8.75v6.64h10.01v4.7Z"/>
      <path class="cls-6" d="m671.85,647l-4.52-10.07h-1.74v10.07l.38,1.88h-7.33l.38-1.88v-27.16l-.38-1.88h16.01c1.52,0,2.76,1.23,2.76,2.76v13.14c0,1.54-1.25,2.78-2.79,2.77h-.32s4.88,10.37,4.88,10.37l.38,1.88h-7.75l.04-1.88Zm-1.03-16.7v-5.14c0-.34-.28-.62-.62-.62h-4.61v6.38h4.61c.34,0,.62-.28.62-.62Z"/>
    </g>
  </g>
  <g>
    <g>
      <path class="cls-4" d="m348.63,543.01c-3.1,0-6.57-1.01-10.31-3.01-3.68-1.96-6.85-4.6-9.42-7.83-2.72-3.41-4.1-7.03-4.1-10.76v-57.26h25.79v50.02c0,1.91.06,3.27.14,4.23,1.71.23,3.71.35,5.98.35h6.56v20.99l-1.47.67c-3.75,1.72-8.18,2.6-13.17,2.6Zm-40.67,0c-3.1,0-6.57-1.01-10.31-3.01-3.68-1.96-6.85-4.6-9.42-7.83-2.72-3.41-4.1-7.04-4.1-10.76v-57.26h25.79v50.02c0,1.91.06,3.27.14,4.23,1.71.23,3.71.35,5.97.35h6.56v20.99l-1.47.67c-3.75,1.72-8.18,2.6-13.17,2.6Z"/>
      <path class="cls-4" d="m420.22,543.01c-5.65,0-10.62-1.02-14.75-3.04-2.98-1.45-5.84-3.47-8.54-6.02l-.54,7.66h-23.25v-76.91h25.79v50.53c1.88,1.28,3.65,2.16,5.29,2.64,1.99.58,4.7.88,8.07.88,2.16,0,4.16-.19,5.98-.56v-53.48h25.79v57.12c0,6.88-2.2,12.22-6.54,15.86-4.21,3.53-10.02,5.33-17.29,5.33Z"/>
      <path class="cls-4" d="m485.96,543.01c-10.1,0-18.04-3.24-23.63-9.64-5.5-6.29-8.28-16.46-8.28-30.21,0-26.81,8.63-40.41,25.64-40.41,3.94,0,7.46.83,10.47,2.46,1.98,1.08,3.69,2.43,5.12,4.04,1.72-1.82,3.6-3.26,5.62-4.29,2.94-1.5,6.71-2.22,11.52-2.22,3.91,0,7.5.62,10.66,1.84,3.1,1.2,5.71,2.64,7.77,4.28l.95.76v71.98h-25.65v-3.03l-1.87.85c-2.2,1-4.96,1.86-8.18,2.54-3.23.68-6.64,1.03-10.13,1.03Zm20.18-4.61v-51.51c-.51-.09-1.15-.15-1.94-.15-.89,0-2.06.12-2.59.71-.45.5-1.1,1.52-1.66,3.57l-.51,1.86h-10.95l-.51-1.86c-.44-1.6-1.02-2.82-1.69-3.52-.18-.18-.72-.75-2.42-.75-.63,0-1.93,0-2.83,2.78-.89,2.75-1.34,7.34-1.34,13.64s.64,10.5,1.91,13.11c.63,1.3,1.94,3.04,6.02,3.04,3.87,0,7.38-.56,10.43-1.66l2.62-.95,5.47,21.7Z"/>
      <path class="cls-4" d="m575.8,543.01c-27.52,0-33.3-14.85-33.3-27.31v-5.71c0-3.59.7-6.62,2.08-9,1.26-2.17,3.01-4.39,5.2-6.57,1.55-1.66,2.33-2.66,2.7-3.19.31-.46.46-1.02.46-1.71,0-1.49-.31-1.91-.31-1.92h0s-.38-.3-1.76-.3h-8.79v-22.59h16.59c6.38,0,11.36,1.61,14.8,4.77,2.93,2.71,4.65,6.43,5.13,11.1h1.8c2.08,0,2.75-.46,2.91-.61.19-.17.85-.93,1.46-3.57.8-3.47,1.34-7.27,1.61-11.3l.17-2.61,26.69,2.75-.25,2.5c-.48,4.83-1.42,9.2-2.78,13-1.04,2.91-2.42,5.29-4.09,7.07-.85.91-1.88,1.73-3.12,2.49,2.07,1.25,3.68,2.77,4.8,4.54,1.81,2.85,2.69,6.67,2.69,11.66v10.17c0,4.87-1.42,9.38-4.21,13.41-2.77,4-6.85,7.2-12.13,9.51-5.18,2.27-11.35,3.42-18.35,3.42Zm2.08-51.44c-.26,1.02-.58,1.96-.96,2.8-1.16,2.57-2.86,5.18-5.04,7.77-1.26,1.51-2.21,2.88-2.82,4.06-.51.98-.76,2.25-.76,3.79v2.51c0,2.25.58,3.77,1.78,4.67,1.38,1.04,3.85,1.59,7.12,1.59,2.66,0,5.18-.27,7.51-.81v-13.11c0-1.13,0-3.25-4.66-3.91l-2.16-.31v-9.04Z"/>
      <path class="cls-4" d="m572.16,459.3v-24.81l1.89-.48c3.71-.95,8.19-1.77,13.33-2.43,5.16-.66,10.21-1,15.02-1s9.23.29,13.05.86c3.81.57,7.78,1.49,11.79,2.73l2.34.72-5.56,20.04-2.57-.95c-5.73-2.11-11.99-3.19-18.63-3.19-2.37,0-4.46.09-6.26.26v8.24h-24.4Z"/>
      <path class="cls-4" d="m665.63,543.01c-28.79,0-34.83-14.4-34.83-26.48v-12.12c0-1.6.92-3.2,2.89-5.04,1.55-1.44,3.31-2.71,5.24-3.78,1.08-.6,2.07-1.04,2.99-1.33h-6.22l-.5-1.88c-.5-1.9-.91-4.49-1.25-7.91-.33-3.3-.5-6.06-.5-8.19v-5.36l1.44-.68c10.51-4.97,21.65-7.49,33.11-7.49,12.82,0,22.11,3.53,27.61,10.5,5.35,6.79,8.06,17.27,8.06,31.16,0,12.58-3.06,22.25-9.1,28.74-6.09,6.54-15.82,9.86-28.93,9.86Zm-9.46-27.03c0,1.07.36,1.65,1.35,2.11,1.04.49,3.24,1.08,7.83,1.08,5.03,0,7.49-.72,8.67-1.33,1.48-.75,2.45-1.95,2.99-3.67.66-2.11,1-5.4,1-9.76,0-6.65-.84-11.41-2.49-14.16-1.43-2.37-4.07-3.52-8.08-3.52-2.57,0-4.79.11-6.59.33-1.24.15-2.57.4-3.98.75v6h15.46v21.2h-16.16v.96Z"/>
      <path class="cls-4" d="m684.44,460.69c-4.98,0-9.86-.49-14.51-1.44-4.65-.96-8.82-2.23-12.4-3.78l-1.52-.66v-22h24.96v7.34c1.7.21,3.7.32,5.98.32,9.39,0,17.25-2.48,23.36-7.38l2.44-1.96,9.3,18.79-1.74,1.25c-4.5,3.23-9.72,5.66-15.51,7.21-5.71,1.54-12.56,2.32-20.36,2.32Z"/>
      <path class="cls-4" d="m760.87,541.62l-.46-1.93c-2.06-8.58-3.96-16.85-5.66-24.67l-6.03,26.6h-28.96l-.33-2.13c-1.58-10.1-3.06-21.69-4.4-34.46-1.34-12.74-2.45-25.44-3.28-37.77l-.17-2.47,26.59-2.25.06,2.68c.27,12.4.7,25.42,1.28,38.86.46-1.86,1.03-4.12,1.7-6.76,1.47-5.85,2.87-11.89,4.16-17.95l.42-2h18.01l.42,2c1.29,6.08,2.69,12.12,4.16,17.94.67,2.65,1.23,4.9,1.7,6.76.58-13.44,1.01-26.46,1.28-38.87l.06-2.68,26.59,2.25-.17,2.47c-.83,12.28-1.94,24.99-3.28,37.77-1.35,12.77-2.83,24.36-4.4,34.46l-.33,2.13h-28.94Z"/>
    </g>
    <g>
      <path class="cls-8" d="m298.25,536.61c-3.39-1.81-6.27-4.2-8.64-7.17-2.37-2.97-3.55-6.04-3.55-9.19v-54.74h20.75v47.5c0,2.97.14,5.11.42,6.41,2.23.47,4.97.7,8.22.7h4.04v16.85c-3.44,1.58-7.48,2.37-12.12,2.37-2.69,0-5.74-.91-9.12-2.72Zm40.67,0c-3.39-1.81-6.27-4.2-8.64-7.17-2.37-2.97-3.55-6.04-3.55-9.19v-54.74h20.75v47.5c0,2.97.14,5.11.42,6.41,2.23.47,4.97.7,8.22.7h4.04v16.85c-3.44,1.58-7.48,2.37-12.12,2.37-2.69,0-5.73-.91-9.12-2.72Z"/>
      <path class="cls-8" d="m405.99,536.54c-3.81-1.86-7.38-4.69-10.72-8.5h-1.11l-.7,9.89h-18.39v-71.87h20.75v49.31c2.51,1.86,4.88,3.11,7.1,3.76,2.23.65,5.15.98,8.78.98,3.16,0,5.99-.37,8.5-1.11v-52.93h20.75v54.6c0,6.13-1.88,10.77-5.64,13.93-3.76,3.16-8.98,4.74-15.67,4.74-5.29,0-9.84-.93-13.65-2.79Z"/>
      <path class="cls-8" d="m463.65,530.55c-5.11-5.85-7.66-15.37-7.66-28.55,0-25.26,7.71-37.89,23.12-37.89,3.53,0,6.62.72,9.26,2.16,2.65,1.44,4.71,3.41,6.2,5.92,2.04-2.79,4.34-4.83,6.89-6.13,2.55-1.3,6.01-1.95,10.38-1.95,3.62,0,6.87.56,9.75,1.67,2.88,1.11,5.25,2.42,7.1,3.9v68.25h-20.61v-54.04c-1.11-.56-2.6-.83-4.46-.83-2.04,0-3.53.51-4.46,1.53-.93,1.02-1.67,2.56-2.23,4.6h-7.1c-.56-2.04-1.32-3.57-2.3-4.6-.97-1.02-2.39-1.53-4.25-1.53-2.51,0-4.25,1.51-5.22,4.53-.97,3.02-1.46,7.82-1.46,14.42s.72,11.24,2.16,14.21c1.44,2.97,4.2,4.46,8.29,4.46s7.94-.6,11.28-1.81l4.32,17.13c-2.04.93-4.6,1.72-7.66,2.37s-6.27.98-9.61.98c-9.38,0-16.62-2.93-21.73-8.78Z"/>
      <path class="cls-8" d="m544.44,514.53v-5.71c0-3.16.58-5.73,1.74-7.73,1.16-2,2.76-4.02,4.81-6.06,1.39-1.48,2.39-2.67,3-3.55.6-.88.91-1.93.91-3.13,0-1.76-.35-2.99-1.04-3.69s-1.88-1.04-3.55-1.04h-6.27v-17.55h14.07c5.76,0,10.12,1.37,13.09,4.11,2.97,2.74,4.46,6.76,4.46,12.05,0,4.27-.54,7.59-1.6,9.96-1.07,2.37-2.62,4.76-4.67,7.17-1.39,1.67-2.44,3.18-3.13,4.53-.7,1.35-1.04,2.99-1.04,4.94v2.51c0,3.06.93,5.29,2.79,6.69,1.86,1.39,4.74,2.09,8.64,2.09,3.62,0,6.96-.46,10.03-1.39v-15.04c0-3.62-2.28-5.76-6.83-6.41v-15.32c2.13,0,3.67-.42,4.6-1.25.93-.84,1.67-2.46,2.23-4.88.84-3.62,1.39-7.52,1.67-11.7l21.59,2.23c-.47,4.64-1.35,8.78-2.65,12.4-.93,2.6-2.11,4.67-3.55,6.2-1.44,1.53-3.65,2.86-6.62,3.97v.56c3.81,1.3,6.48,3.16,8.01,5.57,1.53,2.42,2.3,5.85,2.3,10.31v10.17c0,4.37-1.25,8.36-3.76,11.98-2.51,3.62-6.2,6.5-11.07,8.64s-10.66,3.2-17.34,3.2c-20.52,0-30.78-8.26-30.78-24.79Z"/>
      <path class="cls-8" d="m574.1,435.28c3.62-.93,7.96-1.72,13.02-2.37,5.06-.65,9.96-.97,14.7-.97s8.96.28,12.67.84c3.71.56,7.52,1.44,11.42,2.65l-4.18,15.04c-6.04-2.23-12.54-3.34-19.5-3.34-3.53,0-6.45.19-8.78.56v7.94h-19.36v-20.34Z"/>
      <path class="cls-8" d="m632.74,515.37v-12.12c0-.84.7-1.9,2.09-3.2,1.39-1.3,2.97-2.44,4.74-3.41,1.76-.98,3.2-1.46,4.32-1.46h25.35v16.16h-16.16v3.48c0,2.04.93,3.51,2.79,4.39,1.86.88,4.83,1.32,8.91,1.32,4.46,0,7.73-.53,9.82-1.6,2.09-1.07,3.5-2.79,4.25-5.15.74-2.37,1.11-5.87,1.11-10.52,0-7.15-.95-12.3-2.86-15.46-1.9-3.16-5.32-4.74-10.24-4.74-2.69,0-4.99.12-6.89.35-1.9.23-3.97.67-6.2,1.32v5.85h-16.71c-.47-1.76-.86-4.27-1.18-7.52-.33-3.25-.49-5.9-.49-7.94v-3.76c10.21-4.83,20.89-7.24,32.04-7.24,12.07,0,20.61,3.18,25.63,9.54,5.01,6.36,7.52,16.23,7.52,29.6,0,11.98-2.81,20.99-8.43,27.02-5.62,6.04-14.65,9.05-27.09,9.05-21.54,0-32.31-7.99-32.31-23.96Z"/>
      <path class="cls-8" d="m669.86,455.62c-4.5-.93-8.47-2.14-11.91-3.62v-17.83h19.92v6.96c2.23.47,5.06.7,8.5.7,10.03,0,18.34-2.65,24.93-7.94l6.96,14.07c-4.27,3.06-9.17,5.34-14.69,6.83-5.52,1.49-12.09,2.23-19.71,2.23-4.83,0-9.49-.46-14-1.39Z"/>
      <path class="cls-8" d="m716.93,503.6c-1.35-12.77-2.44-25.33-3.27-37.68l21.45-1.81c.37,16.9,1.02,34.64,1.95,53.21h.84l2.23-8.77c.46-1.95,1.44-5.87,2.92-11.77,1.48-5.9,2.88-11.91,4.18-18.04h13.93c1.3,6.13,2.69,12.14,4.18,18.04,1.48,5.9,2.46,9.82,2.92,11.77l2.23,8.77h.84c.93-18.57,1.58-36.31,1.95-53.21l21.45,1.81c-.84,12.35-1.93,24.91-3.27,37.68-1.35,12.77-2.81,24.21-4.39,34.33h-24.79c-2.79-11.61-5.25-22.52-7.38-32.73h-1.39l-1.25,5.71-6.13,27.02h-24.79c-1.58-10.12-3.04-21.57-4.39-34.33Z"/>
    </g>
    <g>
      <path class="cls-7" d="m298.83,537.77c-3.39-1.81-6.27-4.2-8.64-7.17-2.37-2.97-3.55-6.04-3.55-9.19v-54.74h20.75v47.5c0,2.97.14,5.11.42,6.41,2.23.47,4.97.7,8.22.7h4.04v16.85c-3.44,1.58-7.48,2.37-12.12,2.37-2.69,0-5.74-.91-9.12-2.72Zm40.67,0c-3.39-1.81-6.27-4.2-8.64-7.17-2.37-2.97-3.55-6.04-3.55-9.19v-54.74h20.75v47.5c0,2.97.14,5.11.42,6.41,2.23.47,4.97.7,8.22.7h4.04v16.85c-3.44,1.58-7.48,2.37-12.12,2.37-2.69,0-5.73-.91-9.12-2.72Z"/>
      <path class="cls-7" d="m406.57,537.7c-3.81-1.86-7.38-4.69-10.72-8.5h-1.11l-.7,9.89h-18.39v-71.87h20.75v49.31c2.51,1.86,4.88,3.11,7.1,3.76,2.23.65,5.15.98,8.78.98,3.16,0,5.99-.37,8.5-1.11v-52.93h20.75v54.6c0,6.13-1.88,10.77-5.64,13.93-3.76,3.16-8.98,4.74-15.67,4.74-5.29,0-9.84-.93-13.65-2.79Z"/>
      <path class="cls-7" d="m464.23,531.71c-5.11-5.85-7.66-15.37-7.66-28.55,0-25.26,7.71-37.89,23.12-37.89,3.53,0,6.62.72,9.26,2.16,2.65,1.44,4.71,3.41,6.2,5.92,2.04-2.79,4.34-4.83,6.89-6.13,2.55-1.3,6.01-1.95,10.38-1.95,3.62,0,6.87.56,9.75,1.67,2.88,1.11,5.25,2.42,7.1,3.9v68.25h-20.61v-54.04c-1.11-.56-2.6-.83-4.46-.83-2.04,0-3.53.51-4.46,1.53-.93,1.02-1.67,2.56-2.23,4.6h-7.1c-.56-2.04-1.32-3.57-2.3-4.6-.97-1.02-2.39-1.53-4.25-1.53-2.51,0-4.25,1.51-5.22,4.53-.97,3.02-1.46,7.82-1.46,14.42s.72,11.24,2.16,14.21c1.44,2.97,4.2,4.46,8.29,4.46s7.94-.6,11.28-1.81l4.32,17.13c-2.04.93-4.6,1.72-7.66,2.37s-6.27.98-9.61.98c-9.38,0-16.62-2.93-21.73-8.78Z"/>
      <path class="cls-7" d="m545.02,515.7v-5.71c0-3.16.58-5.73,1.74-7.73,1.16-2,2.76-4.02,4.81-6.06,1.39-1.48,2.39-2.67,3-3.55.6-.88.91-1.93.91-3.13,0-1.76-.35-2.99-1.04-3.69s-1.88-1.04-3.55-1.04h-6.27v-17.55h14.07c5.76,0,10.12,1.37,13.09,4.11,2.97,2.74,4.46,6.76,4.46,12.05,0,4.27-.54,7.59-1.6,9.96-1.07,2.37-2.62,4.76-4.67,7.17-1.39,1.67-2.44,3.18-3.13,4.53-.7,1.35-1.04,2.99-1.04,4.94v2.51c0,3.06.93,5.29,2.79,6.69,1.86,1.39,4.74,2.09,8.64,2.09,3.62,0,6.96-.46,10.03-1.39v-15.04c0-3.62-2.28-5.76-6.83-6.41v-15.32c2.13,0,3.67-.42,4.6-1.25.93-.84,1.67-2.46,2.23-4.88.84-3.62,1.39-7.52,1.67-11.7l21.59,2.23c-.47,4.64-1.35,8.78-2.65,12.4-.93,2.6-2.11,4.67-3.55,6.2-1.44,1.53-3.65,2.86-6.62,3.97v.56c3.81,1.3,6.48,3.16,8.01,5.57,1.53,2.42,2.3,5.85,2.3,10.31v10.17c0,4.37-1.25,8.36-3.76,11.98-2.51,3.62-6.2,6.5-11.07,8.64s-10.66,3.2-17.34,3.2c-20.52,0-30.78-8.26-30.78-24.79Z"/>
      <path class="cls-7" d="m574.68,436.44c3.62-.93,7.96-1.72,13.02-2.37,5.06-.65,9.96-.97,14.7-.97s8.96.28,12.67.84c3.71.56,7.52,1.44,11.42,2.65l-4.18,15.04c-6.04-2.23-12.54-3.34-19.5-3.34-3.53,0-6.45.19-8.78.56v7.94h-19.36v-20.34Z"/>
      <path class="cls-7" d="m633.32,516.53v-12.12c0-.84.7-1.9,2.09-3.2,1.39-1.3,2.97-2.44,4.74-3.41,1.76-.98,3.2-1.46,4.32-1.46h25.35v16.16h-16.16v3.48c0,2.04.93,3.51,2.79,4.39,1.86.88,4.83,1.32,8.91,1.32,4.46,0,7.73-.53,9.82-1.6,2.09-1.07,3.5-2.79,4.25-5.15.74-2.37,1.11-5.87,1.11-10.52,0-7.15-.95-12.3-2.86-15.46-1.9-3.16-5.32-4.74-10.24-4.74-2.69,0-4.99.12-6.89.35-1.9.23-3.97.67-6.2,1.32v5.85h-16.71c-.47-1.76-.86-4.27-1.18-7.52-.33-3.25-.49-5.9-.49-7.94v-3.76c10.21-4.83,20.89-7.24,32.04-7.24,12.07,0,20.61,3.18,25.63,9.54,5.01,6.36,7.52,16.23,7.52,29.6,0,11.98-2.81,20.99-8.43,27.02-5.62,6.04-14.65,9.05-27.09,9.05-21.54,0-32.31-7.99-32.31-23.96Z"/>
      <path class="cls-7" d="m670.44,456.78c-4.5-.93-8.47-2.14-11.91-3.62v-17.83h19.92v6.96c2.23.47,5.06.7,8.5.7,10.03,0,18.34-2.65,24.93-7.94l6.96,14.07c-4.27,3.06-9.17,5.34-14.69,6.83-5.52,1.49-12.09,2.23-19.71,2.23-4.83,0-9.49-.46-14-1.39Z"/>
      <path class="cls-7" d="m717.52,504.76c-1.35-12.77-2.44-25.33-3.27-37.68l21.45-1.81c.37,16.9,1.02,34.64,1.95,53.21h.84l2.23-8.77c.46-1.95,1.44-5.87,2.92-11.77,1.48-5.9,2.88-11.91,4.18-18.04h13.93c1.3,6.13,2.69,12.14,4.18,18.04,1.48,5.9,2.46,9.82,2.92,11.77l2.23,8.77h.84c.93-18.57,1.58-36.31,1.95-53.21l21.45,1.81c-.84,12.35-1.93,24.91-3.27,37.68-1.35,12.77-2.81,24.21-4.39,34.33h-24.79c-2.79-11.61-5.25-22.52-7.38-32.73h-1.39l-1.25,5.71-6.13,27.02h-24.79c-1.58-10.12-3.04-21.57-4.39-34.33Z"/>
    </g>
  </g>
</svg>