<?xml version="1.0" encoding="UTF-8"?>
<svg id="Layer_1" data-name="Layer 1" xmlns="http://www.w3.org/2000/svg" viewBox="0 0 1080 1080">
  <defs>
    <style>
      .cls-1 {
        stroke-width: 0px;
      }
    </style>
  </defs>
  <g>
    <g>
      <path class="cls-1" d="m309,605.67l.65,3.24h-12.65l.65-3.24v-28.11l-5.08,19.61v2.79h-10.29v-2.79l-4.68-17.91v26.4l.65,3.24h-12.65l.65-3.24v-47.44l-.65-3.24h12.65l9.17,28.47,9.17-28.47.47.34-.07-.34h12.65l-.65,3.24v47.44Z"/>
      <path class="cls-1" d="m336.41,605.64v-15.25h-8.88v15.25l.65,3.27h-12.76l.65-3.27v-45.68c0-2.67,2.17-4.84,4.84-4.84h22.03c2.71,0,4.9,2.19,4.9,4.9v45.57l.66,3.27s-12.76.06-12.76.06l.65-3.27Zm-8.88-25.57h8.88v-12.28c0-.68-.55-1.23-1.23-1.23h-6.43c-.68,0-1.23.55-1.23,1.23v12.28Z"/>
      <path class="cls-1" d="m376.99,605.67l-7.79-17.36h-3v17.36l.65,3.24h-12.65l.65-3.24v-46.83l-.65-3.24h27.61c2.62,0,4.75,2.13,4.75,4.75v22.66c0,2.65-2.15,4.79-4.8,4.77h-.55s8.42,17.89,8.42,17.89l.65,3.24h-13.36l.07-3.24Zm-1.77-28.8v-8.86c0-.59-.48-1.07-1.07-1.07h-7.94v11h7.94c.59,0,1.07-.48,1.07-1.07Z"/>
      <path class="cls-1" d="m426.51,555.59l-.65,3.24v6.81h-11.44v40.03l.65,3.24h-12.65l.65-3.24v-40.03h-11.44v-6.81l-.65-3.24h35.52Z"/>
      <path class="cls-1" d="m441.16,605.67l.65,3.24h-12.66l.65-3.24-.06-47.31-.65-3.24h12.65l-.65,3.24.08,47.31Z"/>
      <path class="cls-1" d="m468.46,605.64v-15.25h-8.88v15.25l.66,3.27h-12.76l.66-3.27v-45.68c0-2.67,2.17-4.84,4.84-4.84h22.03c2.71,0,4.9,2.19,4.9,4.9v45.57l.65,3.27s-12.76.06-12.76.06l.65-3.27Zm-8.88-25.57h8.88v-12.28c0-.68-.55-1.23-1.23-1.23h-6.43c-.68,0-1.23.55-1.23,1.23v12.28Z"/>
      <path class="cls-1" d="m515.63,608.95h-29.29l.65-3.25v-47.31l-.65-3.24h12.65l-.65,3.24v39.2h16.65v8.1l.65,3.25Z"/>
      <path class="cls-1" d="m582.23,605.67l.65,3.24h-12.65l.65-3.24v-28.11l-5.08,19.61v2.79h-10.29v-2.79l-4.68-17.91v26.4l.65,3.24h-12.64l.65-3.24v-47.44l-.65-3.24h12.64l9.17,28.47,9.18-28.47.47.34-.07-.34h12.65l-.65,3.24v47.44Z"/>
      <path class="cls-1" d="m609.64,605.64v-15.25h-8.88v15.25l.65,3.27h-12.76l.66-3.27v-45.68c0-2.67,2.17-4.84,4.84-4.84h22.03c2.71,0,4.9,2.19,4.9,4.9v45.57l.65,3.27s-12.76.06-12.76.06l.65-3.27Zm-8.88-25.57h8.88v-12.28c0-.68-.55-1.23-1.23-1.23h-6.43c-.68,0-1.23.55-1.23,1.23v12.28Z"/>
      <path class="cls-1" d="m659.81,555.59l-.65,3.24v6.81h-11.44v40.03l.65,3.24h-12.65l.65-3.24v-40.03h-11.44v-6.81l-.65-3.24h35.52Z"/>
      <path class="cls-1" d="m682.67,587.74h12.65l-.65,3.24v13.13c0,2.65-2.15,4.8-4.8,4.8h-22.08c-2.68,0-4.86-2.17-4.86-4.86v-44.08c0-2.68,2.17-4.86,4.86-4.86h22.08c2.65,0,4.8,2.15,4.8,4.8v13.13l.65,3.25h-12.65l.65-3.25v-5.37c0-.67-.54-1.22-1.22-1.22h-6.62c-.67,0-1.22.54-1.22,1.22v28.67c0,.67.55,1.22,1.22,1.22h6.62c.67,0,1.22-.54,1.22-1.22v-5.37l-.65-3.24Z"/>
      <path class="cls-1" d="m736.33,605.67l.65,3.24h-12.65l.65-3.24v-20.21h-12.2v20.21l.65,3.24h-12.64l.65-3.24v-47.31l-.65-3.24h12.64l-.65,3.24v17.32h12.2v-17.32l-.65-3.24h12.65l-.65,3.24v47.31Z"/>
      <path class="cls-1" d="m777.7,555.59l-.65,3.24v45.28c0,2.65-2.15,4.8-4.8,4.8h-24.03c-2.68,0-4.86-2.17-4.86-4.86v-45.16l-.65-3.24s12.65-.06,12.65-.06l-.65,3.24v37.51c0,.67.55,1.22,1.22,1.22h8.56c.67,0,1.22-.54,1.22-1.22v-37.51l-.65-3.24h12.65Z"/>
      <path class="cls-1" d="m809.64,555.59c2.62,0,4.75,2.13,4.75,4.75v23.49c0,2.62-2.13,4.75-4.75,4.75h-14.31v17.08l.65,3.24h-12.65l.65-3.24v-46.83l-.65-3.24h26.31Zm-6.6,20.57v-8.16c0-.59-.48-1.07-1.07-1.07h-6.64v10.3h6.64c.59,0,1.07-.48,1.07-1.07Z"/>
    </g>
    <g>
      <path class="cls-1" d="m309,605.67l.65,3.24h-12.65l.65-3.24v-28.11l-5.08,19.61v2.79h-10.29v-2.79l-4.68-17.91v26.4l.65,3.24h-12.65l.65-3.24v-47.44l-.65-3.24h12.65l9.17,28.47,9.17-28.47.47.34-.07-.34h12.65l-.65,3.24v47.44Z"/>
      <path class="cls-1" d="m336.41,605.64v-15.25h-8.88v15.25l.65,3.27h-12.76l.65-3.27v-45.68c0-2.67,2.17-4.84,4.84-4.84h22.03c2.71,0,4.9,2.19,4.9,4.9v45.57l.66,3.27s-12.76.06-12.76.06l.65-3.27Zm-8.88-25.57h8.88v-12.28c0-.68-.55-1.23-1.23-1.23h-6.43c-.68,0-1.23.55-1.23,1.23v12.28Z"/>
      <path class="cls-1" d="m376.99,605.67l-7.79-17.36h-3v17.36l.65,3.24h-12.65l.65-3.24v-46.83l-.65-3.24h27.61c2.62,0,4.75,2.13,4.75,4.75v22.66c0,2.65-2.15,4.79-4.8,4.77h-.55s8.42,17.89,8.42,17.89l.65,3.24h-13.36l.07-3.24Zm-1.77-28.8v-8.86c0-.59-.48-1.07-1.07-1.07h-7.94v11h7.94c.59,0,1.07-.48,1.07-1.07Z"/>
      <path class="cls-1" d="m426.51,555.59l-.65,3.24v6.81h-11.44v40.03l.65,3.24h-12.65l.65-3.24v-40.03h-11.44v-6.81l-.65-3.24h35.52Z"/>
      <path class="cls-1" d="m441.16,605.67l.65,3.24h-12.66l.65-3.24-.06-47.31-.65-3.24h12.65l-.65,3.24.08,47.31Z"/>
      <path class="cls-1" d="m468.46,605.64v-15.25h-8.88v15.25l.66,3.27h-12.76l.66-3.27v-45.68c0-2.67,2.17-4.84,4.84-4.84h22.03c2.71,0,4.9,2.19,4.9,4.9v45.57l.65,3.27s-12.76.06-12.76.06l.65-3.27Zm-8.88-25.57h8.88v-12.28c0-.68-.55-1.23-1.23-1.23h-6.43c-.68,0-1.23.55-1.23,1.23v12.28Z"/>
      <path class="cls-1" d="m515.63,608.95h-29.29l.65-3.25v-47.31l-.65-3.24h12.65l-.65,3.24v39.2h16.65v8.1l.65,3.25Z"/>
      <path class="cls-1" d="m582.23,605.67l.65,3.24h-12.65l.65-3.24v-28.11l-5.08,19.61v2.79h-10.29v-2.79l-4.68-17.91v26.4l.65,3.24h-12.64l.65-3.24v-47.44l-.65-3.24h12.64l9.17,28.47,9.18-28.47.47.34-.07-.34h12.65l-.65,3.24v47.44Z"/>
      <path class="cls-1" d="m609.64,605.64v-15.25h-8.88v15.25l.65,3.27h-12.76l.66-3.27v-45.68c0-2.67,2.17-4.84,4.84-4.84h22.03c2.71,0,4.9,2.19,4.9,4.9v45.57l.65,3.27s-12.76.06-12.76.06l.65-3.27Zm-8.88-25.57h8.88v-12.28c0-.68-.55-1.23-1.23-1.23h-6.43c-.68,0-1.23.55-1.23,1.23v12.28Z"/>
      <path class="cls-1" d="m659.81,555.59l-.65,3.24v6.81h-11.44v40.03l.65,3.24h-12.65l.65-3.24v-40.03h-11.44v-6.81l-.65-3.24h35.52Z"/>
      <path class="cls-1" d="m682.67,587.74h12.65l-.65,3.24v13.13c0,2.65-2.15,4.8-4.8,4.8h-22.08c-2.68,0-4.86-2.17-4.86-4.86v-44.08c0-2.68,2.17-4.86,4.86-4.86h22.08c2.65,0,4.8,2.15,4.8,4.8v13.13l.65,3.25h-12.65l.65-3.25v-5.37c0-.67-.54-1.22-1.22-1.22h-6.62c-.67,0-1.22.54-1.22,1.22v28.67c0,.67.55,1.22,1.22,1.22h6.62c.67,0,1.22-.54,1.22-1.22v-5.37l-.65-3.24Z"/>
      <path class="cls-1" d="m736.33,605.67l.65,3.24h-12.65l.65-3.24v-20.21h-12.2v20.21l.65,3.24h-12.64l.65-3.24v-47.31l-.65-3.24h12.64l-.65,3.24v17.32h12.2v-17.32l-.65-3.24h12.65l-.65,3.24v47.31Z"/>
      <path class="cls-1" d="m777.7,555.59l-.65,3.24v45.28c0,2.65-2.15,4.8-4.8,4.8h-24.03c-2.68,0-4.86-2.17-4.86-4.86v-45.16l-.65-3.24s12.65-.06,12.65-.06l-.65,3.24v37.51c0,.67.55,1.22,1.22,1.22h8.56c.67,0,1.22-.54,1.22-1.22v-37.51l-.65-3.24h12.65Z"/>
      <path class="cls-1" d="m809.64,555.59c2.62,0,4.75,2.13,4.75,4.75v23.49c0,2.62-2.13,4.75-4.75,4.75h-14.31v17.08l.65,3.24h-12.65l.65-3.24v-46.83l-.65-3.24h26.31Zm-6.6,20.57v-8.16c0-.59-.48-1.07-1.07-1.07h-6.64v10.3h6.64c.59,0,1.07-.48,1.07-1.07Z"/>
    </g>
  </g>
  <g>
    <g>
      <path class="cls-1" d="m409.4,622.35l-.4,2.02v5.05h-10.75v5.34h9.8v6.91h-9.8v12.17l.4,2.02h-7.87l.4-2.02v-29.46l-.4-2.02h18.62Z"/>
      <path class="cls-1" d="m424.02,653.82l.4,2.02h-7.88l.4-2.02-.04-29.46-.4-2.02h7.87l-.4,2.02.05,29.46Z"/>
      <path class="cls-1" d="m452.55,637.17c1.46,0,2.64,1.18,2.64,2.64v14.01l.4,2.02h-19.51c-1.67,0-3.03-1.35-3.03-3.03v-27.45c0-1.67,1.35-3.03,3.03-3.03h15.77c1.65,0,2.99,1.34,2.99,2.99v7.37l.4,2.02h-7.87l.4-2.02v-2.5c0-.44-.35-.79-.79-.79h-6.08c-.44,0-.79.35-.79.79v17.79c0,.44.35.79.79.79h6.42c.44,0,.79-.35.79-.79v-4.76h-3.21v-4.04l-.4-2.02h8.04Z"/>
      <path class="cls-1" d="m485.98,653.82l.4,2.02h-7.87l.4-2.02v-12.58h-7.6v12.58l.4,2.02h-7.87l.4-2.02v-29.46l-.4-2.02h7.87l-.4,2.02v10.79h7.6v-10.79l-.4-2.02h7.87l-.4,2.02v29.46Z"/>
      <path class="cls-1" d="m514.92,622.64l-.4,2.02v4.24h-7.12v24.93l.4,2.02h-7.87l.4-2.02v-24.93h-7.12v-4.24l-.4-2.02h22.12Z"/>
      <path class="cls-1" d="m557.43,622.35l-.4,2.02v5.05h-10.75v5.34h9.79v6.91h-9.79v12.17l.4,2.02h-7.87l.4-2.02v-29.46l-.4-2.02h18.62Z"/>
      <path class="cls-1" d="m572.05,653.82l.4,2.02h-7.88l.4-2.02-.04-29.46-.4-2.02h7.87l-.4,2.02.05,29.46Z"/>
      <path class="cls-1" d="m602.63,653.82l.4,2.02h-7.87l-6.89-19.1v17.08l.4,2.02h-7.87l.4-2.02v-29.46l-.4-2.02h7.87l6.89,18.81v-16.79l-.4-2.02h7.87l-.4,2.02v29.46Z"/>
      <path class="cls-1" d="m631.67,625.37v27.45c0,1.67-1.35,3.03-3.03,3.03h-17.21l.4-2.02v-29.46l-.4-2.02h17.21c1.67,0,3.02,1.35,3.03,3.03Zm-7.07,22.65v-17.85c0-.42-.34-.76-.76-.76h-4.94v19.37h4.94c.42,0,.76-.34.76-.76Z"/>
      <path class="cls-1" d="m658.62,653.82l.4,2.02h-18.62l.4-2.02v-29.46l-.4-2.02h18.62l-.4,2.02v5.05h-10.75v5.34h9.39v6.9h-9.39v7.13h10.75v5.05Z"/>
      <path class="cls-1" d="m681.02,653.82l-4.85-10.81h-1.87v10.81l.4,2.02h-7.87l.4-2.02v-29.16l-.4-2.02h17.19c1.63,0,2.96,1.33,2.96,2.96v14.11c0,1.65-1.34,2.98-2.99,2.97h-.34s5.24,11.14,5.24,11.14l.4,2.02h-8.32l.04-2.02Zm-1.1-17.93v-5.52c0-.37-.3-.67-.67-.67h-4.95v6.85h4.95c.37,0,.67-.3.67-.67Z"/>
    </g>
    <g>
      <path class="cls-1" d="m409.4,622.35l-.4,2.02v5.05h-10.75v5.34h9.8v6.91h-9.8v12.17l.4,2.02h-7.87l.4-2.02v-29.46l-.4-2.02h18.62Z"/>
      <path class="cls-1" d="m424.02,653.82l.4,2.02h-7.88l.4-2.02-.04-29.46-.4-2.02h7.87l-.4,2.02.05,29.46Z"/>
      <path class="cls-1" d="m452.55,637.17c1.46,0,2.64,1.18,2.64,2.64v14.01l.4,2.02h-19.51c-1.67,0-3.03-1.35-3.03-3.03v-27.45c0-1.67,1.35-3.03,3.03-3.03h15.77c1.65,0,2.99,1.34,2.99,2.99v7.37l.4,2.02h-7.87l.4-2.02v-2.5c0-.44-.35-.79-.79-.79h-6.08c-.44,0-.79.35-.79.79v17.79c0,.44.35.79.79.79h6.42c.44,0,.79-.35.79-.79v-4.76h-3.21v-4.04l-.4-2.02h8.04Z"/>
      <path class="cls-1" d="m485.98,653.82l.4,2.02h-7.87l.4-2.02v-12.58h-7.6v12.58l.4,2.02h-7.87l.4-2.02v-29.46l-.4-2.02h7.87l-.4,2.02v10.79h7.6v-10.79l-.4-2.02h7.87l-.4,2.02v29.46Z"/>
      <path class="cls-1" d="m514.92,622.64l-.4,2.02v4.24h-7.12v24.93l.4,2.02h-7.87l.4-2.02v-24.93h-7.12v-4.24l-.4-2.02h22.12Z"/>
      <path class="cls-1" d="m557.43,622.35l-.4,2.02v5.05h-10.75v5.34h9.79v6.91h-9.79v12.17l.4,2.02h-7.87l.4-2.02v-29.46l-.4-2.02h18.62Z"/>
      <path class="cls-1" d="m572.05,653.82l.4,2.02h-7.88l.4-2.02-.04-29.46-.4-2.02h7.87l-.4,2.02.05,29.46Z"/>
      <path class="cls-1" d="m602.63,653.82l.4,2.02h-7.87l-6.89-19.1v17.08l.4,2.02h-7.87l.4-2.02v-29.46l-.4-2.02h7.87l6.89,18.81v-16.79l-.4-2.02h7.87l-.4,2.02v29.46Z"/>
      <path class="cls-1" d="m631.67,625.37v27.45c0,1.67-1.35,3.03-3.03,3.03h-17.21l.4-2.02v-29.46l-.4-2.02h17.21c1.67,0,3.02,1.35,3.03,3.03Zm-7.07,22.65v-17.85c0-.42-.34-.76-.76-.76h-4.94v19.37h4.94c.42,0,.76-.34.76-.76Z"/>
      <path class="cls-1" d="m658.62,653.82l.4,2.02h-18.62l.4-2.02v-29.46l-.4-2.02h18.62l-.4,2.02v5.05h-10.75v5.34h9.39v6.9h-9.39v7.13h10.75v5.05Z"/>
      <path class="cls-1" d="m681.02,653.82l-4.85-10.81h-1.87v10.81l.4,2.02h-7.87l.4-2.02v-29.16l-.4-2.02h17.19c1.63,0,2.96,1.33,2.96,2.96v14.11c0,1.65-1.34,2.98-2.99,2.97h-.34s5.24,11.14,5.24,11.14l.4,2.02h-8.32l.04-2.02Zm-1.1-17.93v-5.52c0-.37-.3-.67-.67-.67h-4.95v6.85h4.95c.37,0,.67-.3.67-.67Z"/>
    </g>
  </g>
  <g>
    <g>
      <path class="cls-1" d="m280.5,536.55c-3.64-1.94-6.73-4.51-9.27-7.7-2.54-3.19-3.81-6.48-3.81-9.87v-58.78h22.28v51c0,3.19.15,5.48.45,6.88,2.39.5,5.33.75,8.82.75h4.34v18.1c-3.69,1.69-8.03,2.54-13.01,2.54-2.89,0-6.16-.97-9.8-2.92Zm43.67,0c-3.64-1.94-6.73-4.51-9.27-7.7-2.54-3.19-3.81-6.48-3.81-9.87v-58.78h22.28v51c0,3.19.15,5.48.45,6.88,2.39.5,5.33.75,8.82.75h4.34v18.1c-3.69,1.69-8.03,2.54-13.01,2.54-2.89,0-6.16-.97-9.8-2.92Z"/>
      <path class="cls-1" d="m396.18,536.47c-4.09-1.99-7.93-5.03-11.52-9.12h-1.2l-.75,10.62h-19.74v-77.17h22.28v52.94c2.69,2,5.23,3.34,7.63,4.04,2.39.7,5.53,1.05,9.42,1.05,3.39,0,6.43-.4,9.12-1.2v-56.83h22.28v58.63c0,6.58-2.02,11.57-6.06,14.96-4.04,3.39-9.65,5.09-16.82,5.09-5.68,0-10.57-1-14.66-2.99Z"/>
      <path class="cls-1" d="m458.1,530.04c-5.48-6.28-8.22-16.5-8.22-30.66,0-27.12,8.27-40.68,24.83-40.68,3.79,0,7.1.77,9.95,2.32,2.84,1.55,5.06,3.66,6.66,6.36,2.19-2.99,4.66-5.18,7.4-6.58,2.74-1.4,6.45-2.09,11.14-2.09,3.89,0,7.38.6,10.47,1.79,3.09,1.2,5.63,2.59,7.63,4.19v73.28h-22.13v-58.03c-1.2-.6-2.79-.9-4.79-.9-2.19,0-3.79.55-4.79,1.64-1,1.1-1.8,2.74-2.39,4.94h-7.63c-.6-2.19-1.42-3.84-2.47-4.94-1.05-1.1-2.57-1.64-4.56-1.64-2.69,0-4.56,1.62-5.61,4.86-1.05,3.24-1.57,8.4-1.57,15.48s.77,12.06,2.32,15.25c1.55,3.19,4.51,4.79,8.9,4.79s8.52-.65,12.11-1.94l4.64,18.39c-2.19,1-4.93,1.85-8.22,2.54-3.29.7-6.73,1.05-10.32,1.05-10.07,0-17.85-3.14-23.33-9.42Z"/>
      <path class="cls-1" d="m544.84,512.84v-6.13c0-3.39.62-6.16,1.87-8.3,1.25-2.14,2.97-4.31,5.16-6.51,1.5-1.59,2.57-2.87,3.22-3.81.65-.95.97-2.07.97-3.37,0-1.89-.37-3.22-1.12-3.96s-2.02-1.12-3.81-1.12h-6.73v-18.84h15.1c6.18,0,10.87,1.47,14.06,4.41,3.19,2.94,4.79,7.25,4.79,12.94,0,4.59-.57,8.15-1.72,10.69-1.15,2.54-2.82,5.11-5.01,7.7-1.5,1.79-2.62,3.42-3.36,4.86-.75,1.45-1.12,3.22-1.12,5.31v2.69c0,3.29,1,5.68,2.99,7.18,1.99,1.5,5.08,2.24,9.27,2.24,3.89,0,7.48-.5,10.77-1.5v-16.15c0-3.89-2.44-6.18-7.33-6.88v-16.45c2.29,0,3.94-.45,4.94-1.35,1-.9,1.8-2.64,2.39-5.23.9-3.89,1.5-8.08,1.8-12.56l23.18,2.39c-.5,4.99-1.45,9.42-2.84,13.31-1,2.79-2.27,5.01-3.81,6.66-1.55,1.64-3.91,3.07-7.1,4.26v.6c4.09,1.4,6.95,3.39,8.6,5.98,1.65,2.59,2.47,6.28,2.47,11.07v10.92c0,4.69-1.35,8.97-4.04,12.86-2.69,3.89-6.66,6.98-11.89,9.27-5.23,2.29-11.44,3.44-18.62,3.44-22.04,0-33.05-8.87-33.05-26.62Z"/>
      <path class="cls-1" d="m576.69,427.74c3.89-1,8.55-1.84,13.98-2.54,5.44-.7,10.69-1.05,15.78-1.05s9.62.3,13.61.9c3.99.6,8.08,1.55,12.26,2.84l-4.49,16.15c-6.48-2.39-13.46-3.59-20.94-3.59-3.79,0-6.93.2-9.42.6v8.52h-20.79v-21.84Z"/>
      <path class="cls-1" d="m639.65,513.74v-13.01c0-.9.75-2.04,2.24-3.44,1.5-1.4,3.19-2.62,5.09-3.66,1.89-1.05,3.44-1.57,4.64-1.57h27.22v17.35h-17.35v3.74c0,2.19,1,3.76,2.99,4.71,1.99.95,5.18,1.42,9.57,1.42,4.79,0,8.3-.57,10.54-1.72,2.24-1.15,3.76-2.99,4.56-5.53.8-2.54,1.2-6.31,1.2-11.29,0-7.68-1.02-13.21-3.07-16.6-2.04-3.39-5.71-5.08-10.99-5.08-2.89,0-5.36.13-7.4.37-2.04.25-4.26.72-6.66,1.42v6.28h-17.95c-.5-1.89-.92-4.58-1.27-8.08-.35-3.49-.52-6.33-.52-8.52v-4.04c10.97-5.18,22.43-7.78,34.4-7.78,12.96,0,22.13,3.42,27.52,10.24,5.38,6.83,8.08,17.42,8.08,31.78,0,12.86-3.02,22.53-9.05,29.01-6.03,6.48-15.73,9.72-29.09,9.72-23.13,0-34.7-8.57-34.7-25.72Z"/>
      <path class="cls-1" d="m679.51,449.58c-4.83-1-9.1-2.29-12.79-3.89v-19.14h21.39v7.48c2.39.5,5.44.75,9.12.75,10.77,0,19.69-2.84,26.77-8.52l7.48,15.11c-4.59,3.29-9.85,5.73-15.78,7.33-5.93,1.6-12.99,2.39-21.16,2.39-5.18,0-10.19-.5-15.03-1.5Z"/>
      <path class="cls-1" d="m730.06,501.1c-1.45-13.71-2.62-27.19-3.51-40.45l23.03-1.94c.4,18.15,1.1,37.19,2.09,57.13h.9l2.39-9.42c.5-2.09,1.54-6.31,3.14-12.64,1.59-6.33,3.09-12.79,4.49-19.37h14.96c1.4,6.58,2.89,13.04,4.49,19.37,1.59,6.33,2.64,10.54,3.14,12.64l2.39,9.42h.9c1-19.94,1.69-38.98,2.09-57.13l23.03,1.94c-.9,13.26-2.07,26.75-3.51,40.45-1.45,13.71-3.02,26-4.71,36.87h-26.62c-2.99-12.46-5.63-24.18-7.93-35.15h-1.5l-1.35,6.13-6.58,29.01h-26.62c-1.7-10.87-3.27-23.16-4.71-36.87Z"/>
    </g>
    <g>
      <path class="cls-1" d="m280.5,536.55c-3.64-1.94-6.73-4.51-9.27-7.7-2.54-3.19-3.81-6.48-3.81-9.87v-58.78h22.28v51c0,3.19.15,5.48.45,6.88,2.39.5,5.33.75,8.82.75h4.34v18.1c-3.69,1.69-8.03,2.54-13.01,2.54-2.89,0-6.16-.97-9.8-2.92Zm43.67,0c-3.64-1.94-6.73-4.51-9.27-7.7-2.54-3.19-3.81-6.48-3.81-9.87v-58.78h22.28v51c0,3.19.15,5.48.45,6.88,2.39.5,5.33.75,8.82.75h4.34v18.1c-3.69,1.69-8.03,2.54-13.01,2.54-2.89,0-6.16-.97-9.8-2.92Z"/>
      <path class="cls-1" d="m396.18,536.47c-4.09-1.99-7.93-5.03-11.52-9.12h-1.2l-.75,10.62h-19.74v-77.17h22.28v52.94c2.69,2,5.23,3.34,7.63,4.04,2.39.7,5.53,1.05,9.42,1.05,3.39,0,6.43-.4,9.12-1.2v-56.83h22.28v58.63c0,6.58-2.02,11.57-6.06,14.96-4.04,3.39-9.65,5.09-16.82,5.09-5.68,0-10.57-1-14.66-2.99Z"/>
      <path class="cls-1" d="m458.1,530.04c-5.48-6.28-8.22-16.5-8.22-30.66,0-27.12,8.27-40.68,24.83-40.68,3.79,0,7.1.77,9.95,2.32,2.84,1.55,5.06,3.66,6.66,6.36,2.19-2.99,4.66-5.18,7.4-6.58,2.74-1.4,6.45-2.09,11.14-2.09,3.89,0,7.38.6,10.47,1.79,3.09,1.2,5.63,2.59,7.63,4.19v73.28h-22.13v-58.03c-1.2-.6-2.79-.9-4.79-.9-2.19,0-3.79.55-4.79,1.64-1,1.1-1.8,2.74-2.39,4.94h-7.63c-.6-2.19-1.42-3.84-2.47-4.94-1.05-1.1-2.57-1.64-4.56-1.64-2.69,0-4.56,1.62-5.61,4.86-1.05,3.24-1.57,8.4-1.57,15.48s.77,12.06,2.32,15.25c1.55,3.19,4.51,4.79,8.9,4.79s8.52-.65,12.11-1.94l4.64,18.39c-2.19,1-4.93,1.85-8.22,2.54-3.29.7-6.73,1.05-10.32,1.05-10.07,0-17.85-3.14-23.33-9.42Z"/>
      <path class="cls-1" d="m544.84,512.84v-6.13c0-3.39.62-6.16,1.87-8.3,1.25-2.14,2.97-4.31,5.16-6.51,1.5-1.59,2.57-2.87,3.22-3.81.65-.95.97-2.07.97-3.37,0-1.89-.37-3.22-1.12-3.96s-2.02-1.12-3.81-1.12h-6.73v-18.84h15.1c6.18,0,10.87,1.47,14.06,4.41,3.19,2.94,4.79,7.25,4.79,12.94,0,4.59-.57,8.15-1.72,10.69-1.15,2.54-2.82,5.11-5.01,7.7-1.5,1.79-2.62,3.42-3.36,4.86-.75,1.45-1.12,3.22-1.12,5.31v2.69c0,3.29,1,5.68,2.99,7.18,1.99,1.5,5.08,2.24,9.27,2.24,3.89,0,7.48-.5,10.77-1.5v-16.15c0-3.89-2.44-6.18-7.33-6.88v-16.45c2.29,0,3.94-.45,4.94-1.35,1-.9,1.8-2.64,2.39-5.23.9-3.89,1.5-8.08,1.8-12.56l23.18,2.39c-.5,4.99-1.45,9.42-2.84,13.31-1,2.79-2.27,5.01-3.81,6.66-1.55,1.64-3.91,3.07-7.1,4.26v.6c4.09,1.4,6.95,3.39,8.6,5.98,1.65,2.59,2.47,6.28,2.47,11.07v10.92c0,4.69-1.35,8.97-4.04,12.86-2.69,3.89-6.66,6.98-11.89,9.27-5.23,2.29-11.44,3.44-18.62,3.44-22.04,0-33.05-8.87-33.05-26.62Z"/>
      <path class="cls-1" d="m576.69,427.74c3.89-1,8.55-1.84,13.98-2.54,5.44-.7,10.69-1.05,15.78-1.05s9.62.3,13.61.9c3.99.6,8.08,1.55,12.26,2.84l-4.49,16.15c-6.48-2.39-13.46-3.59-20.94-3.59-3.79,0-6.93.2-9.42.6v8.52h-20.79v-21.84Z"/>
      <path class="cls-1" d="m639.65,513.74v-13.01c0-.9.75-2.04,2.24-3.44,1.5-1.4,3.19-2.62,5.09-3.66,1.89-1.05,3.44-1.57,4.64-1.57h27.22v17.35h-17.35v3.74c0,2.19,1,3.76,2.99,4.71,1.99.95,5.18,1.42,9.57,1.42,4.79,0,8.3-.57,10.54-1.72,2.24-1.15,3.76-2.99,4.56-5.53.8-2.54,1.2-6.31,1.2-11.29,0-7.68-1.02-13.21-3.07-16.6-2.04-3.39-5.71-5.08-10.99-5.08-2.89,0-5.36.13-7.4.37-2.04.25-4.26.72-6.66,1.42v6.28h-17.95c-.5-1.89-.92-4.58-1.27-8.08-.35-3.49-.52-6.33-.52-8.52v-4.04c10.97-5.18,22.43-7.78,34.4-7.78,12.96,0,22.13,3.42,27.52,10.24,5.38,6.83,8.08,17.42,8.08,31.78,0,12.86-3.02,22.53-9.05,29.01-6.03,6.48-15.73,9.72-29.09,9.72-23.13,0-34.7-8.57-34.7-25.72Z"/>
      <path class="cls-1" d="m679.51,449.58c-4.83-1-9.1-2.29-12.79-3.89v-19.14h21.39v7.48c2.39.5,5.44.75,9.12.75,10.77,0,19.69-2.84,26.77-8.52l7.48,15.11c-4.59,3.29-9.85,5.73-15.78,7.33-5.93,1.6-12.99,2.39-21.16,2.39-5.18,0-10.19-.5-15.03-1.5Z"/>
      <path class="cls-1" d="m730.06,501.1c-1.45-13.71-2.62-27.19-3.51-40.45l23.03-1.94c.4,18.15,1.1,37.19,2.09,57.13h.9l2.39-9.42c.5-2.09,1.54-6.31,3.14-12.64,1.59-6.33,3.09-12.79,4.49-19.37h14.96c1.4,6.58,2.89,13.04,4.49,19.37,1.59,6.33,2.64,10.54,3.14,12.64l2.39,9.42h.9c1-19.94,1.69-38.98,2.09-57.13l23.03,1.94c-.9,13.26-2.07,26.75-3.51,40.45-1.45,13.71-3.02,26-4.71,36.87h-26.62c-2.99-12.46-5.63-24.18-7.93-35.15h-1.5l-1.35,6.13-6.58,29.01h-26.62c-1.7-10.87-3.27-23.16-4.71-36.87Z"/>
    </g>
  </g>
</svg>