<?xml version="1.0" encoding="UTF-8"?>
<svg id="Layer_1" data-name="Layer 1" xmlns="http://www.w3.org/2000/svg" viewBox="0 0 1080 1080">
  <defs>
    <style>
      .cls-1 {
        stroke-width: 0px;
      }
    </style>
  </defs>
  <g>
    <g>
      <path class="cls-1" d="m274.85,768.32l.75,3.73h-14.55l.75-3.73v-32.34l-5.85,22.56v3.21h-11.84v-3.21l-5.38-20.6v30.38l.75,3.73h-14.55l.75-3.73v-54.58l-.75-3.73h14.55l10.56,32.76,10.56-32.76.54.39-.08-.39h14.55l-.75,3.73v54.58Z"/>
      <path class="cls-1" d="m306.38,768.28v-17.54h-10.21v17.54l.75,3.77h-14.68l.75-3.77v-52.56c0-3.08,2.49-5.57,5.57-5.57h25.35c3.11,0,5.64,2.53,5.64,5.64v52.42l.75,3.77s-14.68.07-14.68.07l.75-3.77Zm-10.22-29.42h10.22v-14.12c0-.78-.63-1.41-1.41-1.41h-7.39c-.78,0-1.41.63-1.41,1.41v14.12Z"/>
      <path class="cls-1" d="m353.07,768.32l-8.96-19.98h-3.45v19.98l.75,3.73h-14.55l.75-3.73v-53.88l-.75-3.73h31.76c3.02,0,5.47,2.45,5.47,5.47v26.08c0,3.05-2.48,5.51-5.53,5.49h-.63s9.69,20.58,9.69,20.58l.75,3.73h-15.38l.08-3.73Zm-2.04-33.14v-10.19c0-.68-.55-1.23-1.23-1.23h-9.14v12.66h9.14c.68,0,1.23-.55,1.23-1.23Z"/>
      <path class="cls-1" d="m410.05,710.7l-.75,3.73v7.83h-13.16v46.05l.75,3.73h-14.55l.75-3.73v-46.05h-13.16v-7.83l-.75-3.73h40.86Z"/>
      <path class="cls-1" d="m426.91,768.32l.75,3.73h-14.57l.75-3.73-.07-54.43-.75-3.73h14.55l-.75,3.73.09,54.43Z"/>
      <path class="cls-1" d="m458.32,768.28v-17.54h-10.21v17.54l.75,3.77h-14.68l.75-3.77v-52.56c0-3.08,2.49-5.57,5.57-5.57h25.35c3.11,0,5.64,2.53,5.64,5.64v52.42l.75,3.77s-14.68.07-14.68.07l.75-3.77Zm-10.22-29.42h10.22v-14.12c0-.78-.63-1.41-1.41-1.41h-7.39c-.78,0-1.41.63-1.41,1.41v14.12Z"/>
      <path class="cls-1" d="m512.6,772.09h-33.71l.75-3.73v-54.43l-.75-3.73h14.55l-.75,3.73v45.1h19.16v9.32l.75,3.73Z"/>
      <path class="cls-1" d="m589.22,768.32l.75,3.73h-14.55l.75-3.73v-32.34l-5.85,22.56v3.21h-11.84v-3.21l-5.38-20.6v30.38l.75,3.73h-14.55l.75-3.73v-54.58l-.75-3.73h14.55l10.56,32.76,10.56-32.76.54.39-.08-.39h14.55l-.75,3.73v54.58Z"/>
      <path class="cls-1" d="m620.76,768.28v-17.54h-10.21v17.54l.75,3.77h-14.68l.75-3.77v-52.56c0-3.08,2.49-5.57,5.57-5.57h25.35c3.11,0,5.64,2.53,5.64,5.64v52.42l.75,3.77s-14.68.07-14.68.07l.75-3.77Zm-10.22-29.42h10.22v-14.12c0-.78-.63-1.41-1.41-1.41h-7.39c-.78,0-1.41.63-1.41,1.41v14.12Z"/>
      <path class="cls-1" d="m678.48,710.7l-.75,3.73v7.83h-13.16v46.05l.75,3.73h-14.55l.75-3.73v-46.05h-13.16v-7.83l-.75-3.73h40.86Z"/>
      <path class="cls-1" d="m704.78,747.69h14.55l-.75,3.73v15.11c0,3.05-2.47,5.52-5.52,5.52h-25.41c-3.09,0-5.59-2.5-5.59-5.59v-50.72c0-3.09,2.5-5.59,5.59-5.59h25.41c3.05,0,5.52,2.47,5.52,5.52v15.11l.75,3.73h-14.55l.75-3.73v-6.17c0-.77-.63-1.4-1.4-1.4h-7.61c-.77,0-1.4.63-1.4,1.4v32.99c0,.77.63,1.4,1.4,1.4h7.61c.77,0,1.4-.63,1.4-1.4v-6.17l-.75-3.73Z"/>
      <path class="cls-1" d="m766.53,768.32l.75,3.73h-14.55l.75-3.73v-23.25h-14.04v23.25l.75,3.73h-14.55l.75-3.73v-54.43l-.75-3.73h14.55l-.75,3.73v19.93h14.04v-19.93l-.75-3.73h14.55l-.75,3.73v54.43Z"/>
      <path class="cls-1" d="m814.12,710.7l-.75,3.73v52.09c0,3.05-2.47,5.52-5.52,5.52h-27.65c-3.09,0-5.59-2.5-5.59-5.59v-51.96l-.75-3.73s14.55-.07,14.55-.07l-.75,3.73v43.16c0,.77.63,1.4,1.4,1.4h9.85c.77,0,1.4-.63,1.4-1.4v-43.16l-.75-3.73h14.55Z"/>
      <path class="cls-1" d="m850.87,710.7c3.02,0,5.47,2.45,5.47,5.47v27.03c0,3.02-2.45,5.47-5.47,5.47h-16.47v19.65l.75,3.73h-14.55l.75-3.73v-53.88l-.75-3.73h30.27Zm-7.59,23.67v-9.38c0-.68-.55-1.23-1.23-1.23h-7.64v11.85h7.64c.68,0,1.23-.55,1.23-1.23Z"/>
    </g>
    <g>
      <path class="cls-1" d="m274.85,768.32l.75,3.73h-14.55l.75-3.73v-32.34l-5.85,22.56v3.21h-11.84v-3.21l-5.38-20.6v30.38l.75,3.73h-14.55l.75-3.73v-54.58l-.75-3.73h14.55l10.56,32.76,10.56-32.76.54.39-.08-.39h14.55l-.75,3.73v54.58Z"/>
      <path class="cls-1" d="m306.38,768.28v-17.54h-10.21v17.54l.75,3.77h-14.68l.75-3.77v-52.56c0-3.08,2.49-5.57,5.57-5.57h25.35c3.11,0,5.64,2.53,5.64,5.64v52.42l.75,3.77s-14.68.07-14.68.07l.75-3.77Zm-10.22-29.42h10.22v-14.12c0-.78-.63-1.41-1.41-1.41h-7.39c-.78,0-1.41.63-1.41,1.41v14.12Z"/>
      <path class="cls-1" d="m353.07,768.32l-8.96-19.98h-3.45v19.98l.75,3.73h-14.55l.75-3.73v-53.88l-.75-3.73h31.76c3.02,0,5.47,2.45,5.47,5.47v26.08c0,3.05-2.48,5.51-5.53,5.49h-.63s9.69,20.58,9.69,20.58l.75,3.73h-15.38l.08-3.73Zm-2.04-33.14v-10.19c0-.68-.55-1.23-1.23-1.23h-9.14v12.66h9.14c.68,0,1.23-.55,1.23-1.23Z"/>
      <path class="cls-1" d="m410.05,710.7l-.75,3.73v7.83h-13.16v46.05l.75,3.73h-14.55l.75-3.73v-46.05h-13.16v-7.83l-.75-3.73h40.86Z"/>
      <path class="cls-1" d="m426.91,768.32l.75,3.73h-14.57l.75-3.73-.07-54.43-.75-3.73h14.55l-.75,3.73.09,54.43Z"/>
      <path class="cls-1" d="m458.32,768.28v-17.54h-10.21v17.54l.75,3.77h-14.68l.75-3.77v-52.56c0-3.08,2.49-5.57,5.57-5.57h25.35c3.11,0,5.64,2.53,5.64,5.64v52.42l.75,3.77s-14.68.07-14.68.07l.75-3.77Zm-10.22-29.42h10.22v-14.12c0-.78-.63-1.41-1.41-1.41h-7.39c-.78,0-1.41.63-1.41,1.41v14.12Z"/>
      <path class="cls-1" d="m512.6,772.09h-33.71l.75-3.73v-54.43l-.75-3.73h14.55l-.75,3.73v45.1h19.16v9.32l.75,3.73Z"/>
      <path class="cls-1" d="m589.22,768.32l.75,3.73h-14.55l.75-3.73v-32.34l-5.85,22.56v3.21h-11.84v-3.21l-5.38-20.6v30.38l.75,3.73h-14.55l.75-3.73v-54.58l-.75-3.73h14.55l10.56,32.76,10.56-32.76.54.39-.08-.39h14.55l-.75,3.73v54.58Z"/>
      <path class="cls-1" d="m620.76,768.28v-17.54h-10.21v17.54l.75,3.77h-14.68l.75-3.77v-52.56c0-3.08,2.49-5.57,5.57-5.57h25.35c3.11,0,5.64,2.53,5.64,5.64v52.42l.75,3.77s-14.68.07-14.68.07l.75-3.77Zm-10.22-29.42h10.22v-14.12c0-.78-.63-1.41-1.41-1.41h-7.39c-.78,0-1.41.63-1.41,1.41v14.12Z"/>
      <path class="cls-1" d="m678.48,710.7l-.75,3.73v7.83h-13.16v46.05l.75,3.73h-14.55l.75-3.73v-46.05h-13.16v-7.83l-.75-3.73h40.86Z"/>
      <path class="cls-1" d="m704.78,747.69h14.55l-.75,3.73v15.11c0,3.05-2.47,5.52-5.52,5.52h-25.41c-3.09,0-5.59-2.5-5.59-5.59v-50.72c0-3.09,2.5-5.59,5.59-5.59h25.41c3.05,0,5.52,2.47,5.52,5.52v15.11l.75,3.73h-14.55l.75-3.73v-6.17c0-.77-.63-1.4-1.4-1.4h-7.61c-.77,0-1.4.63-1.4,1.4v32.99c0,.77.63,1.4,1.4,1.4h7.61c.77,0,1.4-.63,1.4-1.4v-6.17l-.75-3.73Z"/>
      <path class="cls-1" d="m766.53,768.32l.75,3.73h-14.55l.75-3.73v-23.25h-14.04v23.25l.75,3.73h-14.55l.75-3.73v-54.43l-.75-3.73h14.55l-.75,3.73v19.93h14.04v-19.93l-.75-3.73h14.55l-.75,3.73v54.43Z"/>
      <path class="cls-1" d="m814.12,710.7l-.75,3.73v52.09c0,3.05-2.47,5.52-5.52,5.52h-27.65c-3.09,0-5.59-2.5-5.59-5.59v-51.96l-.75-3.73s14.55-.07,14.55-.07l-.75,3.73v43.16c0,.77.63,1.4,1.4,1.4h9.85c.77,0,1.4-.63,1.4-1.4v-43.16l-.75-3.73h14.55Z"/>
      <path class="cls-1" d="m850.87,710.7c3.02,0,5.47,2.45,5.47,5.47v27.03c0,3.02-2.45,5.47-5.47,5.47h-16.47v19.65l.75,3.73h-14.55l.75-3.73v-53.88l-.75-3.73h30.27Zm-7.59,23.67v-9.38c0-.68-.55-1.23-1.23-1.23h-7.64v11.85h7.64c.68,0,1.23-.55,1.23-1.23Z"/>
    </g>
  </g>
  <g>
    <g>
      <path class="cls-1" d="m390.37,789.14l-.46,2.32v5.8h-12.36v6.14h11.27v7.95h-11.27v14l.46,2.32h-9.06l.46-2.32v-33.89l-.46-2.32h21.42Z"/>
      <path class="cls-1" d="m407.19,825.35l.46,2.32h-9.07l.46-2.32-.04-33.89-.46-2.32h9.06l-.46,2.32.05,33.89Z"/>
      <path class="cls-1" d="m440.01,806.2c1.68,0,3.04,1.36,3.04,3.04v16.11l.46,2.32h-22.45c-1.92,0-3.48-1.56-3.48-3.48v-31.58c0-1.92,1.56-3.48,3.48-3.48h18.14c1.9,0,3.44,1.54,3.44,3.44v8.47l.46,2.32h-9.06l.46-2.32v-2.88c0-.5-.41-.91-.91-.91h-6.99c-.5,0-.91.41-.91.91v20.46c0,.5.41.91.91.91h7.39c.5,0,.91-.41.91-.91v-5.48h-3.69v-4.64l-.46-2.32h9.24Z"/>
      <path class="cls-1" d="m478.47,825.35l.46,2.32h-9.06l.46-2.32v-14.47h-8.74v14.47l.46,2.32h-9.06l.46-2.32v-33.89l-.46-2.32h9.06l-.46,2.32v12.41h8.74v-12.41l-.46-2.32h9.06l-.46,2.32v33.89Z"/>
      <path class="cls-1" d="m511.78,789.48l-.46,2.32v4.88h-8.19v28.67l.46,2.32h-9.06l.46-2.32v-28.67h-8.19v-4.88l-.46-2.32h25.44Z"/>
      <path class="cls-1" d="m560.68,789.14l-.46,2.32v5.8h-12.36v6.14h11.27v7.95h-11.27v14l.46,2.32h-9.06l.46-2.32v-33.89l-.46-2.32h21.42Z"/>
      <path class="cls-1" d="m577.5,825.35l.46,2.32h-9.07l.46-2.32-.04-33.89-.46-2.32h9.06l-.46,2.32.05,33.89Z"/>
      <path class="cls-1" d="m612.69,825.35l.46,2.32h-9.06l-7.92-21.97v19.65l.46,2.32h-9.06l.46-2.32v-33.89l-.46-2.32h9.06l7.92,21.64v-19.32l-.46-2.32h9.06l-.46,2.32v33.89Z"/>
      <path class="cls-1" d="m646.1,792.62v31.58c0,1.92-1.56,3.48-3.48,3.48h-19.8l.46-2.32v-33.89l-.46-2.32h19.8c1.92,0,3.48,1.56,3.48,3.48Zm-8.13,26.06v-20.54c0-.48-.39-.87-.87-.87h-5.69v22.28h5.69c.48,0,.87-.39.87-.87Z"/>
      <path class="cls-1" d="m677.11,825.35l.46,2.32h-21.42l.46-2.32v-33.89l-.46-2.32h21.42l-.46,2.32v5.8h-12.36v6.14h10.8v7.93h-10.8v8.2h12.36v5.8Z"/>
      <path class="cls-1" d="m702.89,825.35l-5.58-12.44h-2.15v12.44l.46,2.32h-9.06l.46-2.32v-33.55l-.46-2.32h19.78c1.88,0,3.4,1.52,3.4,3.4v16.24c0,1.9-1.54,3.43-3.44,3.42h-.39s6.03,12.81,6.03,12.81l.46,2.32h-9.57l.05-2.32Zm-1.27-20.63v-6.35c0-.42-.34-.77-.77-.77h-5.69v7.88h5.69c.42,0,.77-.34.77-.77Z"/>
    </g>
    <g>
      <path class="cls-1" d="m390.37,789.14l-.46,2.32v5.8h-12.36v6.14h11.27v7.95h-11.27v14l.46,2.32h-9.06l.46-2.32v-33.89l-.46-2.32h21.42Z"/>
      <path class="cls-1" d="m407.19,825.35l.46,2.32h-9.07l.46-2.32-.04-33.89-.46-2.32h9.06l-.46,2.32.05,33.89Z"/>
      <path class="cls-1" d="m440.01,806.2c1.68,0,3.04,1.36,3.04,3.04v16.11l.46,2.32h-22.45c-1.92,0-3.48-1.56-3.48-3.48v-31.58c0-1.92,1.56-3.48,3.48-3.48h18.14c1.9,0,3.44,1.54,3.44,3.44v8.47l.46,2.32h-9.06l.46-2.32v-2.88c0-.5-.41-.91-.91-.91h-6.99c-.5,0-.91.41-.91.91v20.46c0,.5.41.91.91.91h7.39c.5,0,.91-.41.91-.91v-5.48h-3.69v-4.64l-.46-2.32h9.24Z"/>
      <path class="cls-1" d="m478.47,825.35l.46,2.32h-9.06l.46-2.32v-14.47h-8.74v14.47l.46,2.32h-9.06l.46-2.32v-33.89l-.46-2.32h9.06l-.46,2.32v12.41h8.74v-12.41l-.46-2.32h9.06l-.46,2.32v33.89Z"/>
      <path class="cls-1" d="m511.78,789.48l-.46,2.32v4.88h-8.19v28.67l.46,2.32h-9.06l.46-2.32v-28.67h-8.19v-4.88l-.46-2.32h25.44Z"/>
      <path class="cls-1" d="m560.68,789.14l-.46,2.32v5.8h-12.36v6.14h11.27v7.95h-11.27v14l.46,2.32h-9.06l.46-2.32v-33.89l-.46-2.32h21.42Z"/>
      <path class="cls-1" d="m577.5,825.35l.46,2.32h-9.07l.46-2.32-.04-33.89-.46-2.32h9.06l-.46,2.32.05,33.89Z"/>
      <path class="cls-1" d="m612.69,825.35l.46,2.32h-9.06l-7.92-21.97v19.65l.46,2.32h-9.06l.46-2.32v-33.89l-.46-2.32h9.06l7.92,21.64v-19.32l-.46-2.32h9.06l-.46,2.32v33.89Z"/>
      <path class="cls-1" d="m646.1,792.62v31.58c0,1.92-1.56,3.48-3.48,3.48h-19.8l.46-2.32v-33.89l-.46-2.32h19.8c1.92,0,3.48,1.56,3.48,3.48Zm-8.13,26.06v-20.54c0-.48-.39-.87-.87-.87h-5.69v22.28h5.69c.48,0,.87-.39.87-.87Z"/>
      <path class="cls-1" d="m677.11,825.35l.46,2.32h-21.42l.46-2.32v-33.89l-.46-2.32h21.42l-.46,2.32v5.8h-12.36v6.14h10.8v7.93h-10.8v8.2h12.36v5.8Z"/>
      <path class="cls-1" d="m702.89,825.35l-5.58-12.44h-2.15v12.44l.46,2.32h-9.06l.46-2.32v-33.55l-.46-2.32h19.78c1.88,0,3.4,1.52,3.4,3.4v16.24c0,1.9-1.54,3.43-3.44,3.42h-.39s6.03,12.81,6.03,12.81l.46,2.32h-9.57l.05-2.32Zm-1.27-20.63v-6.35c0-.42-.34-.77-.77-.77h-5.69v7.88h5.69c.42,0,.77-.34.77-.77Z"/>
    </g>
  </g>
  <g>
    <path class="cls-1" d="m268.73,689.53c-4.84-2.36-9.38-5.96-13.62-10.79h-1.42l-.88,12.56h-23.36v-91.31h26.37v62.64c3.18,2.36,6.19,3.95,9.02,4.78,2.83.83,6.55,1.24,11.15,1.24,4.01,0,7.61-.47,10.79-1.42v-67.24h26.37v69.37c0,7.79-2.39,13.69-7.17,17.7-4.78,4.01-11.41,6.02-19.91,6.02-6.72,0-12.51-1.18-17.34-3.54Z"/>
    <path class="cls-1" d="m366.94,624.23c-4.25-1.53-9.26-2.3-15.04-2.3-6.25,0-12.92.95-20,2.83l-4.6-22.65c4.13-1.42,8.91-2.54,14.33-3.36,5.42-.82,10.91-1.24,16.46-1.24,10.85,0,19.52,1.86,26.01,5.57,6.49,3.72,9.73,8.7,9.73,14.95v73.26h-26.9v-67.07Z"/>
    <path class="cls-1" d="m411,683.69l6.55-20.53c9.91,4.95,20.23,7.43,30.97,7.43,5.42,0,9.91-.29,13.45-.88.71-1.65,1.06-3.24,1.06-4.78,0-2-.92-3.48-2.74-4.42-1.83-.94-5.75-1.89-11.77-2.83-11.21-1.89-20.12-5.1-26.72-9.64-6.61-4.54-9.91-11.24-9.91-20.08,0-10.5,3.33-18.2,10-23.09,6.66-4.89,17.08-7.34,31.23-7.34,12.74,0,23.95,2.42,33.62,7.25l-10.09,20c-7.2-3.19-15.46-4.78-24.77-4.78-5.07,0-9.26.47-12.56,1.42-.47,1.42-.71,2.89-.71,4.42,0,2.01,1.09,3.45,3.27,4.33,2.18.89,6.46,1.86,12.83,2.92,8.02,1.3,14.51,3.04,19.46,5.22,4.96,2.18,8.73,5.22,11.33,9.11,2.59,3.89,3.89,9.02,3.89,15.39,0,9.44-3.48,16.84-10.44,22.21-6.96,5.37-17.4,8.05-31.32,8.05s-26.49-3.12-36.63-9.38Z"/>
    <path class="cls-1" d="m442.5,560.88c4.6-1.18,10.12-2.18,16.54-3.01,6.43-.82,12.65-1.24,18.67-1.24s11.39.35,16.1,1.06c4.72.71,9.56,1.83,14.51,3.36l-5.31,19.11c-7.67-2.83-15.93-4.25-24.77-4.25-4.48,0-8.2.24-11.15.71v10.09h-24.6v-25.83Z"/>
    <path class="cls-1" d="m523.28,689.62c-4.31-2.3-7.96-5.34-10.97-9.11-3.01-3.77-4.51-7.67-4.51-11.68v-69.54h26.37v60.34c0,3.78.18,6.49.53,8.14,2.83.59,6.31.88,10.44.88h5.13v21.41c-4.37,2-9.5,3.01-15.4,3.01-3.42,0-7.29-1.15-11.59-3.45Z"/>
    <path class="cls-1" d="m565.84,661.57v-7.25c0-4.01.74-7.28,2.21-9.82,1.47-2.54,3.51-5.1,6.1-7.7,1.77-1.89,3.04-3.39,3.8-4.51.77-1.12,1.15-2.45,1.15-3.98,0-2.24-.44-3.8-1.33-4.69s-2.39-1.33-4.51-1.33h-7.96v-22.3h17.87c7.31,0,12.86,1.74,16.63,5.22,3.77,3.48,5.66,8.58,5.66,15.31,0,5.43-.68,9.64-2.04,12.65-1.36,3.01-3.33,6.05-5.93,9.11-1.77,2.12-3.1,4.04-3.98,5.75-.88,1.71-1.33,3.8-1.33,6.28v3.18c0,3.89,1.18,6.72,3.54,8.49,2.36,1.77,6.02,2.65,10.97,2.65,4.6,0,8.85-.59,12.74-1.77v-19.11c0-4.6-2.89-7.31-8.67-8.14v-19.46c2.71,0,4.66-.53,5.84-1.59,1.18-1.06,2.12-3.12,2.83-6.19,1.06-4.6,1.77-9.56,2.12-14.86l27.43,2.83c-.59,5.9-1.71,11.15-3.36,15.75-1.18,3.3-2.68,5.93-4.51,7.87-1.83,1.95-4.63,3.63-8.41,5.04v.71c4.84,1.65,8.23,4.01,10.17,7.08,1.95,3.07,2.92,7.43,2.92,13.09v12.92c0,5.55-1.59,10.62-4.78,15.22-3.19,4.6-7.88,8.26-14.07,10.97-6.19,2.71-13.54,4.07-22.03,4.07-26.07,0-39.11-10.5-39.11-31.5Z"/>
    <path class="cls-1" d="m572.2,568.49l19.11-2.48h30.08v-10.44h24.24v31.14h-73.44v-18.23Z"/>
    <path class="cls-1" d="m676.08,687.85c-7.67-4.19-11.5-11.59-11.5-22.21,0-6.25,1.42-11.21,4.25-14.86,2.83-3.66,7.14-6.25,12.92-7.79v-1.06c-5.43-1.77-9.38-4.27-11.86-7.52-2.48-3.24-3.72-7.87-3.72-13.89,0-7.79,2.74-13.56,8.23-17.34,5.49-3.77,13.01-5.66,22.56-5.66,6.37,0,12.56.83,18.58,2.48l-2.83,20c-4.13-.59-7.61-.88-10.44-.88-2.6,0-5.6.24-9.03.71-.59,2.24-.88,4.31-.88,6.19,0,2.48.71,4.22,2.12,5.22,1.42,1,3.89,1.5,7.43,1.5h13.98v20.88h-14.86c-3.78,0-6.43.56-7.96,1.68-1.53,1.12-2.3,3.1-2.3,5.93,0,3.18,1.27,5.52,3.8,6.99,2.54,1.48,6.99,2.21,13.36,2.21,6.84,0,12.39-.71,16.63-2.12v-68.31h26.19v62.11c0,21.35-14.04,32.03-42.12,32.03-14.04,0-24.89-2.1-32.56-6.28Z"/>
    <path class="cls-1" d="m775.79,686.25c-5.6-4.54-8.41-11.06-8.41-19.55,0-10.5,3.21-18.28,9.64-23.36,6.43-5.07,17.01-7.61,31.76-7.61,5.66,0,11.26.77,16.81,2.3v-6.19c0-4.01-1.09-6.75-3.27-8.23-2.18-1.47-6.05-2.21-11.59-2.21-5.19,0-9.85.35-13.98,1.06v7.25h-21.41c-1.65-6.13-2.48-12.98-2.48-20.53v-4.25c6.72-2.48,13.3-4.33,19.73-5.57,6.43-1.24,13.12-1.86,20.08-1.86,12.86,0,22.62,2.71,29.29,8.14,6.66,5.43,10,13.33,10,23.71v61.93h-26.19v-30.79c-5.31-1.42-10.79-2.12-16.46-2.12-5.07,0-9.91.53-14.51,1.59-.71,1.65-1.06,3.54-1.06,5.66,0,1.89.77,3.27,2.3,4.16,1.53.88,3.89,1.33,7.08,1.33,4.84,0,8.85-.65,12.03-1.95l4.95,20.53c-6.02,2.24-12.86,3.36-20.53,3.36-10.26,0-18.2-2.27-23.8-6.81Z"/>
  </g>
  <path class="cls-1" d="m435.21,478.02c-5.34-11.27-.1-22.45,12.9-29.31,32.62-17.24,60.31-38.03,82.95-62.5,20.78-1.58,37.69-18.04,39.43-38.12-4.63,16.07-18.9,28.3-35.49,28.81-20.62.63-37.49-16.83-37.29-38.59.21-21.56,16.29-38.66,37.02-39.38,18.02-.62,32.99,12.26,36.54,29.96,11.88-22.84,20.72-47.84,26.42-75.13.5-2.35-.46-5.37,3.08-7.43,3.88,11.6,3.25,23.51,3.42,35.08.6,45.19-10.01,87.49-37.1,125.42-18.73,26.22-43.17,46.42-70.42,63.69-9.85,6.23-19.79,12.4-30.57,17.01-13.92,5.9-25.3,2.32-30.9-9.52Zm227.18,11.17c-4.39-8.65-1.95-54.68-.75-73.5,2.55-12.89-3.98-27.88-16.74-36.22-14.63-9.56-32.21-6.99-40.12,5.87-24.77,40.25-87.7,119.12-207.55,135.36,0,0,141.29,8.66,221.88-51.63,1.82,9.54,5.89,18.09,14.07,22.03,22.33,10.81,46.39,8.7,49.59,8.34-2.3,0-15.3-.28-20.37-10.24Z"/>
</svg>