<?xml version="1.0" encoding="UTF-8"?>
<svg id="Layer_1" data-name="Layer 1" xmlns="http://www.w3.org/2000/svg" xmlns:xlink="http://www.w3.org/1999/xlink" viewBox="0 0 1080 1080">
  <defs>
    <style>
      .cls-1 {
        fill: url(#linear-gradient-12);
      }

      .cls-1, .cls-2, .cls-3, .cls-4, .cls-5, .cls-6, .cls-7, .cls-8, .cls-9, .cls-10, .cls-11, .cls-12, .cls-13, .cls-14, .cls-15, .cls-16, .cls-17, .cls-18, .cls-19, .cls-20, .cls-21, .cls-22, .cls-23, .cls-24, .cls-25, .cls-26, .cls-27, .cls-28 {
        stroke-width: 0px;
      }

      .cls-2 {
        fill: url(#linear-gradient-17);
      }

      .cls-3 {
        fill: url(#linear-gradient-19);
      }

      .cls-4 {
        fill: url(#linear-gradient);
      }

      .cls-5 {
        fill: url(#linear-gradient-21);
      }

      .cls-6 {
        fill: url(#linear-gradient-6);
      }

      .cls-8 {
        fill: #000096;
      }

      .cls-9 {
        fill: url(#linear-gradient-15);
      }

      .cls-10 {
        fill: url(#linear-gradient-11);
      }

      .cls-11 {
        fill: #7a0009;
      }

      .cls-12 {
        fill: url(#linear-gradient-5);
      }

      .cls-13 {
        fill: url(#linear-gradient-13);
      }

      .cls-14 {
        fill: url(#linear-gradient-23);
      }

      .cls-15 {
        fill: url(#linear-gradient-16);
      }

      .cls-16 {
        fill: url(#linear-gradient-22);
      }

      .cls-17 {
        fill: #fff;
      }

      .cls-18 {
        fill: url(#linear-gradient-20);
      }

      .cls-19 {
        fill: url(#linear-gradient-14);
      }

      .cls-20 {
        fill: url(#linear-gradient-2);
      }

      .cls-21 {
        fill: url(#linear-gradient-7);
      }

      .cls-22 {
        fill: url(#linear-gradient-3);
      }

      .cls-23 {
        fill: url(#linear-gradient-9);
      }

      .cls-24 {
        fill: url(#linear-gradient-8);
      }

      .cls-25 {
        fill: url(#linear-gradient-18);
      }

      .cls-26 {
        fill: #ffe6e8;
      }

      .cls-27 {
        fill: url(#linear-gradient-10);
      }

      .cls-28 {
        fill: url(#linear-gradient-4);
      }
    </style>
    <linearGradient id="linear-gradient" x1="526.61" y1="328.91" x2="526.61" y2="491.69" gradientUnits="userSpaceOnUse">
      <stop offset="0" stop-color="#f50e1d"/>
      <stop offset=".31" stop-color="#f20d1c"/>
      <stop offset=".51" stop-color="#e90d1b"/>
      <stop offset=".68" stop-color="#da0d1a"/>
      <stop offset=".84" stop-color="#c50c18"/>
      <stop offset=".98" stop-color="#aa0b16"/>
      <stop offset="1" stop-color="#a60b16"/>
    </linearGradient>
    <linearGradient id="linear-gradient-2" x1="543.86" y1="421.73" x2="543.86" y2="520.09" gradientUnits="userSpaceOnUse">
      <stop offset="0" stop-color="#0e02e5"/>
      <stop offset=".31" stop-color="#0d01e2"/>
      <stop offset=".51" stop-color="#0b01d9"/>
      <stop offset=".68" stop-color="#0901ca"/>
      <stop offset=".84" stop-color="#0500b5"/>
      <stop offset=".98" stop-color="#00009a"/>
      <stop offset="1" stop-color="#000096"/>
    </linearGradient>
    <linearGradient id="linear-gradient-3" x1="544.37" y1="684.87" x2="544.37" y2="726.3" gradientUnits="userSpaceOnUse">
      <stop offset="0" stop-color="#fff"/>
      <stop offset=".3" stop-color="#fcfcfc"/>
      <stop offset=".49" stop-color="#f3f3f4"/>
      <stop offset=".66" stop-color="#e4e5e6"/>
      <stop offset=".81" stop-color="#cfd0d2"/>
      <stop offset=".94" stop-color="#b4b6b8"/>
      <stop offset="1" stop-color="#a7a9ac"/>
    </linearGradient>
    <linearGradient id="linear-gradient-4" x1="544.41" y1="745.1" x2="544.41" y2="770.82" xlink:href="#linear-gradient-2"/>
    <linearGradient id="linear-gradient-5" x1="544.41" y1="745.1" x2="544.41" y2="770.82" xlink:href="#linear-gradient-2"/>
    <linearGradient id="linear-gradient-6" x1="544.41" y1="745.1" x2="544.41" y2="770.82" xlink:href="#linear-gradient-2"/>
    <linearGradient id="linear-gradient-7" x1="544.41" y1="745.1" x2="544.41" y2="770.82" xlink:href="#linear-gradient-2"/>
    <linearGradient id="linear-gradient-8" x1="544.41" y1="745.1" x2="544.41" y2="770.82" xlink:href="#linear-gradient-2"/>
    <linearGradient id="linear-gradient-9" x1="544.41" y1="745.1" x2="544.41" y2="770.82" xlink:href="#linear-gradient-2"/>
    <linearGradient id="linear-gradient-10" x1="544.41" y1="745.1" x2="544.41" y2="770.82" xlink:href="#linear-gradient-2"/>
    <linearGradient id="linear-gradient-11" x1="544.41" y1="745.1" x2="544.41" y2="770.82" xlink:href="#linear-gradient-2"/>
    <linearGradient id="linear-gradient-12" x1="544.41" y1="745.1" x2="544.41" y2="770.82" xlink:href="#linear-gradient-2"/>
    <linearGradient id="linear-gradient-13" x1="544.41" y1="745.1" x2="544.41" y2="770.82" xlink:href="#linear-gradient-2"/>
    <linearGradient id="linear-gradient-14" x1="544.41" y1="745.1" x2="544.41" y2="770.82" xlink:href="#linear-gradient-2"/>
    <linearGradient id="linear-gradient-15" x1="544.43" y1="568" x2="544.43" y2="660.44" xlink:href="#linear-gradient"/>
    <linearGradient id="linear-gradient-16" x1="544.43" y1="568" x2="544.43" y2="660.44" xlink:href="#linear-gradient"/>
    <linearGradient id="linear-gradient-17" x1="544.43" y1="568" x2="544.43" y2="660.44" xlink:href="#linear-gradient"/>
    <linearGradient id="linear-gradient-18" x1="544.43" y1="568" x2="544.43" y2="660.44" xlink:href="#linear-gradient"/>
    <linearGradient id="linear-gradient-19" x1="544.43" y1="568" x2="544.43" y2="660.44" xlink:href="#linear-gradient"/>
    <linearGradient id="linear-gradient-20" x1="544.43" y1="568" x2="544.43" y2="660.44" xlink:href="#linear-gradient"/>
    <linearGradient id="linear-gradient-21" x1="544.43" y1="568" x2="544.43" y2="660.44" xlink:href="#linear-gradient"/>
    <linearGradient id="linear-gradient-22" x1="544.43" y1="568" x2="544.43" y2="660.44" xlink:href="#linear-gradient"/>
    <linearGradient id="linear-gradient-23" x1="544.43" y1="568" x2="544.43" y2="660.44" xlink:href="#linear-gradient"/>
  </defs>
  <g>
    <path class="cls-11" d="m474.02,503.66c-7.93,0-14.28-4.19-17.88-11.8-4.99-10.54-.34-21.5,11.84-27.93,26.08-13.78,48.38-30.58,66.29-49.93l.86-.92,1.26-.1c2.61-.2,5.14-.72,7.55-1.51-1.32.21-2.66.34-4.01.38-.33,0-.65.01-.98.01-8.46,0-16.47-3.38-22.55-9.52-6.51-6.58-10.05-15.44-9.96-24.97.18-19.02,14.7-34.42,33.06-35.05.37-.01.75-.02,1.12-.02,12.79,0,23.91,7.51,29.19,19.02,7.77-16.38,13.69-34.18,17.63-53.02.05-.24.07-.61.09-1.01.09-1.75.27-5,3.94-7.12l3.4-1.97,1.25,3.73c2.83,8.47,2.87,16.96,2.9,25.16,0,1.4.01,2.81.03,4.2.53,40-9.49,73.83-30.63,103.43-13.98,19.58-32.38,36.23-57.89,52.4-8.61,5.45-16.44,10.26-25.2,14.01-3.95,1.67-7.74,2.52-11.3,2.52Z"/>
    <path class="cls-26" d="m458.3,489.01c-4.32-9.12-.08-18.17,10.44-23.72,26.41-13.95,48.82-30.78,67.14-50.59,16.82-1.28,30.5-14.61,31.92-30.85-3.75,13-15.3,22.91-28.73,23.32-16.69.51-30.35-13.62-30.18-31.24.17-17.45,13.18-31.3,29.96-31.87,14.58-.5,26.71,9.93,29.58,24.25,9.62-18.48,16.77-38.73,21.39-60.82.4-1.91-.38-4.35,2.5-6.01,3.14,9.39,2.63,19.03,2.76,28.39.48,36.58-8.1,70.82-30.03,101.52-15.16,21.23-34.94,37.57-57,51.55-7.97,5.05-16.02,10.04-24.74,13.77-11.27,4.78-20.48,1.88-25.01-7.7Z"/>
    <path class="cls-4" d="m459.04,490.49c-4.32-9.12-.08-18.17,10.44-23.72,26.41-13.95,48.82-30.78,67.14-50.59,16.82-1.28,30.5-14.61,31.92-30.85-3.75,13-15.3,22.91-28.73,23.32-16.69.51-30.35-13.62-30.18-31.24.17-17.45,13.18-31.3,29.96-31.87,14.58-.5,26.71,9.93,29.58,24.25,9.62-18.48,16.77-38.73,21.39-60.82.4-1.91-.38-4.35,2.5-6.01,3.14,9.39,2.63,19.03,2.76,28.39.48,36.58-8.1,70.82-30.03,101.52-15.16,21.23-34.94,37.57-57,51.55-7.97,5.05-16.02,10.04-24.74,13.77-11.27,4.78-20.48,1.88-25.01-7.7Z"/>
  </g>
  <g>
    <path class="cls-8" d="m443.57,528.33c-9.56,0-15.22-.34-15.46-.36l-.22-5.87c94.27-12.77,144.4-73.26,165.89-108.19,4.23-6.88,11.54-10.83,20.05-10.83,5.67,0,11.4,1.78,16.55,5.15,11.01,7.2,17.11,20.39,14.87,32.16-1.99,31.35-1.87,53.49.31,57.79,3.14,6.16,11.41,6.67,13.87,6.68l.32,5.88c-.72.08-3.36.35-7.29.35h0c-8.78,0-21.89-1.28-34.47-7.37-5.68-2.74-9.68-7.95-11.93-15.52-51.68,36.15-130.48,40.13-162.49,40.13Z"/>
    <path class="cls-17" d="m642.25,498.17c-3.55-7-1.58-44.26-.61-59.5,2.06-10.43-3.22-22.57-13.55-29.32-11.84-7.74-26.07-5.66-32.47,4.75-20.05,32.58-70.99,96.42-168.01,109.56,0,0,114.37,7.01,179.6-41.79,1.47,7.72,4.77,14.64,11.39,17.83,18.08,8.75,37.55,7.04,40.14,6.75-1.87,0-12.38-.23-16.49-8.29Z"/>
    <path class="cls-20" d="m642.94,499.53c-3.55-7-1.58-44.26-.61-59.5,2.06-10.43-3.22-22.57-13.55-29.32-11.84-7.74-26.07-5.66-32.47,4.75-20.05,32.58-70.99,96.42-168.01,109.56,0,0,114.37,7.01,179.6-41.79,1.47,7.72,4.77,14.64,11.39,17.83,18.08,8.75,37.55,7.04,40.14,6.75-1.87,0-12.38-.23-16.49-8.29Z"/>
  </g>
  <g>
    <g>
      <polygon class="cls-7" points="316.03 730.16 317 725.3 317 712.35 315.59 717.77 315.59 721.81 302.69 721.81 302.69 717.77 301.65 713.82 301.65 725.3 302.62 730.16 286.79 730.16 287.76 725.3 287.76 681.45 286.79 676.6 301.81 676.6 309.14 699.36 316.2 677.45 316.03 676.6 316.47 676.6 316.8 675.57 318.22 676.6 331.87 676.6 330.9 681.45 330.9 725.3 331.87 730.16 316.03 730.16"/>
      <path class="cls-7" d="m353.09,725.28v-12.37h-4.94v12.37l.98,4.88h-15.94l.98-4.88v-42.38c0-3.41,2.77-6.18,6.17-6.18h20.52c3.43,0,6.23,2.79,6.23,6.23v42.27l.61,3.05v.17c0,1.66-1.17,1.67-3.51,1.68-1.12,0-2.6.01-4.09.02l-7.98.02.98-4.88Zm0-25.32v-9.25h-4.94v9.25h4.94Z"/>
      <path class="cls-7" d="m390.79,730.16l.09-4.35-6.66-14.84h-.05v14.34l.97,4.85h-15.84l.97-4.85v-43.29l-.97-4.85h27.74c1.63,0,3.16.63,4.31,1.78,1.15,1.15,1.78,2.68,1.78,4.3v21.11c0,2.69-1.75,4.98-4.17,5.79l6.96,14.79,1.04,5.21h-16.17Zm-1.55-32.17v-6.92h-5.07v6.92h5.07Z"/>
      <polygon class="cls-7" points="414.22 730.16 415.19 725.3 415.19 689.85 404.54 689.85 404.54 682.02 403.57 677.17 440.7 677.17 439.73 682.02 439.73 689.85 429.08 689.85 429.08 725.3 430.05 730.16 414.22 730.16"/>
      <polygon class="cls-7" points="439.1 730.16 440.07 725.31 440.01 681.58 439.04 676.72 454.88 676.72 453.91 681.57 453.98 725.3 454.95 730.16 439.1 730.16"/>
      <path class="cls-7" d="m476.08,725.28v-12.37h-4.94v12.37l.98,4.88h-15.94l.98-4.88v-42.38c0-3.41,2.77-6.18,6.17-6.18h20.52c3.43,0,6.23,2.79,6.23,6.23v42.27l.61,3.05v.17c0,1.66-1.17,1.67-3.51,1.68-1.12,0-2.6.01-4.09.02l-7.98.02.98-4.88Zm0-25.32v-9.25h-4.94v9.25h4.94Z"/>
      <polygon class="cls-7" points="492.36 730.19 493.33 725.34 493.33 681.61 492.36 676.76 508.2 676.76 507.23 681.61 507.23 716.29 522.74 716.29 522.74 725.34 523.71 730.19 492.36 730.19"/>
      <polygon class="cls-7" points="570.5 730.16 571.47 725.3 571.47 712.35 570.07 717.77 570.07 721.81 557.16 721.81 557.16 717.77 556.13 713.83 556.13 725.31 557.09 730.16 541.26 730.16 542.23 725.31 542.23 681.45 541.26 676.6 556.28 676.6 563.61 699.36 570.67 677.45 570.5 676.6 570.94 676.6 571.28 675.57 572.7 676.6 586.34 676.6 585.37 681.45 585.37 725.3 586.34 730.16 570.5 730.16"/>
      <path class="cls-7" d="m607.56,725.28v-12.37h-4.94v12.37l.97,4.88h-15.94l.98-4.88v-42.38c0-3.41,2.77-6.18,6.17-6.18h20.52c3.43,0,6.23,2.79,6.23,6.23v42.27l.61,3.05v.17c0,1.66-1.17,1.67-3.51,1.68-1.12,0-2.6.01-4.09.02l-7.98.02.98-4.88Zm0-25.32v-9.25h-4.94v9.25h4.94Z"/>
      <polygon class="cls-7" points="631.5 730.16 632.47 725.3 632.47 689.85 621.82 689.85 621.82 682.02 620.85 677.17 657.99 677.17 657.02 682.02 657.02 689.85 646.37 689.85 646.37 725.3 647.33 730.16 631.5 730.16"/>
      <path class="cls-7" d="m663.38,730.16c-3.41,0-6.19-2.78-6.19-6.19v-41.05c0-3.41,2.78-6.19,6.19-6.19h20.57c3.38,0,6.13,2.75,6.13,6.13v12.06l.97,4.85h-15.84l.97-4.85v-4.3h-5.1v25.64h5.1v-4.3l-.97-4.85h15.84l-.97,4.85v12.06c0,3.38-2.75,6.13-6.13,6.13h-20.57Z"/>
      <polygon class="cls-7" points="714.02 730.16 714.99 725.3 714.99 708.32 706.95 708.32 706.95 725.31 707.92 730.16 692.09 730.16 693.06 725.31 693.06 681.57 692.09 676.72 707.92 676.72 706.95 681.57 706.95 695.88 714.99 695.88 714.99 681.57 714.02 676.72 729.85 676.72 728.88 681.57 728.88 725.3 729.85 730.16 714.02 730.16"/>
      <path class="cls-7" d="m738.29,730.16c-3.41,0-6.19-2.78-6.19-6.19v-41.9l-.6-3.02v-.17c0-1.66,1.17-1.67,3.49-1.68,1.11,0,2.58-.01,4.05-.02l7.92-.02-.97,4.85v34.24h6.91v-34.24l-.97-4.85h15.84l-.97,4.85v42.01c0,3.38-2.75,6.13-6.13,6.13h-22.38Z"/>
      <path class="cls-7" d="m768.96,730.16l.97-4.85v-43.29l-.97-4.85h26.53c3.36,0,6.09,2.73,6.09,6.09v21.88c0,3.36-2.73,6.09-6.09,6.09h-11.66v14.08l.97,4.85h-15.84Zm18.72-32.83v-6.26h-3.86v6.26h3.86Z"/>
    </g>
    <g>
      <path class="cls-17" d="m328.85,724.7l.6,3.02h-11.78l.6-3.02v-26.18l-4.73,18.26v2.59h-9.58v-2.59l-4.36-16.68v24.59l.6,3.02h-11.78l.6-3.02v-44.19l-.6-3.02h11.78l8.54,26.52,8.55-26.52.44.32-.06-.32h11.78l-.6,3.02v44.19Z"/>
      <path class="cls-17" d="m354.37,724.67v-14.2h-8.27v14.2l.61,3.05h-11.88l.61-3.05v-42.54c0-2.49,2.02-4.51,4.51-4.51h20.52c2.52,0,4.56,2.04,4.56,4.56v42.44l.61,3.05s-11.88.05-11.88.05l.61-3.05Zm-8.27-23.82h8.27v-11.43c0-.63-.51-1.14-1.14-1.14h-5.99c-.63,0-1.14.51-1.14,1.14v11.43Z"/>
      <path class="cls-17" d="m392.17,724.7l-7.25-16.17h-2.79v16.17l.6,3.02h-11.78l.6-3.02v-43.62l-.6-3.02h25.71c2.44,0,4.43,1.98,4.42,4.42v21.11c0,2.47-2.01,4.46-4.47,4.45h-.51s7.84,16.66,7.84,16.66l.6,3.02h-12.45l.06-3.02Zm-1.65-26.82v-8.25c0-.55-.45-1-1-1h-7.4v10.25h7.4c.55,0,1-.45,1-1Z"/>
      <path class="cls-17" d="m438.29,678.06l-.6,3.02v6.34h-10.65v37.28l.6,3.02h-11.78l.6-3.02v-37.28h-10.65v-6.34l-.6-3.02h33.08Z"/>
      <path class="cls-17" d="m451.93,724.7l.6,3.02h-11.79l.6-3.02-.06-44.06-.6-3.02h11.78l-.6,3.02.07,44.06Z"/>
      <path class="cls-17" d="m477.36,724.67v-14.2h-8.27v14.2l.61,3.05h-11.88l.61-3.05v-42.54c0-2.49,2.02-4.51,4.51-4.51h20.52c2.52,0,4.56,2.04,4.56,4.56v42.44l.61,3.05s-11.88.05-11.88.05l.61-3.05Zm-8.27-23.82h8.27v-11.43c0-.63-.51-1.14-1.14-1.14h-5.99c-.63,0-1.14.51-1.14,1.14v11.43Z"/>
      <path class="cls-17" d="m521.29,727.76h-27.28l.6-3.02v-44.06l-.6-3.02h11.78l-.6,3.02v36.51h15.51v7.55l.6,3.02Z"/>
      <path class="cls-17" d="m583.32,724.7l.6,3.02h-11.78l.6-3.02v-26.18l-4.73,18.26v2.59h-9.58v-2.59l-4.36-16.68v24.59l.6,3.02h-11.78l.6-3.02v-44.19l-.6-3.02h11.78l8.54,26.52,8.55-26.52.44.32-.06-.32h11.78l-.6,3.02v44.19Z"/>
      <path class="cls-17" d="m608.84,724.67v-14.2h-8.27v14.2l.61,3.05h-11.88l.61-3.05v-42.54c0-2.49,2.02-4.51,4.51-4.51h20.52c2.52,0,4.56,2.04,4.57,4.56v42.44l.61,3.05s-11.88.05-11.88.05l.61-3.05Zm-8.27-23.82h8.27v-11.43c0-.63-.51-1.14-1.14-1.14h-5.99c-.63,0-1.14.51-1.14,1.14v11.43Z"/>
      <path class="cls-17" d="m655.57,678.06l-.6,3.02v6.34h-10.65v37.28l.6,3.02h-11.78l.6-3.02v-37.28h-10.65v-6.34l-.6-3.02h33.08Z"/>
      <path class="cls-17" d="m676.86,708h11.78l-.6,3.02v12.23c0,2.47-2,4.47-4.47,4.47h-20.57c-2.5,0-4.52-2.03-4.52-4.53v-41.05c0-2.5,2.03-4.53,4.52-4.53h20.57c2.47,0,4.47,2,4.47,4.47v12.23l.6,3.02h-11.78l.6-3.02v-5c0-.63-.51-1.13-1.13-1.13h-6.16c-.62,0-1.13.51-1.13,1.13v26.7c0,.62.51,1.13,1.13,1.13h6.16c.63,0,1.13-.51,1.13-1.13v-5l-.6-3.02Z"/>
      <path class="cls-17" d="m726.84,724.7l.6,3.02h-11.78l.6-3.02v-18.82h-11.36v18.82l.6,3.02h-11.78l.6-3.02v-44.06l-.6-3.02h11.78l-.6,3.02v16.13h11.36v-16.13l-.6-3.02h11.78l-.6,3.02v44.06Z"/>
      <path class="cls-17" d="m765.36,678.06l-.6,3.02v42.17c0,2.47-2,4.47-4.47,4.47h-22.38c-2.5,0-4.52-2.03-4.52-4.53v-42.06l-.6-3.02s11.78-.05,11.78-.05l-.6,3.02v34.94c0,.62.51,1.13,1.13,1.13h7.97c.62,0,1.13-.51,1.13-1.13v-34.94l-.6-3.02h11.78Z"/>
      <path class="cls-17" d="m795.11,678.06c2.44,0,4.42,1.98,4.42,4.42v21.88c0,2.45-1.98,4.43-4.43,4.43h-13.33v15.91l.6,3.02h-11.78l.6-3.02v-43.62l-.6-3.02h24.5Zm-6.14,19.16v-7.6c0-.55-.45-1-1-1h-6.19v9.59h6.19c.55,0,1-.45,1-1Z"/>
    </g>
    <g>
      <path class="cls-22" d="m329.23,725.47l.6,3.02h-11.78l.6-3.02v-26.18l-4.73,18.26v2.59h-9.58v-2.59l-4.36-16.68v24.59l.6,3.02h-11.78l.6-3.02v-44.19l-.6-3.02h11.78l8.54,26.52,8.55-26.52.44.32-.06-.32h11.78l-.6,3.02v44.19Z"/>
      <path class="cls-22" d="m354.76,725.44v-14.2h-8.27v14.2l.61,3.05h-11.88l.61-3.05v-42.54c0-2.49,2.02-4.51,4.51-4.51h20.52c2.52,0,4.56,2.04,4.56,4.56v42.44l.61,3.05s-11.88.05-11.88.05l.61-3.05Zm-8.27-23.82h8.27v-11.43c0-.63-.51-1.14-1.14-1.14h-5.99c-.63,0-1.14.51-1.14,1.14v11.43Z"/>
      <path class="cls-22" d="m392.55,725.47l-7.25-16.17h-2.79v16.17l.6,3.02h-11.78l.6-3.02v-43.62l-.6-3.02h25.71c2.44,0,4.43,1.98,4.42,4.42v21.11c0,2.47-2.01,4.46-4.47,4.45h-.51s7.84,16.66,7.84,16.66l.6,3.02h-12.45l.06-3.02Zm-1.65-26.82v-8.25c0-.55-.45-1-1-1h-7.4v10.25h7.4c.55,0,1-.45,1-1Z"/>
      <path class="cls-22" d="m438.67,678.83l-.6,3.02v6.34h-10.65v37.28l.6,3.02h-11.78l.6-3.02v-37.28h-10.65v-6.34l-.6-3.02h33.08Z"/>
      <path class="cls-22" d="m452.32,725.47l.6,3.02h-11.79l.6-3.02-.06-44.06-.6-3.02h11.78l-.6,3.02.07,44.06Z"/>
      <path class="cls-22" d="m477.74,725.44v-14.2h-8.27v14.2l.61,3.05h-11.88l.61-3.05v-42.54c0-2.49,2.02-4.51,4.51-4.51h20.52c2.52,0,4.56,2.04,4.56,4.56v42.44l.61,3.05s-11.88.05-11.88.05l.61-3.05Zm-8.27-23.82h8.27v-11.43c0-.63-.51-1.14-1.14-1.14h-5.99c-.63,0-1.14.51-1.14,1.14v11.43Z"/>
      <path class="cls-22" d="m521.68,728.52h-27.28l.6-3.02v-44.06l-.6-3.02h11.78l-.6,3.02v36.51h15.51v7.55l.6,3.02Z"/>
      <path class="cls-22" d="m583.7,725.47l.6,3.02h-11.78l.6-3.02v-26.18l-4.73,18.26v2.59h-9.58v-2.59l-4.36-16.68v24.59l.6,3.02h-11.78l.6-3.02v-44.19l-.6-3.02h11.78l8.54,26.52,8.55-26.52.44.32-.06-.32h11.78l-.6,3.02v44.19Z"/>
      <path class="cls-22" d="m609.23,725.44v-14.2h-8.27v14.2l.61,3.05h-11.88l.61-3.05v-42.54c0-2.49,2.02-4.51,4.51-4.51h20.52c2.52,0,4.56,2.04,4.57,4.56v42.44l.61,3.05s-11.88.05-11.88.05l.61-3.05Zm-8.27-23.82h8.27v-11.43c0-.63-.51-1.14-1.14-1.14h-5.99c-.63,0-1.14.51-1.14,1.14v11.43Z"/>
      <path class="cls-22" d="m655.96,678.83l-.6,3.02v6.34h-10.65v37.28l.6,3.02h-11.78l.6-3.02v-37.28h-10.65v-6.34l-.6-3.02h33.08Z"/>
      <path class="cls-22" d="m677.24,708.77h11.78l-.6,3.02v12.23c0,2.47-2,4.47-4.47,4.47h-20.57c-2.5,0-4.52-2.03-4.52-4.53v-41.05c0-2.5,2.03-4.53,4.52-4.53h20.57c2.47,0,4.47,2,4.47,4.47v12.23l.6,3.02h-11.78l.6-3.02v-5c0-.63-.51-1.13-1.13-1.13h-6.16c-.62,0-1.13.51-1.13,1.13v26.7c0,.62.51,1.13,1.13,1.13h6.16c.63,0,1.13-.51,1.13-1.13v-5l-.6-3.02Z"/>
      <path class="cls-22" d="m727.22,725.47l.6,3.02h-11.78l.6-3.02v-18.82h-11.36v18.82l.6,3.02h-11.78l.6-3.02v-44.06l-.6-3.02h11.78l-.6,3.02v16.13h11.36v-16.13l-.6-3.02h11.78l-.6,3.02v44.06Z"/>
      <path class="cls-22" d="m765.75,678.83l-.6,3.02v42.17c0,2.47-2,4.47-4.47,4.47h-22.38c-2.5,0-4.52-2.03-4.52-4.53v-42.06l-.6-3.02s11.78-.05,11.78-.05l-.6,3.02v34.94c0,.62.51,1.13,1.13,1.13h7.97c.62,0,1.13-.51,1.13-1.13v-34.94l-.6-3.02h11.78Z"/>
      <path class="cls-22" d="m795.5,678.83c2.44,0,4.42,1.98,4.42,4.42v21.88c0,2.45-1.98,4.43-4.43,4.43h-13.33v15.91l.6,3.02h-11.78l.6-3.02v-43.62l-.6-3.02h24.5Zm-6.14,19.16v-7.6c0-.55-.45-1-1-1h-6.19v9.59h6.19c.55,0,1-.45,1-1Z"/>
    </g>
  </g>
  <g>
    <g>
      <polygon class="cls-8" points="403.97 773.38 404.6 770.21 404.6 743 403.97 739.83 424.17 739.83 423.54 743 423.54 748.76 413.53 748.76 413.53 751.38 422.65 751.38 422.65 760.16 413.53 760.16 413.53 770.21 414.17 773.38 403.97 773.38"/>
      <polygon class="cls-8" points="427.96 773.38 428.59 770.21 428.56 743 427.92 739.83 438.12 739.83 437.49 743 437.53 770.2 438.16 773.38 427.96 773.38"/>
      <path class="cls-8" d="m447.59,773.38c-2.2,0-3.99-1.79-3.99-3.99v-25.56c0-2.2,1.79-3.99,3.99-3.99h14.69c1.06,0,2.05.41,2.8,1.16.75.75,1.16,1.74,1.16,2.8v6.75l.63,3.17h-3.26c1.68.32,2.95,1.8,2.95,3.57v12.93l.63,3.17h-19.61Zm10.04-8.93v-2.82h-2.99v-4.82l-.64-3.17h2.68l.62-3.11v-1.77h-4.78v15.69h5.1Z"/>
      <polygon class="cls-8" points="485.66 773.38 486.3 770.21 486.3 759.78 481.57 759.78 481.57 770.21 482.21 773.38 472.01 773.38 472.64 770.21 472.64 743 472.01 739.83 482.21 739.83 481.57 743 481.57 751.76 486.3 751.76 486.3 743 485.66 739.83 495.86 739.83 495.23 743 495.23 770.21 495.86 773.38 485.66 773.38"/>
      <polygon class="cls-8" points="505.62 773.38 506.25 770.21 506.25 748.28 499.62 748.28 499.62 743.28 498.98 740.1 522.45 740.1 521.81 743.28 521.81 748.28 515.18 748.28 515.18 770.21 515.81 773.38 505.62 773.38"/>
      <polygon class="cls-8" points="541.83 773.38 542.46 770.21 542.46 743 541.83 739.83 562.03 739.83 561.4 743 561.4 748.76 551.39 748.76 551.39 751.38 560.51 751.38 560.51 760.16 551.39 760.16 551.39 770.21 552.03 773.38 541.83 773.38"/>
      <polygon class="cls-8" points="565.82 773.38 566.45 770.21 566.41 743 565.78 739.83 575.98 739.83 575.34 743 575.39 770.2 576.02 773.38 565.82 773.38"/>
      <polygon class="cls-8" points="594.92 773.38 590.5 761.13 590.5 770.21 591.13 773.38 580.94 773.38 581.57 770.21 581.57 743 580.94 739.83 590.52 739.83 594.94 751.9 594.94 743 594.31 739.83 604.51 739.83 603.87 743 603.87 770.21 604.51 773.38 594.92 773.38"/>
      <path class="cls-8" d="m609.47,773.38l.63-3.17v-27.2l-.63-3.17h17.46c2.2,0,3.99,1.79,3.99,3.99v25.56c0,2.2-1.79,3.99-3.99,3.99h-17.46Zm12.52-8.93v-15.69h-2.96v15.69h2.96Z"/>
      <polygon class="cls-8" points="636.44 773.38 637.08 770.21 637.08 743 636.44 739.83 656.65 739.83 656.02 743 656.02 748.76 646.01 748.76 646.01 751.38 654.75 751.38 654.75 760.16 646.01 760.16 646.01 764.45 656.02 764.45 656.02 770.21 656.65 773.38 636.44 773.38"/>
      <path class="cls-8" d="m674.47,773.38l.06-2.82-3.9-8.69v8.34l.63,3.17h-10.2l.63-3.17v-26.93l-.63-3.17h17.44c2.17,0,3.93,1.76,3.93,3.93v13.14c0,1.68-1.06,3.12-2.55,3.69l4.28,9.08.68,3.43h-10.38Zm-.96-20.31v-4.03h-2.88v4.03h2.88Z"/>
    </g>
    <g>
      <path class="cls-17" d="m422.47,740.46l-.38,1.88v4.7h-10.01v4.97h9.12v6.43h-9.12v11.33l.38,1.88h-7.33l.38-1.88v-27.44l-.38-1.88h17.34Z"/>
      <path class="cls-17" d="m436.08,769.78l.38,1.88h-7.34l.38-1.88-.04-27.44-.38-1.88h7.33l-.38,1.88.04,27.44Z"/>
      <path class="cls-17" d="m462.66,754.27c1.36,0,2.46,1.1,2.46,2.46v13.04l.38,1.88h-18.17c-1.56,0-2.82-1.26-2.82-2.82v-25.56c0-1.56,1.26-2.82,2.82-2.82h14.69c1.54,0,2.78,1.25,2.78,2.78v6.86l.38,1.88h-7.33l.38-1.88v-2.33c0-.41-.33-.74-.73-.74h-5.66c-.41,0-.73.33-.73.74v16.57c0,.41.33.74.73.74h5.98c.41,0,.73-.33.73-.74v-4.43h-2.99v-3.76l-.38-1.88h7.48Z"/>
      <path class="cls-17" d="m493.78,769.78l.38,1.88h-7.33l.38-1.88v-11.72h-7.08v11.72l.38,1.88h-7.33l.38-1.88v-27.44l-.38-1.88h7.33l-.38,1.88v10.05h7.08v-10.05l-.38-1.88h7.33l-.38,1.88v27.44Z"/>
      <path class="cls-17" d="m520.74,740.74l-.38,1.88v3.95h-6.63v23.21l.38,1.88h-7.33l.38-1.88v-23.21h-6.63v-3.95l-.38-1.88h20.6Z"/>
      <path class="cls-17" d="m560.33,740.46l-.38,1.88v4.7h-10.01v4.97h9.12v6.43h-9.12v11.33l.38,1.88h-7.33l.38-1.88v-27.44l-.38-1.88h17.34Z"/>
      <path class="cls-17" d="m573.94,769.78l.38,1.88h-7.34l.38-1.88-.04-27.44-.38-1.88h7.33l-.38,1.88.04,27.44Z"/>
      <path class="cls-17" d="m602.43,769.78l.38,1.88h-7.33l-6.42-17.79v15.91l.38,1.88h-7.33l.38-1.88v-27.44l-.38-1.88h7.33l6.42,17.52v-15.64l-.38-1.88h7.33l-.38,1.88v27.44Z"/>
      <path class="cls-17" d="m629.48,743.28v25.56c0,1.56-1.26,2.82-2.82,2.82h-16.03l.38-1.88v-27.44l-.38-1.88h16.03c1.56,0,2.82,1.26,2.82,2.82Zm-6.58,21.09v-16.63c0-.39-.32-.71-.7-.71h-4.6v18.04h4.6c.39,0,.7-.32.7-.71Z"/>
      <path class="cls-17" d="m654.57,769.78l.38,1.88h-17.34l.38-1.88v-27.44l-.38-1.88h17.34l-.38,1.88v4.7h-10.01v4.97h8.75v6.42h-8.75v6.64h10.01v4.7Z"/>
      <path class="cls-17" d="m675.44,769.78l-4.52-10.07h-1.74v10.07l.38,1.88h-7.33l.38-1.88v-27.16l-.38-1.88h16.01c1.52,0,2.76,1.23,2.76,2.76v13.14c0,1.54-1.25,2.78-2.79,2.77h-.32s4.88,10.37,4.88,10.37l.38,1.88h-7.75l.04-1.88Zm-1.03-16.7v-5.14c0-.34-.28-.62-.62-.62h-4.61v6.38h4.61c.34,0,.62-.28.62-.62Z"/>
    </g>
    <g>
      <path class="cls-28" d="m422.74,741l-.38,1.88v4.7h-10.01v4.97h9.12v6.43h-9.12v11.33l.38,1.88h-7.33l.38-1.88v-27.44l-.38-1.88h17.34Z"/>
      <path class="cls-12" d="m436.35,770.32l.38,1.88h-7.34l.38-1.88-.04-27.44-.38-1.88h7.33l-.38,1.88.04,27.44Z"/>
      <path class="cls-6" d="m462.93,754.81c1.36,0,2.46,1.1,2.46,2.46v13.04l.38,1.88h-18.17c-1.56,0-2.82-1.26-2.82-2.82v-25.56c0-1.56,1.26-2.82,2.82-2.82h14.69c1.54,0,2.78,1.25,2.78,2.78v6.86l.38,1.88h-7.33l.38-1.88v-2.33c0-.41-.33-.74-.73-.74h-5.66c-.41,0-.73.33-.73.74v16.57c0,.41.33.74.73.74h5.98c.41,0,.73-.33.73-.74v-4.43h-2.99v-3.76l-.38-1.88h7.48Z"/>
      <path class="cls-21" d="m494.05,770.32l.38,1.88h-7.33l.38-1.88v-11.72h-7.08v11.72l.38,1.88h-7.33l.38-1.88v-27.44l-.38-1.88h7.33l-.38,1.88v10.05h7.08v-10.05l-.38-1.88h7.33l-.38,1.88v27.44Z"/>
      <path class="cls-24" d="m521.01,741.28l-.38,1.88v3.95h-6.63v23.21l.38,1.88h-7.33l.38-1.88v-23.21h-6.63v-3.95l-.38-1.88h20.6Z"/>
      <path class="cls-23" d="m560.6,741l-.38,1.88v4.7h-10.01v4.97h9.12v6.43h-9.12v11.33l.38,1.88h-7.33l.38-1.88v-27.44l-.38-1.88h17.34Z"/>
      <path class="cls-27" d="m574.21,770.32l.38,1.88h-7.34l.38-1.88-.04-27.44-.38-1.88h7.33l-.38,1.88.04,27.44Z"/>
      <path class="cls-10" d="m602.7,770.32l.38,1.88h-7.33l-6.42-17.79v15.91l.38,1.88h-7.33l.38-1.88v-27.44l-.38-1.88h7.33l6.42,17.52v-15.64l-.38-1.88h7.33l-.38,1.88v27.44Z"/>
      <path class="cls-1" d="m629.75,743.82v25.56c0,1.56-1.26,2.82-2.82,2.82h-16.03l.38-1.88v-27.44l-.38-1.88h16.03c1.56,0,2.82,1.26,2.82,2.82Zm-6.58,21.09v-16.63c0-.39-.32-.71-.7-.71h-4.6v18.04h4.6c.39,0,.7-.32.7-.71Z"/>
      <path class="cls-13" d="m654.84,770.32l.38,1.88h-17.34l.38-1.88v-27.44l-.38-1.88h17.34l-.38,1.88v4.7h-10.01v4.97h8.75v6.42h-8.75v6.64h10.01v4.7Z"/>
      <path class="cls-19" d="m675.71,770.32l-4.52-10.07h-1.74v10.07l.38,1.88h-7.33l.38-1.88v-27.16l-.38-1.88h16.01c1.52,0,2.76,1.23,2.76,2.76v13.14c0,1.54-1.25,2.78-2.79,2.77h-.32s4.88,10.37,4.88,10.37l.38,1.88h-7.75l.04-1.88Zm-1.03-16.7v-5.14c0-.34-.28-.62-.62-.62h-4.61v6.38h4.61c.34,0,.62-.28.62-.62Z"/>
    </g>
  </g>
  <g>
    <g>
      <path class="cls-11" d="m338.32,667.15c-5.81,0-10.92-1.05-15.17-3.13-3.06-1.49-6-3.56-8.79-6.18l-.56,7.88h-23.91v-79.09h26.52v51.96c1.93,1.31,3.75,2.23,5.44,2.72,2.05.6,4.84.9,8.3.9,2.22,0,4.28-.19,6.15-.58v-55h26.52v58.74c0,7.08-2.26,12.56-6.73,16.31-4.33,3.63-10.31,5.48-17.78,5.48Z"/>
      <path class="cls-11" d="m401.19,665.72v-54.98c-2.78-.77-5.99-1.16-9.58-1.16-4.81,0-10.03.74-15.52,2.2l-2.66.71-4.72-23.26,2.15-.74c3.47-1.19,7.53-2.14,12.05-2.83,4.51-.68,9.12-1.03,13.71-1.03,9.2,0,16.72,1.63,22.34,4.85,6.09,3.49,9.18,8.32,9.18,14.35v61.89h-26.95Z"/>
      <path class="cls-11" d="m469.09,667.15c-11.99,0-22.42-2.68-31.01-7.98l-1.72-1.06,6.83-21.43,2.71,1.35c7.62,3.81,15.66,5.74,23.91,5.74,3.49,0,6.49-.16,8.95-.46.13-.53.2-1.04.2-1.53,0-.57-.13-.92-.82-1.28-.69-.35-2.74-1.09-8.74-2.03-9.43-1.59-17.06-4.35-22.69-8.23-6.07-4.17-9.14-10.36-9.14-18.39,0-9.33,3.08-16.32,9.15-20.78,5.91-4.34,14.68-6.45,26.81-6.45,10.67,0,20.21,2.07,28.37,6.15l2.33,1.16-10.45,20.71-2.25-1c-5.47-2.42-11.86-3.65-19-3.65-3.14,0-5.83.23-8.04.7-.08.47-.11.95-.11,1.44,0,.32,0,.69,1.03,1.11,1.09.44,3.68,1.18,9.84,2.21,6.67,1.08,12.18,2.56,16.37,4.41,4.45,1.96,7.91,4.76,10.28,8.31,2.38,3.57,3.59,8.25,3.59,13.9,0,8.45-3.18,15.19-9.46,20.03-6.07,4.68-15.13,7.06-26.94,7.06Z"/>
      <path class="cls-11" d="m462.35,581.06v-25.51l1.95-.5c3.82-.98,8.43-1.82,13.7-2.49,5.3-.68,10.5-1.02,15.44-1.02s9.49.3,13.42.89c3.93.59,8.01,1.54,12.13,2.81l2.4.74-5.72,20.61-2.64-.97c-5.89-2.18-12.33-3.28-19.16-3.28-2.43,0-4.59.09-6.43.27v8.47h-25.09Z"/>
      <path class="cls-11" d="m539.71,667.15c-3.19,0-6.75-1.04-10.6-3.1-3.78-2.02-7.04-4.73-9.69-8.05-2.8-3.51-4.22-7.23-4.22-11.07v-58.88h26.52v51.43c0,1.97.06,3.37.15,4.36,1.76.24,3.82.36,6.14.36h6.74v21.58l-1.51.69c-3.86,1.77-8.42,2.67-13.54,2.67Z"/>
      <path class="cls-11" d="m596.43,667.15c-28.3,0-34.25-15.27-34.25-28.09v-5.87c0-3.7.72-6.81,2.14-9.25,1.3-2.24,3.1-4.51,5.35-6.76,1.6-1.71,2.4-2.73,2.77-3.28.32-.47.48-1.04.48-1.76,0-1.53-.32-1.97-.32-1.97h0s-.39-.31-1.81-.31h-9.04v-23.23h17.06c6.56,0,11.68,1.65,15.22,4.91,3.02,2.78,4.79,6.61,5.28,11.42h1.85c2.13,0,2.83-.48,2.99-.62.19-.17.87-.95,1.5-3.67.83-3.57,1.38-7.48,1.66-11.62l.18-2.68,27.44,2.83-.26,2.57c-.5,4.97-1.46,9.46-2.86,13.36-1.07,3-2.49,5.44-4.2,7.27-.88.93-1.94,1.78-3.21,2.56,2.13,1.29,3.78,2.85,4.94,4.67,1.86,2.94,2.77,6.86,2.77,11.99v10.46c0,5-1.46,9.65-4.33,13.79-2.84,4.11-7.04,7.4-12.48,9.78-5.32,2.33-11.67,3.51-18.87,3.51Zm2.14-52.9c-.27,1.05-.6,2.01-.99,2.88-1.19,2.64-2.94,5.33-5.18,7.99-1.29,1.55-2.27,2.96-2.9,4.17-.52,1-.78,2.32-.78,3.89v2.58c0,2.31.6,3.88,1.83,4.8,1.42,1.07,3.96,1.63,7.33,1.63,2.74,0,5.33-.28,7.72-.83v-13.48c0-1.17,0-3.34-4.79-4.02l-2.22-.32v-9.3Z"/>
      <polygon class="cls-11" points="567.33 581.06 567.33 561.44 585.23 559.12 607.16 559.12 607.16 550.67 631.96 550.67 631.96 581.06 567.33 581.06"/>
      <path class="cls-11" d="m680.36,668.01c-11.75,0-21.03-1.82-27.6-5.4-7.07-3.86-10.66-10.67-10.66-20.25,0-5.62,1.34-10.21,3.98-13.62,1.67-2.16,3.89-3.93,6.61-5.28-2.41-1.33-4.34-2.94-5.77-4.81-2.35-3.07-3.54-7.39-3.54-12.82,0-7.17,2.62-12.62,7.78-16.17,4.86-3.34,11.5-5.04,19.73-5.04,5.36,0,10.65.71,15.73,2.1l2.2.6-2.98,21.01-2.57-.37c-3.21-.46-5.93-.69-8.09-.69-1.51,0-3.25.11-5.17.33-.17.95-.26,1.84-.26,2.67,0,.76.11,1.75.62,2.11.25.17,1.3.74,4.52.74h13.91v22.08h-14.62c-3.37,0-4.56.6-4.92.86-.66.48-.8,1.74-.8,2.71,0,1.67.54,2.69,1.79,3.42,1.13.66,3.69,1.44,9.51,1.44,4.31,0,7.96-.36,10.87-1.08v-55.93h26.38v52.87c0,13.01-6.36,28.52-36.68,28.52Z"/>
      <path class="cls-11" d="m753.98,667.15c-8.88,0-15.91-2.05-20.9-6.09-5.15-4.17-7.76-10.18-7.76-17.84,0-9.29,2.96-16.34,8.79-20.94,4.49-3.54,10.94-5.65,19.6-6.4h-21.34l-.52-1.92c-1.39-5.15-2.1-10.97-2.1-17.29v-5.24l1.7-.62c5.55-2.04,11.06-3.6,16.38-4.63,5.34-1.03,10.98-1.55,16.75-1.55,10.97,0,19.49,2.41,25.34,7.17,6,4.89,9.05,12.03,9.05,21.2v52.72h-26.38v-1.86l-1.09.41c-5.14,1.91-11.04,2.88-17.52,2.88Zm18.61-8.1v-18.82c-3.47-.77-7.07-1.16-10.73-1.16-3.38,0-6.65.31-9.76.92-.17.72-.26,1.51-.26,2.36,0,.74.25.94.57,1.12.47.27,1.67.73,4.44.73,3.56,0,6.51-.47,8.76-1.38l2.79-1.14,4.19,17.37Zm-11.16-43.49c3.68,0,7.37.39,11.02,1.16v-1.72c0-2.32-.51-3.84-1.51-4.51-.74-.5-2.77-1.35-7.93-1.35-3.15,0-6.08.17-8.73.5v6.18c2.24-.18,4.62-.26,7.15-.26Z"/>
    </g>
    <g>
      <path class="cls-26" d="m323.68,660.5c-3.92-1.91-7.59-4.82-11.03-8.74h-1.15l-.72,10.17h-18.91v-73.91h21.34v50.71c2.58,1.91,5.01,3.2,7.31,3.87,2.29.67,5.3,1,9.02,1,3.25,0,6.16-.38,8.74-1.15v-54.43h21.34v56.15c0,6.3-1.93,11.08-5.8,14.32-3.87,3.25-9.24,4.87-16.11,4.87-5.44,0-10.12-.96-14.04-2.87Z"/>
      <path class="cls-26" d="m403.18,607.64c-3.44-1.24-7.5-1.86-12.18-1.86-5.06,0-10.46.76-16.19,2.29l-3.72-18.33c3.34-1.15,7.21-2.05,11.6-2.72,4.39-.67,8.83-1,13.32-1,8.78,0,15.8,1.5,21.06,4.51,5.25,3.01,7.88,7.04,7.88,12.1v59.3h-21.77v-54.29Z"/>
      <path class="cls-26" d="m438.84,655.77l5.3-16.62c8.02,4.01,16.38,6.02,25.07,6.02,4.39,0,8.02-.24,10.89-.72.57-1.34.86-2.63.86-3.87,0-1.62-.74-2.82-2.22-3.58-1.48-.76-4.66-1.53-9.52-2.29-9.07-1.53-16.28-4.13-21.63-7.81-5.35-3.67-8.02-9.1-8.02-16.26,0-8.5,2.7-14.73,8.09-18.69,5.39-3.96,13.82-5.94,25.28-5.94,10.31,0,19.38,1.96,27.21,5.87l-8.16,16.19c-5.83-2.58-12.51-3.87-20.05-3.87-4.11,0-7.5.38-10.17,1.15-.38,1.15-.57,2.34-.57,3.58,0,1.62.88,2.79,2.65,3.51,1.77.72,5.23,1.5,10.38,2.36,6.49,1.05,11.75,2.46,15.76,4.23,4.01,1.77,7.07,4.23,9.17,7.38,2.1,3.15,3.15,7.3,3.15,12.46,0,7.64-2.82,13.63-8.45,17.98-5.64,4.35-14.09,6.52-25.35,6.52s-21.44-2.53-29.65-7.59Z"/>
      <path class="cls-26" d="m464.34,556.36c3.72-.95,8.19-1.77,13.39-2.43,5.21-.67,10.24-1,15.11-1s9.22.29,13.03.86c3.82.57,7.73,1.48,11.75,2.72l-4.3,15.47c-6.21-2.29-12.89-3.44-20.05-3.44-3.63,0-6.64.19-9.02.57v8.16h-19.91v-20.91Z"/>
      <path class="cls-26" d="m529.73,660.57c-3.49-1.86-6.45-4.32-8.88-7.38-2.43-3.05-3.65-6.21-3.65-9.45v-56.29h21.34v48.84c0,3.06.14,5.25.43,6.59,2.29.48,5.11.72,8.45.72h4.15v17.33c-3.53,1.62-7.69,2.44-12.46,2.44-2.77,0-5.9-.93-9.38-2.79Z"/>
      <path class="cls-26" d="m564.17,637.87v-5.87c0-3.25.59-5.9,1.79-7.95,1.19-2.05,2.84-4.13,4.94-6.23,1.43-1.53,2.46-2.74,3.08-3.65.62-.91.93-1.98.93-3.22,0-1.81-.36-3.08-1.07-3.8-.72-.72-1.93-1.07-3.65-1.07h-6.45v-18.05h14.47c5.92,0,10.41,1.41,13.46,4.23,3.06,2.82,4.58,6.95,4.58,12.39,0,4.39-.55,7.81-1.65,10.24-1.1,2.44-2.7,4.9-4.8,7.38-1.43,1.72-2.51,3.27-3.22,4.66-.72,1.39-1.07,3.08-1.07,5.08v2.58c0,3.15.95,5.44,2.87,6.88,1.91,1.43,4.87,2.15,8.88,2.15,3.72,0,7.16-.48,10.31-1.43v-15.47c0-3.72-2.34-5.92-7.02-6.59v-15.76c2.2,0,3.77-.43,4.73-1.29.95-.86,1.72-2.53,2.29-5.01.86-3.72,1.43-7.73,1.72-12.03l22.2,2.29c-.48,4.78-1.39,9.02-2.72,12.75-.96,2.67-2.17,4.8-3.65,6.37-1.48,1.58-3.75,2.94-6.8,4.08v.57c3.91,1.34,6.66,3.25,8.24,5.73,1.58,2.48,2.36,6.02,2.36,10.6v10.46c0,4.49-1.29,8.59-3.87,12.32-2.58,3.72-6.37,6.69-11.39,8.88-5.01,2.2-10.96,3.29-17.83,3.29-21.11,0-31.66-8.5-31.66-25.5Z"/>
      <path class="cls-26" d="m569.33,562.52l15.47-2h24.35v-8.45h19.62v25.21h-59.44v-14.75Z"/>
      <path class="cls-26" d="m653.41,659.14c-6.21-3.39-9.31-9.38-9.31-17.98,0-5.06,1.15-9.07,3.44-12.03,2.29-2.96,5.78-5.06,10.46-6.3v-.86c-4.39-1.43-7.59-3.46-9.6-6.09-2.01-2.62-3.01-6.37-3.01-11.24,0-6.3,2.22-10.98,6.66-14.04,4.44-3.05,10.53-4.58,18.26-4.58,5.16,0,10.17.67,15.04,2l-2.29,16.19c-3.34-.48-6.16-.72-8.45-.72-2.1,0-4.54.19-7.3.57-.48,1.82-.72,3.49-.72,5.01,0,2,.57,3.42,1.72,4.23,1.15.81,3.15,1.22,6.02,1.22h11.32v16.9h-12.03c-3.06,0-5.21.46-6.45,1.36-1.24.91-1.86,2.51-1.86,4.8,0,2.58,1.03,4.46,3.08,5.66,2.05,1.2,5.66,1.79,10.81,1.79,5.54,0,10.03-.57,13.46-1.72v-55.29h21.2v50.28c0,17.28-11.37,25.93-34.09,25.93-11.36,0-20.15-1.7-26.36-5.08Z"/>
      <path class="cls-26" d="m734.12,657.85c-4.54-3.67-6.8-8.95-6.8-15.83,0-8.5,2.6-14.8,7.81-18.91,5.2-4.1,13.77-6.16,25.71-6.16,4.58,0,9.12.62,13.61,1.86v-5.01c0-3.25-.88-5.46-2.65-6.66-1.77-1.19-4.89-1.79-9.38-1.79-4.2,0-7.97.29-11.32.86v5.87h-17.33c-1.34-4.96-2.01-10.5-2.01-16.62v-3.44c5.44-2.01,10.77-3.51,15.97-4.51,5.2-1,10.62-1.5,16.26-1.5,10.41,0,18.31,2.2,23.71,6.59,5.39,4.39,8.09,10.79,8.09,19.19v50.13h-21.2v-24.92c-4.3-1.15-8.74-1.72-13.32-1.72-4.11,0-8.02.43-11.75,1.29-.57,1.34-.86,2.86-.86,4.58,0,1.53.62,2.65,1.86,3.37,1.24.72,3.15,1.07,5.73,1.07,3.91,0,7.16-.52,9.74-1.58l4.01,16.62c-4.87,1.81-10.41,2.72-16.62,2.72-8.31,0-14.73-1.84-19.27-5.51Z"/>
    </g>
    <g>
      <path class="cls-9" d="m324.28,661.69c-3.92-1.91-7.59-4.82-11.03-8.74h-1.15l-.72,10.17h-18.91v-73.91h21.34v50.71c2.58,1.91,5.01,3.2,7.31,3.87,2.29.67,5.3,1,9.02,1,3.25,0,6.16-.38,8.74-1.15v-54.43h21.34v56.15c0,6.3-1.93,11.08-5.8,14.32-3.87,3.25-9.24,4.87-16.11,4.87-5.44,0-10.12-.96-14.04-2.87Z"/>
      <path class="cls-15" d="m403.78,608.84c-3.44-1.24-7.5-1.86-12.18-1.86-5.06,0-10.46.76-16.19,2.29l-3.72-18.33c3.34-1.15,7.21-2.05,11.6-2.72,4.39-.67,8.83-1,13.32-1,8.78,0,15.8,1.5,21.06,4.51,5.25,3.01,7.88,7.04,7.88,12.1v59.3h-21.77v-54.29Z"/>
      <path class="cls-2" d="m439.44,656.97l5.3-16.62c8.02,4.01,16.38,6.02,25.07,6.02,4.39,0,8.02-.24,10.89-.72.57-1.34.86-2.63.86-3.87,0-1.62-.74-2.82-2.22-3.58-1.48-.76-4.66-1.53-9.52-2.29-9.07-1.53-16.28-4.13-21.63-7.81-5.35-3.67-8.02-9.1-8.02-16.26,0-8.5,2.7-14.73,8.09-18.69,5.39-3.96,13.82-5.94,25.28-5.94,10.31,0,19.38,1.96,27.21,5.87l-8.16,16.19c-5.83-2.58-12.51-3.87-20.05-3.87-4.11,0-7.5.38-10.17,1.15-.38,1.15-.57,2.34-.57,3.58,0,1.62.88,2.79,2.65,3.51,1.77.72,5.23,1.5,10.38,2.36,6.49,1.05,11.75,2.46,15.76,4.23,4.01,1.77,7.07,4.23,9.17,7.38,2.1,3.15,3.15,7.3,3.15,12.46,0,7.64-2.82,13.63-8.45,17.98-5.64,4.35-14.09,6.52-25.35,6.52s-21.44-2.53-29.65-7.59Z"/>
      <path class="cls-25" d="m464.94,557.56c3.72-.95,8.19-1.77,13.39-2.43,5.21-.67,10.24-1,15.11-1s9.22.29,13.03.86c3.82.57,7.73,1.48,11.75,2.72l-4.3,15.47c-6.21-2.29-12.89-3.44-20.05-3.44-3.63,0-6.64.19-9.02.57v8.16h-19.91v-20.91Z"/>
      <path class="cls-3" d="m530.33,661.76c-3.49-1.86-6.45-4.32-8.88-7.38-2.43-3.05-3.65-6.21-3.65-9.45v-56.29h21.34v48.84c0,3.06.14,5.25.43,6.59,2.29.48,5.11.72,8.45.72h4.15v17.33c-3.53,1.62-7.69,2.44-12.46,2.44-2.77,0-5.9-.93-9.38-2.79Z"/>
      <path class="cls-18" d="m564.77,639.06v-5.87c0-3.25.59-5.9,1.79-7.95,1.19-2.05,2.84-4.13,4.94-6.23,1.43-1.53,2.46-2.74,3.08-3.65.62-.91.93-1.98.93-3.22,0-1.81-.36-3.08-1.07-3.8-.72-.72-1.93-1.07-3.65-1.07h-6.45v-18.05h14.47c5.92,0,10.41,1.41,13.46,4.23,3.06,2.82,4.58,6.95,4.58,12.39,0,4.39-.55,7.81-1.65,10.24-1.1,2.44-2.7,4.9-4.8,7.38-1.43,1.72-2.51,3.27-3.22,4.66-.72,1.39-1.07,3.08-1.07,5.08v2.58c0,3.15.95,5.44,2.87,6.88,1.91,1.43,4.87,2.15,8.88,2.15,3.72,0,7.16-.48,10.31-1.43v-15.47c0-3.72-2.34-5.92-7.02-6.59v-15.76c2.2,0,3.77-.43,4.73-1.29.95-.86,1.72-2.53,2.29-5.01.86-3.72,1.43-7.73,1.72-12.03l22.2,2.29c-.48,4.78-1.39,9.02-2.72,12.75-.96,2.67-2.17,4.8-3.65,6.37-1.48,1.58-3.75,2.94-6.8,4.08v.57c3.91,1.34,6.66,3.25,8.24,5.73,1.58,2.48,2.36,6.02,2.36,10.6v10.46c0,4.49-1.29,8.59-3.87,12.32-2.58,3.72-6.37,6.69-11.39,8.88-5.01,2.2-10.96,3.29-17.83,3.29-21.11,0-31.66-8.5-31.66-25.5Z"/>
      <path class="cls-5" d="m569.93,563.72l15.47-2h24.35v-8.45h19.62v25.21h-59.44v-14.75Z"/>
      <path class="cls-16" d="m654.01,660.33c-6.21-3.39-9.31-9.38-9.31-17.98,0-5.06,1.15-9.07,3.44-12.03,2.29-2.96,5.78-5.06,10.46-6.3v-.86c-4.39-1.43-7.59-3.46-9.6-6.09-2.01-2.62-3.01-6.37-3.01-11.24,0-6.3,2.22-10.98,6.66-14.04,4.44-3.05,10.53-4.58,18.26-4.58,5.16,0,10.17.67,15.04,2l-2.29,16.19c-3.34-.48-6.16-.72-8.45-.72-2.1,0-4.54.19-7.3.57-.48,1.82-.72,3.49-.72,5.01,0,2,.57,3.42,1.72,4.23,1.15.81,3.15,1.22,6.02,1.22h11.32v16.9h-12.03c-3.06,0-5.21.46-6.45,1.36-1.24.91-1.86,2.51-1.86,4.8,0,2.58,1.03,4.46,3.08,5.66,2.05,1.2,5.66,1.79,10.81,1.79,5.54,0,10.03-.57,13.46-1.72v-55.29h21.2v50.28c0,17.28-11.37,25.93-34.09,25.93-11.36,0-20.15-1.7-26.36-5.08Z"/>
      <path class="cls-14" d="m734.72,659.04c-4.54-3.67-6.8-8.95-6.8-15.83,0-8.5,2.6-14.8,7.81-18.91,5.2-4.1,13.77-6.16,25.71-6.16,4.58,0,9.12.62,13.61,1.86v-5.01c0-3.25-.88-5.46-2.65-6.66-1.77-1.19-4.89-1.79-9.38-1.79-4.2,0-7.97.29-11.32.86v5.87h-17.33c-1.34-4.96-2.01-10.5-2.01-16.62v-3.44c5.44-2.01,10.77-3.51,15.97-4.51,5.2-1,10.62-1.5,16.26-1.5,10.41,0,18.31,2.2,23.71,6.59,5.39,4.39,8.09,10.79,8.09,19.19v50.13h-21.2v-24.92c-4.3-1.15-8.74-1.72-13.32-1.72-4.11,0-8.02.43-11.75,1.29-.57,1.34-.86,2.86-.86,4.58,0,1.53.62,2.65,1.86,3.37,1.24.72,3.15,1.07,5.73,1.07,3.91,0,7.16-.52,9.74-1.58l4.01,16.62c-4.87,1.81-10.41,2.72-16.62,2.72-8.31,0-14.73-1.84-19.27-5.51Z"/>
    </g>
  </g>
</svg>